SplineFontDB: 3.0
FontName: HM_FTXnazli_ShadowItalic
FullName: HM_FTXnazli_ShadowItalic
FamilyName: HM_FTXnazli_ShadowItalic
Weight: Shadow
Copyright: Copyright (c) Hossein, 2013. All rights reserved.
Version: 0.1
ItalicAngle: 0
UnderlinePosition: -540
UnderlineWidth: 60
Ascent: 1638
Descent: 410
sfntRevision: 0x00010000
LayerCount: 2
Layer: 0 1 "Back"  1
Layer: 1 1 "Fore"  0
XUID: [1021 102 1371595031 6992056]
FSType: 0
OS2Version: 2
OS2_WeightWidthSlopeOnly: 0
OS2_UseTypoMetrics: 1
CreationTime: 1194658560
ModificationTime: 1360912902
PfmFamily: 17
TTFWeight: 400
TTFWidth: 5
LineGap: 0
VLineGap: 0
Panose: 2 0 5 3 8 0 0 2 0 3
OS2TypoAscent: 2100
OS2TypoAOffset: 0
OS2TypoDescent: -1000
OS2TypoDOffset: 0
OS2TypoLinegap: 0
OS2WinAscent: 2100
OS2WinAOffset: 0
OS2WinDescent: 1000
OS2WinDOffset: 0
HheadAscent: 2100
HheadAOffset: 0
HheadDescent: -1000
HheadDOffset: 0
OS2SubXSize: 1434
OS2SubYSize: 1331
OS2SubXOff: 0
OS2SubYOff: 293
OS2SupXSize: 1434
OS2SupYSize: 1331
OS2SupXOff: 0
OS2SupYOff: 928
OS2StrikeYSize: 102
OS2StrikeYPos: 512
OS2Vendor: 'pars'
OS2CodePages: 20000051.41000000
OS2UnicodeRanges: 00002003.80000000.00000008.00000000
Lookup: 4 0 1 "gsub_ligature_dfl_liga_arab_FAR_Lookup_01"  {"gsub_ligature_dfl_liga_arab_FAR_Lookup_01_Subtable_01"  } ['liga' ('arab' <'FAR ' > ) ]
Lookup: 4 0 1 "gsub_ligature_dfl_liga_arab_FAR_Lookup_02"  {"gsub_ligature_dfl_liga_arab_FAR_Lookup_02_Subtable_01"  } ['liga' ('arab' <'FAR ' > ) ]
Lookup: 3 0 0 "gsub_alternate_dfl_aalt_arab_FAR_Lookup_01"  {"gsub_alternate_dfl_aalt_arab_FAR_Lookup_01_Subtable_01"  } ['aalt' ('arab' <'FAR ' > ) ]
Lookup: 1 1 0 "gsub_single_rtl_fina_arab_FAR_Lookup_01"  {"gsub_single_rtl_fina_arab_FAR_Lookup_01_Subtable_01"  } ['fina' ('arab' <'FAR ' > ) ]
Lookup: 1 1 0 "gsub_single_rtl_init_arab_FAR_Lookup_01"  {"gsub_single_rtl_init_arab_FAR_Lookup_01_Subtable_01"  } ['init' ('arab' <'FAR ' > ) ]

StartChar: .notdef
Encoding: 65536 -1 0
Width: 1039
GlyphClass: 2
Flags: W
LayerCount: 2
Fore
SplineSet
647 299 m 0,0,1
 640 269 640 269 614.5 246.5 c 128,-1,2
 589 224 589 224 559 224 c 0,3,4
 531 224 531 224 516.5 246.5 c 128,-1,5
 502 269 502 269 509 299 c 0,6,7
 516 331 516 331 541 352.5 c 128,-1,8
 566 374 566 374 597 374 c 0,9,10
 625 374 625 374 639.5 352.5 c 128,-1,11
 654 331 654 331 647 299 c 0,0,1
859 780 m 0,12,13
 849 737 849 737 821 710 c 128,-1,14
 793 683 793 683 758 683 c 0,15,16
 728 683 728 683 715 701.5 c 128,-1,17
 702 720 702 720 708 749 c 0,18,19
 713 770 713 770 726 785 c 128,-1,20
 739 800 739 800 753 810.5 c 128,-1,21
 767 821 767 821 778 829 c 128,-1,22
 789 837 789 837 791 843 c 0,23,24
 796 863 796 863 780 875 c 128,-1,25
 764 887 764 887 737 887 c 0,26,27
 702 887 702 887 674.5 866 c 128,-1,28
 647 845 647 845 640 813 c 0,29,30
 636 795 636 795 639.5 769 c 128,-1,31
 643 743 643 743 649 718 c 128,-1,32
 655 693 655 693 661 673 c 128,-1,33
 667 653 667 653 667 648 c 0,34,35
 671 619 671 619 669 583.5 c 128,-1,36
 667 548 667 548 659 513 c 0,37,38
 654 492 654 492 647.5 470.5 c 128,-1,39
 641 449 641 449 633 424 c 1,40,-1
 597 424 l 1,41,-1
 601 442 l 1,42,-1
 612 472 l 1,43,44
 620 505 620 505 587 544 c 0,45,46
 534 609 534 609 528 620 c 0,47,48
 498 673 498 673 514 740 c 0,49,50
 523 781 523 781 545 815.5 c 128,-1,51
 567 850 567 850 596.5 875.5 c 128,-1,52
 626 901 626 901 661.5 915 c 128,-1,53
 697 929 697 929 733 929 c 0,54,55
 766 929 766 929 793 918.5 c 128,-1,56
 820 908 820 908 837 888.5 c 128,-1,57
 854 869 854 869 860.5 841.5 c 128,-1,58
 867 814 867 814 859 780 c 0,12,13
128 31 m 1,59,-1
 928 31 l 1,60,-1
 1180 1122 l 1,61,-1
 380 1122 l 1,62,-1
 128 31 l 1,59,-1
91 0 m 1,63,-1
 357 1154 l 1,64,-1
 1215 1154 l 1,65,-1
 948 0 l 1,66,-1
 91 0 l 1,63,-1
EndSplineSet
EndChar

StartChar: exclam
Encoding: 33 33 4
Width: 553
VWidth: 1639
GlyphClass: 2
Flags: W
LayerCount: 2
Fore
SplineSet
235 266 m 1,0,1
 241 294 241 294 260 410 c 0,2,3
 291 586 291 586 314 809 c 1,4,5
 336 1064 336 1064 359 1161 c 0,6,7
 394 1311 394 1311 428 1374 c 0,8,9
 461 1436 461 1436 504 1451 c 0,10,11
 516 1455 516 1455 546 1455 c 0,12,13
 602 1455 602 1455 617 1427 c 0,14,15
 619 1422 619 1422 621 1419 c 0,16,17
 627 1405 627 1405 631 1345 c 0,18,19
 631 1340 631 1340 631 1337 c 0,20,21
 632 1330 632 1330 636 1317.5 c 128,-1,22
 640 1305 640 1305 641 1299 c 0,23,24
 647 1255 647 1255 638 1192 c 0,25,26
 617 1065 617 1065 520 805 c 0,27,28
 496 741 496 741 484 705 c 0,29,30
 393 448 393 448 341 223 c 1,31,-1
 330 223 l 1,32,-1
 330 221 l 1,33,34
 365 210 365 210 371 161 c 0,35,36
 371 156 371 156 372 153 c 0,37,38
 372 149 372 149 370 140 c 0,39,40
 367 122 367 122 368 115 c 0,41,42
 368 111 368 111 372 105 c 0,43,44
 375 99 375 99 376 97 c 0,45,46
 384 82 384 82 383 56 c 1,47,48
 377 -14 377 -14 314 -52 c 0,49,50
 277 -73 277 -73 241 -69 c 0,51,52
 222 -67 222 -67 196 -38 c 0,53,54
 190 -32 190 -32 186 -30 c 0,55,56
 182 -27 182 -27 162 -23 c 1,57,58
 142 -15 142 -15 127 5 c 1,59,60
 109 38 109 38 122 97 c 0,61,62
 142 182 142 182 193 213 c 0,63,64
 198 216 198 216 201 218 c 0,65,66
 235 231 235 231 301 230 c 1,67,-1
 308 266 l 1,68,-1
 235 266 l 1,0,1
299 359 m 1,69,70
 339 534 339 534 475 915 c 0,71,72
 529 1068 529 1068 558 1156 c 1,73,74
 589 1259 589 1259 576 1346 c 1,75,76
 566 1394 566 1394 540 1404 c 1,77,78
 517 1408 517 1408 480 1361 c 0,79,80
 434 1302 434 1302 405 1176 c 0,81,82
 391 1116 391 1116 379 976 c 0,83,84
 375 936 375 936 367 856 c 0,85,86
 352 696 352 696 342 617 c 0,87,88
 334 561 334 561 312 443 c 0,89,90
 307 422 307 422 302 387 c 0,91,92
 298 364 298 364 299 359 c 1,69,70
261 180 m 0,93,94
 226 180 226 180 188 137 c 0,95,96
 172 118 172 118 168 102 c 0,97,98
 159 65 159 65 194 35 c 0,99,100
 209 23 209 23 224 21 c 0,101,102
 259 21 259 21 296 65 c 0,103,104
 312 84 312 84 317 100 c 0,105,106
 327 136 327 136 293 166 c 0,107,108
 277 179 277 179 261 180 c 0,93,94
EndSplineSet
EndChar

StartChar: percent
Encoding: 37 37 8
Width: 1179
VWidth: 1639
GlyphClass: 2
Flags: W
LayerCount: 2
Fore
SplineSet
1150 1530 m 1,0,-1
 1169 1524 l 1,1,-1
 1172 1530 l 1,2,-1
 1190 1524 l 1,3,-1
 1193 1530 l 1,4,-1
 1249 1507 l 1,5,-1
 1238 1486 l 1,6,-1
 1243 1484 l 1,7,-1
 1232 1463 l 1,8,-1
 1238 1461 l 1,9,-1
 1224 1433 l 1,10,-1
 1260 1419 l 1,11,-1
 1223 1351 l 1,12,-1
 1169 1253 l 1,13,-1
 975 904 l 1,14,-1
 590 213 l 1,15,-1
 350 -218 l 1,16,-1
 291 -195 l 1,17,18
 298 -175 298 -175 294 -172 c 0,19,20
 291 -170 291 -170 288 -169 c 1,21,-1
 285 -175 l 1,22,-1
 226 -153 l 1,23,-1
 236 -130 l 1,24,-1
 232 -130 l 1,25,-1
 242 -107 l 1,26,-1
 237 -107 l 1,27,-1
 267 -49 l 1,28,-1
 329 62 l 1,29,-1
 519 402 l 1,30,-1
 921 1120 l 1,31,-1
 1150 1530 l 1,0,-1
1184 1466 m 1,32,-1
 1174 1469 l 1,33,-1
 1068 1281 l 1,34,-1
 847 886 l 1,35,-1
 291 -110 l 1,36,-1
 303 -113 l 1,37,-1
 317 -90 l 1,38,-1
 351 -31 l 1,39,-1
 509 253 l 1,40,-1
 1184 1466 l 1,32,-1
520 1402 m 1,41,42
 632 1417 632 1417 654 1348 c 1,43,44
 657 1324 657 1324 656 1312 c 0,45,46
 652 1290 652 1290 652 1287 c 0,47,48
 653 1279 653 1279 660 1267 c 0,49,50
 668 1249 668 1249 668 1238 c 0,51,52
 670 1175 670 1175 615 1131 c 0,53,54
 589 1110 589 1110 561 1105 c 0,55,56
 516 1098 516 1098 490 1122 c 0,57,58
 487 1125 487 1125 482 1133 c 0,59,60
 475 1142 475 1142 471 1145 c 128,-1,61
 467 1148 467 1148 456 1149 c 0,62,63
 447 1150 447 1150 444 1151 c 0,64,65
 407 1171 407 1171 400 1212 c 1,66,67
 398 1232 398 1232 406 1266 c 0,68,69
 433 1386 433 1386 520 1402 c 1,41,42
545 1355 m 0,70,71
 508 1351 508 1351 474 1310 c 0,72,73
 458 1290 458 1290 453 1273 c 0,74,75
 446 1238 446 1238 478 1208 c 0,76,77
 494 1193 494 1193 511 1194 c 0,78,79
 548 1198 548 1198 584 1240 c 0,80,81
 599 1259 599 1259 603 1274 c 0,82,83
 611 1310 611 1310 579 1340 c 0,84,85
 562 1356 562 1356 545 1355 c 0,70,71
927 218 m 1,86,87
 1039 233 1039 233 1060 162 c 0,88,89
 1061 158 1061 158 1059 119 c 0,90,91
 1059 110 1059 110 1059 105 c 0,92,93
 1060 96 1060 96 1067 81 c 0,94,95
 1074 63 1074 63 1075 54 c 0,96,97
 1076 -10 1076 -10 1020 -55 c 0,98,99
 993 -75 993 -75 965 -80 c 1,100,101
 924 -84 924 -84 896 -62 c 0,102,103
 893 -59 893 -59 888 -52 c 0,104,105
 882 -42 882 -42 878 -39.5 c 128,-1,106
 874 -37 874 -37 863 -35 c 0,107,108
 854 -34 854 -34 850 -33 c 0,109,110
 815 -15 815 -15 807 25 c 0,111,112
 804 46 804 46 814 87 c 0,113,114
 843 202 843 202 927 218 c 1,86,87
952 171 m 0,115,116
 916 169 916 169 880 125 c 0,117,118
 865 106 865 106 861 90 c 0,119,120
 851 54 851 54 885 24 c 0,121,122
 901 10 901 10 917 10 c 0,123,124
 953 12 953 12 989 55 c 0,125,126
 1004 74 1004 74 1009 90 c 0,127,128
 1017 126 1017 126 984 156 c 0,129,130
 968 170 968 170 952 171 c 0,115,116
EndSplineSet
EndChar

StartChar: parenleft
Encoding: 40 40 11
Width: 739
VWidth: 1639
GlyphClass: 2
Flags: W
LayerCount: 2
Fore
SplineSet
889 1240 m 1,0,1
 914 1250 l 1,2,3
 932 1250 932 1250 931 1228 c 0,4,5
 930 1221 930 1221 928 1217 c 0,6,7
 919 1201 919 1201 863 1141 c 0,8,9
 858 1135 858 1135 855 1132 c 0,10,11
 724 979 724 979 700 948 c 0,12,13
 501 689 501 689 436 453 c 0,14,15
 415 377 415 377 410 276 c 1,16,17
 404 185 404 185 413 131 c 0,18,19
 434 13 434 13 528 -191 c 0,20,21
 544 -226 544 -226 550 -239 c 0,22,23
 554 -248 554 -248 550 -281 c 0,24,25
 549 -290 549 -290 549 -297 c 0,26,27
 550 -304 550 -304 558 -320 c 0,28,29
 576 -357 576 -357 556 -376 c 0,30,31
 526 -403 526 -403 480 -358 c 0,32,33
 476 -354 476 -354 441 -335 c 0,34,35
 435 -332 435 -332 432 -330 c 0,36,37
 398 -303 398 -303 356 -243 c 0,38,39
 127 87 127 87 195 449 c 0,40,41
 225 599 225 599 278 715 c 0,42,43
 387 954 387 954 620 1166 c 0,44,45
 689 1229 689 1229 782 1294 c 0,46,47
 789 1298 789 1298 804 1309 c 0,48,49
 836 1331 836 1331 852 1337 c 0,50,51
 852 1339 852 1339 861 1337 c 2,52,-1
 870 1337 l 2,53,54
 873 1337 873 1337 882 1337 c 0,55,56
 910 1339 910 1339 916 1332 c 1,57,58
 920 1322 920 1322 915 1301 c 0,59,60
 902 1258 902 1258 898 1251 c 0,61,62
 893 1245 893 1245 889 1240 c 1,0,1
836 1261 m 1,63,64
 765 1223 765 1223 650 1118 c 0,65,66
 416 909 416 909 305 658 c 0,67,68
 263 561 263 561 249 497 c 0,69,70
 198 246 198 246 302 -8 c 1,71,72
 349 -118 349 -118 427 -220 c 0,73,74
 469 -275 469 -275 485 -285 c 0,75,76
 492 -289 492 -289 498 -290 c 1,77,78
 496 -277 496 -277 478 -243 c 0,79,80
 462 -208 462 -208 443 -162 c 0,81,82
 378 -14 378 -14 357 100 c 0,83,84
 300 414 300 414 460 746 c 0,85,86
 504 836 504 836 560 918 c 0,87,88
 635 1026 635 1026 724 1132 c 0,89,90
 738 1148 738 1148 767 1180 c 0,91,92
 816 1233 816 1233 836 1261 c 1,63,64
EndSplineSet
EndChar

StartChar: parenright
Encoding: 41 41 12
Width: 831
VWidth: 1639
GlyphClass: 2
Flags: W
LayerCount: 2
Fore
SplineSet
100 -336 m 1,0,1
 86 -343 86 -343 47 -343 c 0,2,3
 26 -342 26 -342 21 -336 c 1,4,5
 16 -322 16 -322 28 -285 c 1,6,7
 32 -267 l 1,8,9
 42 -247 42 -247 99 -188 c 0,10,11
 103 -183 103 -183 106 -180 c 0,12,13
 196 -78 196 -78 252 -8 c 1,14,15
 462 268 462 268 521 481 c 0,16,17
 556 611 556 611 538 786 c 0,18,19
 523 925 523 925 430 1137 c 0,20,21
 426 1147 426 1147 414 1174 c 0,22,23
 411 1181 411 1181 403 1197 c 0,24,25
 384 1233 384 1233 381 1251 c 1,26,27
 382 1267 382 1267 391 1294 c 1,28,29
 398 1320 398 1320 403 1325 c 0,30,31
 419 1339 419 1339 465 1337 c 0,32,33
 500 1336 500 1336 535 1297 c 0,34,35
 557 1273 557 1273 608 1200 c 0,36,37
 724 1033 724 1033 756 772 c 0,38,39
 776 607 776 607 762 500 c 0,40,41
 718 188 718 188 462 -96 c 0,42,43
 382 -185 382 -185 290 -259 c 0,44,45
 189 -341 189 -341 123 -379 c 1,46,47
 92 -395 92 -395 84 -374 c 0,48,49
 83 -367 83 -367 84 -361 c 0,50,51
 85 -359 85 -359 100 -336 c 1,0,1
101 -269 m 1,52,53
 179 -227 179 -227 313 -103 c 0,54,55
 540 104 540 104 643 357 c 0,56,57
 677 441 677 441 693 520 c 0,58,59
 733 733 733 733 656 950 c 0,60,61
 598 1109 598 1109 510 1219 c 0,62,63
 505 1225 505 1225 494 1236 c 0,64,65
 474 1259 474 1259 465 1269 c 0,66,67
 450 1283 450 1283 439 1284 c 1,68,69
 444 1267 444 1267 484 1182 c 0,70,71
 486 1177 486 1177 487 1174 c 0,72,73
 560 1003 560 1003 580 909 c 0,74,75
 633 631 633 631 523 346 c 0,76,77
 473 216 473 216 369 61 c 0,78,79
 297 -45 297 -45 212 -141 c 0,80,81
 200 -155 200 -155 174 -183 c 0,82,83
 123 -240 123 -240 101 -269 c 1,52,53
102 -335 m 1,84,-1
 100 -336 l 1,85,-1
 102 -335 l 1,84,-1
EndSplineSet
EndChar

StartChar: plus
Encoding: 43 43 14
Width: 841
VWidth: 1639
GlyphClass: 2
Flags: W
LayerCount: 2
Fore
SplineSet
547 897 m 1,0,-1
 678 897 l 1,1,-1
 658 809 l 1,2,-1
 690 809 l 1,3,-1
 628 540 l 1,4,-1
 926 540 l 1,5,-1
 906 451 l 1,6,-1
 938 451 l 1,7,-1
 916 358 l 1,8,-1
 586 358 l 1,9,-1
 503 2 l 1,10,-1
 415 2 l 1,11,-1
 425 44 l 1,12,-1
 350 44 l 1,13,-1
 422 358 l 1,14,-1
 165 358 l 1,15,-1
 174 400 l 1,16,-1
 100 400 l 1,17,-1
 132 540 l 1,18,-1
 464 540 l 1,19,-1
 547 897 l 1,0,-1
625 851 m 1,20,-1
 579 851 l 1,21,-1
 496 494 l 1,22,-1
 164 494 l 1,23,-1
 153 446 l 1,24,-1
 485 446 l 1,25,-1
 403 90 l 1,26,-1
 449 90 l 1,27,-1
 531 446 l 1,28,-1
 862 446 l 1,29,-1
 873 494 l 1,30,-1
 542 494 l 1,31,-1
 625 851 l 1,20,-1
EndSplineSet
EndChar

StartChar: hyphen
Encoding: 45 45 16
AltUni2: 002212.ffffffff.0 0000ad.ffffffff.0
Width: 1045
VWidth: 1639
GlyphClass: 2
Flags: W
LayerCount: 2
Fore
SplineSet
234 541 m 1,0,-1
 1029 541 l 1,1,-1
 1008 453 l 1,2,-1
 1040 453 l 1,3,-1
 1018 358 l 1,4,-1
 266 358 l 1,5,-1
 276 400 l 1,6,-1
 202 400 l 1,7,-1
 234 541 l 1,0,-1
975 495 m 1,8,-1
 266 495 l 1,9,-1
 255 446 l 1,10,-1
 964 446 l 1,11,-1
 975 495 l 1,8,-1
EndSplineSet
EndChar

StartChar: period
Encoding: 46 46 17
Width: 546
VWidth: 1639
GlyphClass: 2
Flags: W
LayerCount: 2
Fore
SplineSet
232 236 m 1,0,1
 342 250 342 250 363 179 c 0,2,3
 364 175 364 175 360 136 c 0,4,5
 360 127 360 127 360 121 c 0,6,7
 361 112 361 112 368 98 c 0,8,9
 376 80 376 80 377 69 c 0,10,11
 377 6 377 6 322 -38 c 0,12,13
 296 -57 296 -57 269 -62 c 0,14,15
 224 -69 224 -69 198 -46 c 0,16,17
 194 -43 194 -43 188 -34 c 0,18,19
 182 -25 182 -25 179 -21 c 1,20,21
 175 -19 175 -19 165 -18 c 0,22,23
 155 -16 155 -16 152 -15 c 0,24,25
 118 1 118 1 109 44 c 0,26,27
 107 56 107 56 114 98 c 1,28,29
 141 219 141 219 232 236 c 1,0,1
250 187 m 1,30,31
 210 179 210 179 178 139 c 0,32,33
 165 121 165 121 161 107 c 0,34,35
 154 71 154 71 185 41 c 0,36,37
 203 26 203 26 221 28 c 0,38,39
 259 34 259 34 292 73 c 0,40,41
 308 91 308 91 311 108 c 0,42,43
 318 145 318 145 286 174 c 0,44,45
 267 189 267 189 250 187 c 1,30,31
EndSplineSet
EndChar

StartChar: slash
Encoding: 47 47 18
Width: 471
VWidth: 1639
GlyphClass: 2
Flags: W
LayerCount: 2
Fore
SplineSet
-14 -93 m 1,0,1
 -20 -91 -20 -91 -11 -75 c 0,2,3
 -10 -74 -10 -74 -9 -72 c 2,4,-1
 -9 -71 l 2,5,6
 -7 -66 -7 -66 21 -2 c 0,7,8
 105 187 105 187 151 297 c 0,9,10
 212 442 212 442 503 1105 c 1,11,12
 565 1253 565 1253 598 1325 c 0,13,14
 603 1335 603 1335 611 1354 c 0,15,16
 619 1373 619 1373 624 1383 c 2,17,-1
 636 1409 l 1,18,19
 640 1412 640 1412 667 1410 c 2,20,-1
 757 1410 l 1,21,-1
 747 1387 l 1,22,23
 753 1385 753 1385 744 1369 c 0,24,25
 743 1368 743 1368 742 1366 c 2,26,-1
 742 1364 l 1,27,28
 745 1358 745 1358 729 1322 c 1,29,-1
 769 1322 l 1,30,-1
 704 1174 l 1,31,-1
 580 891 l 1,32,-1
 260 151 l 1,33,-1
 115 -182 l 1,34,-1
 35 -182 l 1,35,-1
 53 -139 l 1,36,-1
 -29 -139 l 1,37,-1
 -20 -116 l 1,38,39
 -26 -114 -26 -114 -16 -98 c 0,40,41
 -15 -97 -15 -97 -15 -95 c 2,42,-1
 -14 -93 l 1,0,1
694 1364 m 1,43,-1
 670 1363 l 1,44,-1
 657 1342 l 1,45,-1
 633 1284 l 1,46,-1
 520 1027 l 1,47,-1
 211 315 l 1,48,-1
 98 54 l 1,49,-1
 33 -93 l 1,50,-1
 60 -93 l 1,51,-1
 206 239 l 1,52,-1
 526 979 l 1,53,-1
 694 1364 l 1,43,-1
EndSplineSet
EndChar

StartChar: colon
Encoding: 58 58 29
Width: 546
VWidth: 1639
GlyphClass: 2
Flags: W
LayerCount: 2
Fore
SplineSet
353 771 m 0,0,1
 463 786 463 786 485 717 c 1,2,3
 488 693 488 693 488 681 c 0,4,5
 484 659 484 659 484 656 c 0,6,7
 485 648 485 648 491 635 c 0,8,9
 499 617 499 617 500 607 c 0,10,11
 502 543 502 543 447 498 c 0,12,13
 421 477 421 477 392 472 c 1,14,15
 347 468 347 468 322 490 c 0,16,17
 319 493 319 493 313 501 c 0,18,19
 306 510 306 510 303 513 c 0,20,21
 298 516 298 516 285 519 c 0,22,23
 276 521 276 521 273 522 c 0,24,25
 240 539 240 539 232 579 c 0,26,27
 230 591 230 591 237 633 c 1,28,29
 261 750 261 750 346 769 c 0,30,31
 350 770 350 770 353 771 c 0,0,1
378 722 m 0,32,33
 344 722 344 722 306 679 c 0,34,35
 289 658 289 658 285 641 c 0,36,37
 278 603 278 603 312 575 c 0,38,39
 327 563 327 563 341 563 c 0,40,41
 375 563 375 563 413 605 c 0,42,43
 430 626 430 626 435 643 c 0,44,45
 442 681 442 681 408 709 c 0,46,47
 393 722 393 722 378 722 c 0,32,33
233 236 m 1,48,49
 343 250 343 250 363 179 c 0,50,51
 364 175 364 175 360 136 c 0,52,53
 360 127 360 127 360 121 c 0,54,55
 361 112 361 112 368 98 c 0,56,57
 376 80 376 80 377 69 c 0,58,59
 377 6 377 6 322 -38 c 0,60,61
 296 -57 296 -57 269 -62 c 0,62,63
 224 -69 224 -69 198 -46 c 0,64,65
 194 -43 194 -43 189 -34 c 0,66,67
 183 -25 183 -25 179 -21 c 1,68,69
 175 -19 175 -19 165 -18 c 0,70,71
 155 -16 155 -16 152 -15 c 0,72,73
 118 1 118 1 109 44 c 0,74,75
 107 56 107 56 114 98 c 1,76,77
 142 219 142 219 233 236 c 1,48,49
250 187 m 1,78,79
 210 179 210 179 178 139 c 0,80,81
 165 121 165 121 161 107 c 0,82,83
 154 71 154 71 185 41 c 0,84,85
 203 26 203 26 221 28 c 0,86,87
 259 34 259 34 293 73 c 0,88,89
 309 91 309 91 311 108 c 0,90,91
 318 145 318 145 286 174 c 0,92,93
 267 189 267 189 250 187 c 1,78,79
EndSplineSet
EndChar

StartChar: equal
Encoding: 61 61 32
Width: 841
VWidth: 1639
GlyphClass: 2
Flags: W
LayerCount: 2
Fore
SplineSet
165 682 m 1,0,-1
 959 682 l 1,1,-1
 939 594 l 1,2,-1
 971 594 l 1,3,-1
 949 499 l 1,4,-1
 197 499 l 1,5,-1
 207 541 l 1,6,-1
 132 541 l 1,7,-1
 165 682 l 1,0,-1
906 636 m 1,8,-1
 197 636 l 1,9,-1
 186 587 l 1,10,-1
 895 587 l 1,11,-1
 906 636 l 1,8,-1
94 377 m 1,12,-1
 889 377 l 1,13,-1
 869 289 l 1,14,-1
 901 289 l 1,15,-1
 879 194 l 1,16,-1
 127 194 l 1,17,-1
 137 236 l 1,18,-1
 62 236 l 1,19,-1
 94 377 l 1,12,-1
836 331 m 1,20,-1
 126 331 l 1,21,-1
 115 282 l 1,22,-1
 824 282 l 1,23,-1
 836 331 l 1,20,-1
EndSplineSet
EndChar

StartChar: bracketleft
Encoding: 91 91 62
Width: 632
VWidth: 1639
GlyphClass: 2
Flags: W
LayerCount: 2
Fore
SplineSet
539 1938 m 1,0,-1
 956 1938 l 1,1,-1
 936 1850 l 1,2,-1
 968 1850 l 1,3,-1
 950 1773 l 1,4,-1
 740 1773 l 1,5,-1
 324 -28 l 1,6,-1
 502 -28 l 1,7,-1
 482 -116 l 1,8,-1
 514 -116 l 1,9,-1
 497 -192 l 1,10,-1
 121 -192 l 1,11,-1
 131 -149 l 1,12,-1
 57 -149 l 1,13,-1
 539 1938 l 1,0,-1
903 1893 m 1,14,-1
 571 1893 l 1,15,-1
 110 -103 l 1,16,-1
 442 -103 l 1,17,-1
 449 -74 l 1,18,-1
 239 -74 l 1,19,-1
 685 1861 l 1,20,-1
 896 1861 l 1,21,-1
 903 1893 l 1,14,-1
EndSplineSet
EndChar

StartChar: bracketright
Encoding: 93 93 64
Width: 675
VWidth: 1639
GlyphClass: 2
Flags: W
LayerCount: 2
Fore
SplineSet
538 1935 m 1,0,-1
 908 1935 l 1,1,-1
 888 1847 l 1,2,-1
 920 1847 l 1,3,-1
 449 -192 l 1,4,-1
 121 -192 l 1,5,-1
 131 -149 l 1,6,-1
 57 -149 l 1,7,-1
 85 -28 l 1,8,-1
 248 -28 l 1,9,-1
 663 1771 l 1,10,-1
 575 1771 l 1,11,-1
 584 1814 l 1,12,-1
 510 1814 l 1,13,-1
 538 1935 l 1,0,-1
855 1889 m 1,14,-1
 570 1889 l 1,15,-1
 563 1860 l 1,16,-1
 726 1860 l 1,17,-1
 280 -74 l 1,18,-1
 117 -74 l 1,19,-1
 110 -103 l 1,20,-1
 395 -103 l 1,21,-1
 855 1889 l 1,14,-1
EndSplineSet
EndChar

StartChar: guillemotleft
Encoding: 171 171 175
Width: 953
VWidth: 1639
GlyphClass: 2
Flags: W
LayerCount: 2
Fore
SplineSet
729 -31 m 1,0,1
 731 -34 731 -34 731 -42 c 0,2,3
 732 -50 732 -50 733 -52 c 0,4,5
 734 -58 734 -58 739 -71 c 0,6,7
 747 -93 747 -93 747 -103 c 0,8,9
 746 -121 746 -121 728 -126 c 1,10,11
 712 -127 712 -127 681 -95 c 0,12,13
 674 -88 674 -88 669 -85 c 0,14,15
 664 -82 664 -82 652 -78 c 0,16,17
 640 -73 640 -73 636 -71 c 0,18,19
 573 -21 573 -21 537 56 c 0,20,21
 453 236 453 236 526 462 c 0,22,23
 578 621 578 621 693 746 c 0,24,25
 749 807 749 807 804 845 c 1,26,27
 871 888 871 888 910 881 c 0,28,29
 912 881 912 881 917 882 c 0,30,31
 927 883 927 883 931 879 c 0,32,33
 935 873 935 873 930 851 c 2,34,-1
 920 812 l 1,35,36
 917 808 917 808 894 777 c 1,37,38
 936 797 936 797 943 791 c 1,39,40
 947 785 947 785 946 776 c 0,41,42
 944 767 944 767 910 727 c 0,43,44
 907 723 907 723 906 722 c 0,45,46
 853 654 853 654 814 594 c 1,47,48
 698 405 698 405 687 215 c 0,49,50
 684 154 684 154 719 42 c 0,51,52
 721 37 721 37 721 34 c 0,53,54
 737 -6 737 -6 736 -14 c 0,55,56
 734 -24 734 -24 729 -30 c 1,57,-1
 729 -31 l 1,0,1
569 774 m 1,58,59
 624 800 624 800 620 774 c 0,60,61
 618 762 618 762 586 725 c 0,62,63
 580 718 580 718 578 715 c 0,64,65
 529 654 529 654 483 581 c 1,66,67
 355 369 355 369 360 162 c 0,68,69
 361 126 361 126 395 37 c 0,70,71
 405 9 405 9 410 -10 c 0,72,73
 411 -13 411 -13 406 -39 c 0,74,75
 405 -45 405 -45 406 -49 c 0,76,77
 407 -54 407 -54 412 -67 c 0,78,79
 430 -109 430 -109 413 -125 c 1,80,81
 400 -135 400 -135 368 -108 c 0,82,83
 357 -100 357 -100 335 -86 c 0,84,85
 281 -49 281 -49 259 -23 c 0,86,87
 141 115 141 115 174 346 c 0,88,89
 185 428 185 428 216 508 c 0,90,91
 284 681 284 681 431 805 c 0,92,93
 450 820 450 820 466 833 c 0,94,95
 520 872 520 872 552 879 c 0,96,97
 552 881 552 881 560 880 c 2,98,-1
 568 879 l 2,99,100
 570 879 570 879 578 880 c 0,101,102
 601 882 601 882 606 877 c 0,103,104
 610 871 610 871 604 850 c 2,105,-1
 595 809 l 1,106,107
 593 804 593 804 569 774 c 1,58,59
845 804 m 1,108,109
 784 770 784 770 701 674 c 1,110,111
 583 532 583 532 553 403 c 0,112,113
 521 258 521 258 584 116 c 0,114,115
 622 29 622 29 665 -3 c 1,116,117
 660 16 660 16 649 51 c 0,118,119
 630 114 630 114 625 148 c 0,120,121
 599 379 599 379 718 608 c 0,122,123
 740 651 740 651 830 781 c 0,124,125
 838 794 838 794 845 804 c 1,108,109
520 800 m 1,126,127
 464 771 464 771 375 669 c 0,128,129
 252 525 252 525 226 385 c 1,130,131
 202 247 202 247 259 115 c 0,132,133
 298 23 298 23 340 -5 c 1,134,135
 305 121 305 121 303 133 c 0,136,137
 300 151 300 151 299 167 c 0,138,139
 279 369 279 369 380 581 c 0,140,141
 384 590 384 590 387 597 c 0,142,143
 408 640 408 640 494 763 c 0,144,145
 510 784 510 784 520 800 c 1,126,127
894 777 m 1,146,-1
 892 776 l 1,147,-1
 894 777 l 1,146,-1
EndSplineSet
EndChar

StartChar: guillemotright
Encoding: 187 187 176
Width: 950
VWidth: 1639
GlyphClass: 2
Flags: W
LayerCount: 2
Fore
SplineSet
499 -66 m 1,0,1
 494 -68 494 -68 483 -73 c 0,2,3
 467 -81 467 -81 460 -82 c 0,4,5
 457 -82 457 -82 453.5 -83 c 128,-1,6
 450 -84 450 -84 448 -84 c 128,-1,7
 446 -84 446 -84 442 -83 c 128,-1,8
 438 -82 438 -82 436.5 -82 c 128,-1,9
 435 -82 435 -82 431 -81 c 2,10,-1
 427 -80 l 1,11,12
 407 -80 407 -80 406 -80 c 0,13,14
 404 -76 404 -76 404 -72 c 0,15,16
 403 -67 403 -67 406 -60 c 0,17,18
 408 -53 408 -53 407 -51 c 2,19,-1
 416 -13 l 1,20,21
 421 -3 421 -3 455 36 c 1,22,23
 512 112 512 112 538 151 c 0,24,25
 627 291 627 291 651 395 c 0,26,27
 666 462 666 462 664 544 c 1,28,29
 659 639 659 639 609 787 c 0,30,31
 602 811 602 811 611 853 c 0,32,33
 617 876 617 876 621 879 c 0,34,35
 631 886 631 886 664 881 c 0,36,37
 666 881 666 881 671 882 c 0,38,39
 676 883 676 883 678 884 c 0,40,41
 690 879 690 879 706 866 c 0,42,43
 739 842 739 842 762 810 c 0,44,45
 818 732 818 732 838 631 c 0,46,47
 841 616 841 616 843 584 c 0,48,49
 845 564 845 564 846 554 c 0,50,51
 863 442 863 442 851 366 c 0,52,53
 819 175 819 175 671 14 c 0,54,55
 642 -17 642 -17 612 -43 c 0,56,57
 561 -86 561 -86 516 -110 c 0,58,59
 489 -125 489 -125 477 -126 c 1,60,61
 450 -123 450 -123 499 -66 c 1,0,1
172 -72 m 1,62,63
 137 -87 l 2,64,65
 133 -88 133 -88 102 -87 c 0,66,67
 99 -87 99 -87 93 -87 c 0,68,69
 80 -85 80 -85 78 -75 c 0,70,71
 78 -74 78 -74 84 -56 c 1,72,73
 87 -27 87 -27 92 -18 c 0,74,75
 95 -11 95 -11 131 32 c 0,76,77
 134 35 134 35 135 36 c 0,78,79
 187 105 187 105 218 153 c 1,80,81
 299 285 299 285 325 387 c 0,82,83
 342 453 342 453 338 541 c 0,84,85
 334 633 334 633 286 777 c 0,86,87
 276 808 276 808 287 846 c 0,88,89
 293 869 293 869 296 872 c 0,90,91
 306 880 306 880 339 876 c 0,92,93
 341 876 341 876 345 877 c 0,94,95
 351 878 351 878 353 877 c 0,96,97
 388 869 388 869 437 805 c 1,98,99
 491 730 491 730 513 626 c 0,100,101
 516 611 516 611 519 579 c 0,102,103
 521 559 521 559 522 549 c 0,104,105
 540 440 540 440 527 362 c 0,106,107
 490 143 490 143 304 -33 c 0,108,109
 300 -37 300 -37 297 -39 c 0,110,111
 247 -86 247 -86 194 -115 c 0,112,113
 190 -117 190 -117 182 -121 c 0,114,115
 162 -131 162 -131 154 -131 c 0,116,117
 128 -130 128 -130 167 -79 c 0,118,119
 171 -74 171 -74 172 -72 c 1,62,63
674 802 m 1,120,121
 674 795 674 795 682 774 c 0,122,123
 692 737 692 737 698 720 c 0,124,125
 713 666 713 666 718 579 c 1,126,127
 722 387 722 387 621 194 c 0,128,129
 582 120 582 120 493 -2 c 1,130,131
 511 5 511 5 546 36 c 0,132,133
 604 87 604 87 650 143 c 0,134,135
 752 270 752 270 782 387 c 0,136,137
 819 534 819 534 754 682 c 0,138,139
 717 766 717 766 674 802 c 1,120,121
350 797 m 1,140,141
 350 793 350 793 355 774 c 0,142,143
 358 766 358 766 363 750 c 0,144,145
 368 734 368 734 370 727 c 0,146,147
 390 650 390 650 392 571 c 0,148,149
 394 373 394 373 293 180 c 0,150,151
 263 123 263 123 167 -10 c 1,152,153
 229 27 229 27 303 110 c 1,154,155
 418 244 418 244 456 379 c 0,156,157
 469 428 469 428 468 497 c 0,158,159
 465 676 465 676 363 784 c 0,160,161
 356 791 356 791 350 797 c 1,140,141
176 -69 m 1,162,-1
 172 -72 l 1,163,-1
 176 -69 l 1,162,-1
EndSplineSet
EndChar

StartChar: guilsinglleft
Encoding: 8249 8249 195
Width: 520
GlyphClass: 2
Flags: W
LayerCount: 2
Fore
SplineSet
340 70 m 1,0,1
 347 48 347 48 344 35 c 0,2,3
 342 26 342 26 331 26 c 0,4,5
 323 26 323 26 309 33 c 1,6,7
 269 73 269 73 241.5 128 c 128,-1,8
 214 183 214 183 201 255 c 0,9,10
 189 321 189 321 192.5 385 c 128,-1,11
 196 449 196 449 209 513 c 1,12,13
 242 656 242 656 331 783 c 1,14,15
 421 904 421 904 523 958 c 1,16,17
 551 969 551 969 555 969 c 0,18,19
 562 969 562 969 561 963 c 0,20,21
 559 953 559 953 528 912 c 1,22,23
 379 746 379 746 325 513 c 0,24,25
 264 249 264 249 340 70 c 1,0,1
EndSplineSet
EndChar

StartChar: guilsinglright
Encoding: 8250 8250 196
Width: 523
GlyphClass: 2
Flags: W
LayerCount: 2
Fore
SplineSet
121 70 m 1,0,1
 282 249 282 249 343 513 c 0,2,3
 398 751 398 751 322 913 c 1,4,5
 311 954 311 954 313 963 c 0,6,7
 314 969 314 969 322 969 c 0,8,9
 324 969 324 969 331 966.5 c 128,-1,10
 338 964 338 964 347 958 c 0,11,12
 388 931 388 931 415.5 887 c 128,-1,13
 443 843 443 843 459 783 c 0,14,15
 477 718 477 718 476 650.5 c 128,-1,16
 475 583 475 583 460 513 c 0,17,18
 445 450 445 450 415.5 385 c 128,-1,19
 386 320 386 320 344 255 c 0,20,21
 301 188 301 188 246.5 130 c 128,-1,22
 192 72 192 72 134 33 c 1,23,24
 119 26 119 26 109 26 c 0,25,26
 98 26 98 26 100 35 c 0,27,28
 103 47 103 47 121 70 c 1,0,1
EndSplineSet
EndChar

StartChar: afii57451
Encoding: 1611 1611 311
AltUni2: 00fe70.ffffffff.0
Width: -16
VWidth: 1639
GlyphClass: 2
Flags: HW
AnchorPoint: "GposMark2BaseAnchorHamzaErabAbove_01_01" 579 1588 mark 0
AnchorPoint: "GposMark2BaseAnchorHamzaErabBelow_01_01" 579 2152 mark 0
AnchorPoint: "GposMark2BaseAnchorClassErabAbove_01_02" 579 1588 mark 0
AnchorPoint: "GposMark2MarkAnchorHamzaErabAbove_01_01" 579 1588 mark 0
AnchorPoint: "GposMark2MarkAnchorHamzaErabBelow_01_01" 579 2152 mark 0
AnchorPoint: "GposMark2MarkAnchorShaddaErabAbove_01_02" 579 1588 mark 0
AnchorPoint: "GposMark2MarkAnchorShaddaErabBelow_01_02" 579 2152 mark 0
LayerCount: 2
Fore
SplineSet
371 1861 m 1,0,-1
 394 1965 l 1,1,-1
 405 2004 l 1,2,-1
 434 2016 l 1,3,-1
 509 2045 l 1,4,-1
 692 2116 l 1,5,-1
 787 2152 l 1,6,-1
 785 2143 l 1,7,-1
 808 2152 l 1,8,-1
 806 2143 l 1,9,-1
 830 2152 l 1,10,-1
 806 2050 l 1,11,-1
 841 2063 l 1,12,-1
 826 1998 l 2,13,14
 820 1976 820 1976 819 1973 c 0,15,16
 810 1964 810 1964 790 1960 c 1,17,18
 719 1930 l 1,19,20
 657 1906 657 1906 538 1858 c 0,21,22
 529 1854 529 1854 509 1846 c 0,23,24
 458 1823 458 1823 435 1819 c 1,25,-1
 448 1875 l 1,26,-1
 413 1861 l 1,27,-1
 415 1870 l 1,28,-1
 392 1861 l 1,29,-1
 394 1870 l 1,30,-1
 371 1861 l 1,0,-1
772 2088 m 1,31,-1
 673 2050 l 1,32,-1
 515 1989 l 1,33,-1
 459 1968 l 1,34,-1
 437 1958 l 1,35,-1
 428 1925 l 1,36,-1
 515 1960 l 1,37,-1
 688 2029 l 1,38,-1
 744 2052 l 1,39,-1
 765 2061 l 1,40,-1
 772 2088 l 1,31,-1
317 1630 m 1,41,-1
 341 1733 l 1,42,-1
 352 1774 l 1,43,-1
 381 1786 l 1,44,-1
 456 1815 l 1,45,-1
 639 1886 l 1,46,-1
 734 1922 l 1,47,-1
 732 1914 l 1,48,-1
 755 1922 l 1,49,-1
 753 1914 l 1,50,-1
 777 1922 l 1,51,-1
 753 1820 l 1,52,-1
 788 1834 l 1,53,-1
 773 1768 l 1,54,-1
 766 1743 l 1,55,-1
 735 1729 l 1,56,-1
 659 1699 l 1,57,-1
 382 1588 l 1,58,-1
 395 1645 l 1,59,-1
 360 1630 l 1,60,-1
 362 1640 l 1,61,-1
 339 1630 l 1,62,-1
 341 1640 l 1,63,-1
 317 1630 l 1,41,-1
719 1858 m 1,64,-1
 620 1820 l 1,65,-1
 462 1760 l 1,66,-1
 406 1738 l 1,67,-1
 384 1729 l 1,68,-1
 375 1696 l 1,69,-1
 469 1733 l 1,70,-1
 635 1799 l 1,71,-1
 691 1822 l 1,72,-1
 712 1832 l 1,73,-1
 719 1858 l 1,64,-1
EndSplineSet
EndChar

StartChar: afii57452
Encoding: 1612 1612 312
AltUni2: 00fe72.ffffffff.0
Width: 53
VWidth: 1639
GlyphClass: 2
Flags: HW
AnchorPoint: "GposMark2BaseAnchorHamzaErabAbove_01_01" 576.5 1581 mark 0
AnchorPoint: "GposMark2BaseAnchorHamzaErabBelow_01_01" 576.5 2060 mark 0
AnchorPoint: "GposMark2BaseAnchorClassErabAbove_01_02" 576.5 1581 mark 0
AnchorPoint: "GposMark2MarkAnchorHamzaErabAbove_01_01" 576.5 1581 mark 0
AnchorPoint: "GposMark2MarkAnchorHamzaErabBelow_01_01" 576.5 2060 mark 0
AnchorPoint: "GposMark2MarkAnchorShaddaErabAbove_01_02" 576.5 1581 mark 0
AnchorPoint: "GposMark2MarkAnchorShaddaErabBelow_01_02" 576.5 2060 mark 0
LayerCount: 2
Fore
SplineSet
526 1824 m 1,0,1
 526 1890 526 1890 550 1932 c 0,2,3
 586 1994 586 1994 668 2037 c 0,4,5
 698 2053 698 2053 724 2058 c 0,6,7
 732 2060 732 2060 758 2060 c 0,8,9
 802 2059 802 2059 816 2048 c 0,10,11
 842 2028 842 2028 841 1983 c 0,12,13
 841 1980 841 1980 839 1972 c 0,14,15
 837 1957 837 1957 838 1952 c 0,16,17
 839 1947 839 1947 843 1938 c 0,18,19
 847 1931 847 1931 848 1929 c 0,20,21
 857 1887 857 1887 846 1853 c 0,22,23
 832 1815 832 1815 770 1751 c 0,24,25
 751 1732 751 1732 742 1720 c 1,26,-1
 784 1704 l 1,27,-1
 727 1629 l 1,28,29
 692 1638 692 1638 669 1650 c 0,30,31
 667 1651 667 1651 661 1656 c 0,32,33
 650 1665 650 1665 645.5 1665 c 128,-1,34
 641 1665 641 1665 627 1656 c 2,35,-1
 625 1655 l 2,36,37
 620 1652 620 1652 608 1646 c 0,38,39
 590 1637 590 1637 581 1633 c 0,40,41
 460 1581 460 1581 408 1588 c 0,42,43
 390 1592 390 1592 378 1610 c 0,44,45
 368 1629 368 1629 367 1630 c 0,46,47
 362 1631 362 1631 351 1631 c 0,48,49
 338 1631 338 1631 333 1633 c 0,50,51
 302 1646 302 1646 296 1707 c 0,52,53
 296 1711 296 1711 296 1712 c 1,54,-1
 305 1712 l 1,55,-1
 301 1735 l 1,56,-1
 311 1735 l 1,57,-1
 307 1758 l 1,58,59
 361 1758 361 1758 374 1768 c 0,60,61
 378 1772 378 1772 379 1774 c 0,62,63
 383 1778 383 1778 383 1787 c 0,64,65
 385 1798 385 1798 391 1804 c 1,66,-1
 358 1781 l 1,67,-1
 360 1797 l 1,68,-1
 336 1781 l 1,69,-1
 339 1797 l 1,70,-1
 315 1781 l 1,71,72
 317 1793 317 1793 318 1815 c 0,73,74
 320 1850 320 1850 326 1868 c 0,75,76
 328 1871 328 1871 328 1878 c 0,77,78
 329 1884 329 1884 330 1886 c 0,79,80
 337 1896 337 1896 364 1916 c 1,81,82
 396 1936 396 1936 453 1935 c 0,83,84
 493 1934 493 1934 507 1920 c 0,85,86
 521 1906 521 1906 519 1862 c 0,87,88
 518 1836 518 1836 526 1824 c 1,0,1
726 1848 m 1,89,90
 730 1853 730 1853 741 1866 c 0,91,92
 782 1912 782 1912 786 1934 c 0,93,94
 794 1971 794 1971 770 1998 c 0,95,96
 759 2009 759 2009 747 2009 c 0,97,98
 718 2008 718 2008 679 1975 c 1,99,100
 684 1975 684 1975 695 1975 c 0,101,102
 733 1977 733 1977 744 1970 c 1,103,104
 756 1958 756 1958 750 1925 c 0,105,106
 739 1880 739 1880 724 1848 c 1,107,-1
 726 1848 l 1,89,90
625 1935 m 1,108,109
 590 1909 590 1909 581 1881 c 0,110,111
 578 1869 578 1869 590 1828 c 0,112,113
 593 1817 593 1817 593 1811 c 0,114,115
 592 1805 592 1805 587 1796 c 1,116,117
 589 1785 589 1785 589 1784 c 2,118,119
 588 1782 588 1782 585 1779 c 0,120,121
 582 1775 582 1775 582 1773 c 0,122,123
 582 1771 582 1771 583 1768 c 0,124,125
 584 1762 584 1762 583 1760 c 0,126,127
 579 1756 579 1756 567 1748 c 0,128,129
 543 1737 543 1737 514 1732 c 0,130,131
 475 1723 475 1723 467 1727 c 1,132,-1
 446 1727 l 1,133,-1
 424 1724 l 1,134,-1
 440 1748 l 1,135,-1
 429 1747 l 1,136,-1
 445 1771 l 1,137,138
 439 1767 439 1767 431 1753 c 0,139,140
 421 1736 421 1736 407 1724 c 0,141,142
 395 1714 395 1714 361 1714 c 1,143,144
 372 1686 372 1686 385 1681 c 0,145,146
 394 1678 394 1678 429 1688 c 0,147,148
 485 1703 485 1703 544 1730 c 0,149,150
 547 1732 547 1732 556 1737 c 0,151,152
 581 1753 581 1753 591 1753 c 0,153,154
 596 1754 596 1754 606 1752 c 0,155,156
 618 1751 618 1751 622 1752 c 0,157,158
 624 1752 624 1752 628 1753 c 0,159,160
 633 1755 633 1755 635 1753 c 0,161,162
 641 1751 641 1751 653 1743 c 0,163,164
 662 1736 662 1736 667 1733 c 0,165,166
 679 1729 679 1729 680 1730 c 0,167,168
 685 1733 685 1733 696 1749 c 0,169,170
 697 1750 697 1750 698 1752 c 2,171,-1
 699 1753 l 1,172,-1
 676 1765 l 1,173,-1
 692 1781 l 1,174,-1
 681 1788 l 1,175,-1
 697 1804 l 1,176,177
 688 1810 688 1810 656 1806 c 0,178,179
 654 1806 654 1806 651 1807 c 0,180,181
 647 1808 647 1808 646 1809 c 0,182,183
 644 1809 644 1809 641 1808 c 0,184,185
 635 1807 635 1807 632 1807 c 0,186,187
 624 1812 624 1812 616 1829 c 0,188,189
 598 1868 598 1868 625 1935 c 1,108,109
445 1784 m 1,190,191
 467 1820 467 1820 469 1834 c 0,192,193
 472 1868 472 1868 448 1882 c 0,194,195
 442 1886 442 1886 434 1886 c 0,196,197
 412 1885 412 1885 383 1858 c 1,198,199
 449 1866 449 1866 454 1840 c 0,200,201
 455 1835 455 1835 446 1796 c 0,202,203
 445 1789 445 1789 444 1784 c 1,204,-1
 445 1784 l 1,190,191
528 1824 m 1,205,-1
 526 1822 l 1,206,-1
 528 1824 l 1,205,-1
392 1806 m 1,207,-1
 391 1804 l 1,208,-1
 392 1806 l 1,207,-1
EndSplineSet
EndChar

StartChar: afii57453
Encoding: 1613 1613 313
AltUni2: 00fe74.ffffffff.0
Width: -18
VWidth: 1639
GlyphClass: 2
Flags: HW
AnchorPoint: "GposMark2BaseAnchorClassErabBelow_01_02" -150 -130 mark 0
LayerCount: 2
Fore
SplineSet
-359 -420 m 1,0,-1
 -335 -317 l 1,1,-1
 -325 -277 l 1,2,-1
 -296 -266 l 1,3,-1
 -221 -236 l 1,4,-1
 -38 -166 l 1,5,-1
 57 -130 l 1,6,-1
 55 -138 l 1,7,-1
 79 -130 l 1,8,-1
 77 -138 l 1,9,-1
 100 -130 l 1,10,-1
 77 -231 l 1,11,-1
 112 -218 l 1,12,-1
 96 -284 l 2,13,14
 90 -306 90 -306 89 -308 c 0,15,16
 80 -317 80 -317 60 -321 c 1,17,18
 -11 -351 l 1,19,20
 -73 -375 -73 -375 -192 -423 c 0,21,22
 -201 -427 -201 -427 -220 -436 c 0,23,24
 -271 -459 -271 -459 -294 -462 c 1,25,-1
 -281 -407 l 1,26,-1
 -316 -420 l 1,27,-1
 -314 -412 l 1,28,-1
 -338 -420 l 1,29,-1
 -336 -412 l 1,30,-1
 -359 -420 l 1,0,-1
43 -194 m 1,31,-1
 -56 -231 l 1,32,-1
 -215 -292 l 1,33,-1
 -270 -313 l 1,34,-1
 -292 -323 l 1,35,-1
 -302 -356 l 1,36,-1
 -214 -321 l 1,37,-1
 -41 -253 l 1,38,-1
 14 -230 l 1,39,-1
 35 -220 l 1,40,-1
 43 -194 l 1,31,-1
-412 -651 m 1,41,-1
 -389 -548 l 1,42,-1
 -378 -507 l 1,43,-1
 -349 -495 l 1,44,-1
 -274 -466 l 1,45,-1
 -91 -395 l 1,46,-1
 4 -359 l 1,47,-1
 2 -367 l 1,48,-1
 26 -359 l 1,49,-1
 24 -367 l 1,50,-1
 47 -359 l 1,51,-1
 24 -461 l 1,52,-1
 59 -448 l 1,53,-1
 43 -513 l 1,54,-1
 36 -538 l 1,55,-1
 5 -553 l 1,56,-1
 -70 -582 l 1,57,-1
 -348 -694 l 1,58,-1
 -334 -636 l 1,59,-1
 -370 -651 l 1,60,-1
 -367 -641 l 1,61,-1
 -391 -651 l 1,62,-1
 -389 -641 l 1,63,-1
 -412 -651 l 1,41,-1
-10 -423 m 1,64,-1
 -109 -461 l 1,65,-1
 -268 -522 l 1,66,-1
 -323 -543 l 1,67,-1
 -345 -553 l 1,68,-1
 -355 -585 l 1,69,-1
 -260 -548 l 1,70,-1
 -94 -482 l 1,71,-1
 -39 -459 l 1,72,-1
 -18 -449 l 1,73,-1
 -10 -423 l 1,64,-1
EndSplineSet
EndChar

StartChar: afii57454
Encoding: 1614 1614 314
AltUni2: 00fe76.ffffffff.0
Width: -6
VWidth: 1639
GlyphClass: 2
Flags: HW
AnchorPoint: "GposMark2BaseAnchorHamzaErabAbove_01_01" 527.5 1588 mark 0
AnchorPoint: "GposMark2BaseAnchorHamzaErabBelow_01_01" 527.5 1922 mark 0
AnchorPoint: "GposMark2BaseAnchorClassErabAbove_01_02" 527.5 1588 mark 0
AnchorPoint: "GposMark2MarkAnchorHamzaErabAbove_01_01" 527.5 1588 mark 0
AnchorPoint: "GposMark2MarkAnchorHamzaErabBelow_01_01" 527.5 1922 mark 0
AnchorPoint: "GposMark2MarkAnchorShaddaErabAbove_01_02" 527.5 1588 mark 0
AnchorPoint: "GposMark2MarkAnchorShaddaErabBelow_01_02" 527.5 1922 mark 0
LayerCount: 2
Fore
SplineSet
292 1630 m 1,0,-1
 316 1733 l 1,1,-1
 327 1774 l 1,2,-1
 355 1786 l 1,3,-1
 431 1815 l 1,4,-1
 613 1886 l 1,5,-1
 708 1922 l 1,6,-1
 706 1914 l 1,7,-1
 730 1922 l 1,8,-1
 728 1914 l 1,9,-1
 751 1922 l 1,10,-1
 728 1820 l 1,11,-1
 763 1834 l 1,12,-1
 748 1768 l 1,13,-1
 740 1743 l 1,14,-1
 709 1729 l 1,15,-1
 634 1699 l 1,16,-1
 357 1588 l 1,17,-1
 370 1645 l 1,18,-1
 334 1630 l 1,19,-1
 337 1640 l 1,20,-1
 313 1630 l 1,21,-1
 315 1640 l 1,22,-1
 292 1630 l 1,0,-1
694 1858 m 1,23,-1
 595 1820 l 1,24,-1
 436 1760 l 1,25,-1
 381 1738 l 1,26,-1
 359 1729 l 1,27,-1
 350 1696 l 1,28,-1
 444 1733 l 1,29,-1
 610 1799 l 1,30,-1
 665 1822 l 1,31,-1
 686 1832 l 1,32,-1
 694 1858 l 1,23,-1
EndSplineSet
EndChar

StartChar: afii57455
Encoding: 1615 1615 315
AltUni2: 00fe78.ffffffff.0
Width: 52
VWidth: 1639
GlyphClass: 2
Flags: HW
AnchorPoint: "GposMark2BaseAnchorHamzaErabAbove_01_01" 538.5 1584 mark 0
AnchorPoint: "GposMark2BaseAnchorHamzaErabBelow_01_01" 538.5 2077 mark 0
AnchorPoint: "GposMark2BaseAnchorClassErabAbove_01_02" 538.5 1584 mark 0
AnchorPoint: "GposMark2MarkAnchorHamzaErabAbove_01_01" 538.5 1584 mark 0
AnchorPoint: "GposMark2MarkAnchorHamzaErabBelow_01_01" 538.5 2077 mark 0
AnchorPoint: "GposMark2MarkAnchorShaddaErabAbove_01_02" 538.5 1584 mark 0
AnchorPoint: "GposMark2MarkAnchorShaddaErabBelow_01_02" 538.5 2077 mark 0
LayerCount: 2
Fore
SplineSet
270 1760 m 1,0,1
 374 1760 374 1760 426 1771 c 0,2,3
 470 1779 470 1779 489 1791 c 0,4,5
 496 1797 496 1797 492 1822 c 0,6,7
 486 1859 486 1859 503 1911 c 0,8,9
 525 1972 525 1972 630 2035 c 0,10,11
 634 2037 634 2037 636 2039 c 0,12,13
 703 2077 703 2077 757 2060 c 0,14,15
 782 2051 782 2051 792 2032 c 0,16,17
 802 2013 802 2013 804 1984 c 0,18,19
 804 1981 804 1981 802 1974 c 0,20,21
 800 1958 800 1958 801 1952 c 0,22,23
 803 1944 803 1944 807 1929 c 0,24,25
 818 1887 818 1887 810 1860 c 0,26,27
 799 1821 799 1821 737 1756 c 0,28,29
 715 1733 715 1733 705 1720 c 1,30,-1
 746 1704 l 1,31,-1
 689 1629 l 1,32,33
 627 1648 627 1648 615 1662 c 0,34,35
 612 1666 612 1666 610 1668 c 1,36,-1
 609 1668 l 1,37,38
 599 1660 599 1660 553 1638 c 0,39,40
 474 1601 474 1601 416 1592 c 1,41,42
 378 1584 378 1584 365 1589 c 0,43,44
 351 1594 351 1594 341 1612 c 0,45,46
 340 1614 340 1614 338 1619 c 0,47,48
 334 1627 334 1627 331 1629 c 0,49,50
 329 1630 329 1630 303 1632 c 0,51,52
 298 1632 298 1632 294 1633 c 0,53,54
 266 1648 266 1648 259 1714 c 1,55,-1
 268 1714 l 1,56,-1
 264 1737 l 1,57,-1
 274 1737 l 1,58,-1
 270 1760 l 1,0,1
681 1843 m 1,59,60
 704 1861 704 1861 734 1906 c 0,61,62
 746 1923 746 1923 750 1935 c 0,63,64
 757 1972 757 1972 732 1999 c 0,65,66
 722 2008 722 2008 712 2011 c 0,67,68
 689 2013 689 2013 650 1981 c 0,69,70
 647 1978 647 1978 645 1976 c 1,71,72
 649 1976 649 1976 659 1977 c 0,73,74
 696 1979 696 1979 707 1970 c 0,75,76
 719 1957 719 1957 710 1927 c 1,77,78
 695 1868 695 1868 681 1843 c 1,59,60
584 1932 m 1,79,80
 543 1898 543 1898 543 1873 c 1,81,82
 546 1850 546 1850 553 1825 c 1,83,84
 555 1806 555 1806 549 1801 c 1,85,86
 548 1783 548 1783 544 1778 c 1,87,-1
 545 1761 l 1,88,89
 537 1745 537 1745 491 1733 c 1,90,91
 461 1724 461 1724 361 1717 c 0,92,93
 340 1715 340 1715 325 1714 c 1,94,95
 330 1687 330 1687 349 1679 c 1,96,97
 357 1678 357 1678 390 1688 c 0,98,99
 446 1703 446 1703 505 1730 c 0,100,101
 510 1733 510 1733 521 1738 c 0,102,103
 545 1750 545 1750 554 1756 c 1,104,-1
 556 1756 l 1,105,106
 565 1748 565 1748 576 1756 c 1,107,-1
 577 1756 l 1,108,109
 586 1748 586 1748 597 1756 c 1,110,-1
 598 1756 l 1,111,-1
 630 1733 l 1,112,-1
 644 1730 l 1,113,-1
 662 1753 l 1,114,-1
 640 1763 l 1,115,-1
 654 1781 l 1,116,-1
 645 1786 l 1,117,-1
 660 1804 l 1,118,-1
 650 1809 l 1,119,-1
 655 1815 l 1,120,-1
 638 1804 l 1,121,-1
 637 1804 l 1,122,123
 629 1814 629 1814 617 1804 c 1,124,-1
 616 1804 l 1,125,126
 608 1814 608 1814 596 1804 c 1,127,-1
 594 1804 l 1,128,129
 592 1808 592 1808 587 1816 c 0,130,131
 575 1834 575 1834 572 1845 c 0,132,133
 568 1866 568 1866 584 1932 c 1,79,80
681 1842 m 1,134,-1
 679 1840 l 1,135,-1
 681 1842 l 1,134,-1
EndSplineSet
EndChar

StartChar: afii57456
Encoding: 1616 1616 316
AltUni2: 00fe7a.ffffffff.0
Width: -8
VWidth: 1639
GlyphClass: 2
Flags: HW
AnchorPoint: "GposMark2BaseAnchorClassErabBelow_01_02" -118.5 -130 mark 0
LayerCount: 2
Fore
SplineSet
-354 -421 m 1,0,-1
 -330 -317 l 1,1,-1
 -319 -279 l 1,2,-1
 -292 -266 l 1,3,-1
 -220 -238 l 1,4,-1
 -39 -169 l 1,5,-1
 63 -130 l 1,6,-1
 61 -138 l 1,7,-1
 84 -130 l 1,8,-1
 82 -138 l 1,9,-1
 105 -130 l 1,10,-1
 82 -231 l 1,11,-1
 117 -218 l 1,12,-1
 102 -284 l 1,13,-1
 94 -310 l 1,14,-1
 67 -321 l 1,15,-1
 -5 -351 l 1,16,-1
 -289 -464 l 1,17,-1
 -276 -407 l 1,18,-1
 -311 -421 l 1,19,-1
 -309 -412 l 1,20,-1
 -333 -421 l 1,21,-1
 -330 -412 l 1,22,-1
 -354 -421 l 1,0,-1
48 -194 m 1,23,-1
 -208 -292 l 1,24,-1
 -265 -313 l 1,25,-1
 -287 -325 l 1,26,-1
 -296 -356 l 1,27,-1
 -212 -323 l 1,28,-1
 -36 -253 l 1,29,-1
 18 -231 l 1,30,-1
 40 -221 l 1,31,-1
 48 -194 l 1,23,-1
EndSplineSet
EndChar

StartChar: afii57457
Encoding: 1617 1617 317
AltUni2: 00fe7c.ffffffff.0
Width: 152
VWidth: 1639
GlyphClass: 2
Flags: HW
AnchorPoint: "GposMark2BaseAnchorHamzaErabAbove_01_01" 624 1580 mark 0
AnchorPoint: "GposMark2BaseAnchorHamzaErabBelow_01_01" 624 1958 mark 0
AnchorPoint: "GposMark2BaseAnchorClassErabAbove_01_02" 624 1580 mark 0
AnchorPoint: "GposMark2MarkAnchorHamzaErabAbove_01_01" 624 1580 mark 0
AnchorPoint: "GposMark2MarkAnchorHamzaErabBelow_01_01" 624 1958 mark 0
AnchorPoint: "GposMark2MarkAnchorShaddaErabAbove_01_02" 624 2108 basemark 0
AnchorPoint: "GposMark2MarkAnchorShaddaErabBelow_01_02" 624 1430 basemark 0
LayerCount: 2
Fore
SplineSet
829 1958 m 1,0,-1
 834 1945 l 1,1,-1
 851 1958 l 1,2,-1
 852 1958 l 1,3,-1
 855 1945 l 1,4,-1
 872 1958 l 1,5,-1
 874 1958 l 1,6,7
 889 1919 889 1919 876 1863 c 1,8,-1
 884 1870 l 1,9,-1
 885 1870 l 1,10,11
 896 1844 896 1844 890 1791 c 0,12,13
 877 1684 877 1684 811 1627 c 0,14,15
 776 1598 776 1598 736 1592 c 1,16,17
 691 1590 691 1590 670 1606 c 0,18,19
 665 1610 665 1610 658 1619 c 0,20,21
 639 1640 639 1640 623 1638 c 0,22,23
 617 1636 617 1636 592 1617 c 1,24,25
 561 1598 561 1598 533 1592 c 0,26,27
 482 1580 482 1580 456 1602 c 0,28,29
 451 1605 451 1605 444 1615 c 0,30,31
 436 1625 436 1625 433 1629 c 0,32,33
 428 1633 428 1633 414 1634 c 0,34,35
 403 1636 403 1636 399 1638 c 0,36,37
 367 1660 367 1660 356 1712 c 0,38,39
 352 1735 352 1735 363 1779 c 0,40,41
 383 1861 383 1861 423 1907 c 0,42,43
 450 1937 450 1937 495 1935 c 0,44,45
 497 1934 497 1934 503 1935 c 0,46,47
 515 1934 515 1934 518 1930 c 0,48,49
 521 1922 521 1922 516 1901 c 0,50,51
 514 1891 514 1891 508 1870 c 0,52,53
 502 1849 502 1849 500 1840 c 1,54,-1
 510 1845 l 1,55,56
 535 1853 535 1853 529 1822 c 0,57,58
 528 1818 528 1818 525 1809 c 0,59,60
 523 1802 523 1802 523 1799 c 1,61,62
 560 1817 560 1817 588 1874 c 0,63,64
 590 1878 590 1878 592 1883 c 0,65,66
 609 1925 609 1925 616 1930 c 0,67,68
 621 1934 621 1934 625 1937 c 0,69,70
 631 1940 631 1940 646 1938 c 1,71,72
 677 1942 677 1942 687 1937 c 1,73,74
 696 1929 696 1929 690 1879 c 0,75,76
 688 1864 688 1864 689 1858 c 0,77,78
 690 1854 690 1854 697 1849 c 0,79,80
 703 1843 703 1843 705 1840 c 0,81,82
 706 1836 706 1836 704 1823 c 0,83,84
 703 1795 703 1795 715 1794 c 0,85,86
 732 1794 732 1794 745 1820 c 0,87,88
 746 1823 746 1823 746 1824 c 0,89,90
 747 1828 747 1828 751 1855 c 0,91,92
 752 1859 752 1859 759 1891 c 0,93,94
 760 1893 760 1893 760 1898 c 0,95,96
 760 1904 760 1904 763 1907 c 0,97,98
 771 1918 771 1918 817 1949 c 0,99,100
 824 1954 824 1954 829 1958 c 1,0,-1
826 1884 m 1,101,102
 799 1871 799 1871 791 1821 c 0,103,104
 783 1780 783 1780 771 1765 c 0,105,106
 752 1744 752 1744 711 1743 c 0,107,108
 669 1743 669 1743 666 1745 c 0,109,110
 633 1759 633 1759 636 1840 c 0,111,112
 638 1874 638 1874 638 1871 c 0,113,114
 604 1778 604 1778 562 1756 c 1,115,116
 535 1745 535 1745 496 1748 c 0,117,118
 460 1751 460 1751 452 1759 c 0,119,120
 448 1764 448 1764 447 1768 c 0,121,122
 442 1797 442 1797 461 1868 c 1,123,-1
 459 1868 l 1,124,125
 413 1808 413 1808 409 1787 c 0,126,127
 408 1782 408 1782 408 1779 c 0,128,129
 406 1722 406 1722 440 1692 c 0,130,131
 453 1681 453 1681 468 1679 c 0,132,133
 498 1678 498 1678 545 1711 c 1,134,135
 576 1735 576 1735 583 1745 c 1,136,-1
 586 1745 l 1,137,-1
 590 1732 l 1,138,-1
 605 1745 l 1,139,-1
 608 1745 l 1,140,-1
 611 1732 l 1,141,-1
 626 1745 l 1,142,-1
 629 1745 l 1,143,144
 635 1704 635 1704 668 1688 c 0,145,146
 678 1683 678 1683 688 1683 c 0,147,148
 725 1684 725 1684 764 1722 c 0,149,150
 833 1787 833 1787 828 1868 c 0,151,152
 827 1877 827 1877 826 1884 c 1,101,102
EndSplineSet
EndChar

StartChar: afii57458
Encoding: 1618 1618 318
AltUni2: 00fe7e.ffffffff.0
Width: 14
VWidth: 1639
GlyphClass: 2
Flags: HW
AnchorPoint: "GposMark2BaseAnchorHamzaErabAbove_01_01" 532.5 1578 mark 0
AnchorPoint: "GposMark2BaseAnchorHamzaErabBelow_01_01" 532.5 2059 mark 0
AnchorPoint: "GposMark2BaseAnchorClassErabAbove_01_02" 532.5 1578 mark 0
AnchorPoint: "GposMark2MarkAnchorHamzaErabAbove_01_01" 532.5 1578 mark 0
AnchorPoint: "GposMark2MarkAnchorHamzaErabBelow_01_01" 532.5 2059 mark 0
AnchorPoint: "GposMark2MarkAnchorShaddaErabAbove_01_02" 532.5 1578 mark 0
AnchorPoint: "GposMark2MarkAnchorShaddaErabBelow_01_02" 532.5 2059 mark 0
LayerCount: 2
Fore
SplineSet
541 2040 m 1,0,1
 639 2059 639 2059 683 1992 c 0,2,3
 690 1980 690 1980 695 1968 c 0,4,5
 700 1956 700 1956 706 1890 c 0,6,7
 706 1886 706 1886 707 1883 c 0,8,9
 708 1873 708 1873 712 1854 c 0,10,11
 719 1810 719 1810 717 1784 c 0,12,13
 703 1649 703 1649 613 1605 c 0,14,15
 595 1596 595 1596 576 1592 c 0,16,17
 499 1578 499 1578 455 1604 c 0,18,19
 449 1608 449 1608 442 1618 c 0,20,21
 433 1629 433 1629 428 1632 c 0,22,23
 420 1637 420 1637 405 1643 c 0,24,25
 371 1659 371 1659 364 1683 c 0,26,27
 346 1754 346 1754 410 1876 c 1,28,29
 456 1960 456 1960 490 2001 c 0,30,31
 518 2033 518 2033 541 2040 c 1,0,1
650 1888 m 1,32,33
 642 1953 642 1953 596 1981 c 1,34,35
 569 1990 569 1990 563 1989 c 0,36,37
 545 1982 545 1982 516 1945 c 2,38,-1
 514 1943 l 2,39,40
 470 1886 470 1886 434 1815 c 0,41,42
 415 1778 415 1778 414 1761 c 0,43,44
 409 1692 409 1692 475 1681 c 0,45,46
 541 1669 541 1669 597 1719 c 0,47,48
 608 1730 608 1730 616 1740 c 1,49,50
 574 1726 574 1726 487 1727 c 0,51,52
 447 1728 447 1728 436 1750 c 0,53,54
 433 1759 433 1759 439 1786 c 1,55,56
 448 1838 448 1838 481 1886 c 0,57,58
 498 1912 498 1912 513 1919 c 0,59,60
 520 1921 520 1921 551 1920 c 0,61,62
 611 1920 611 1920 650 1888 c 1,32,33
521 1774 m 1,63,64
 555 1767 555 1767 589 1788 c 1,65,66
 612 1805 612 1805 603 1827 c 1,67,68
 599 1832 599 1832 583 1832 c 0,69,70
 547 1829 547 1829 521 1774 c 1,63,64
EndSplineSet
EndChar

StartChar: uni0654
Encoding: 1620 1620 320
Width: 92
VWidth: 1639
GlyphClass: 2
Flags: HW
AnchorPoint: "GposMark2BaseAnchorClassErabAbove_01_02" 578.5 1588 mark 0
AnchorPoint: "GposMark2MarkAnchorHamzaErabAbove_01_01" 578.5 2270 basemark 0
AnchorPoint: "GposMark2MarkAnchorHamzaErabBelow_01_01" 578.5 1438 basemark 0
LayerCount: 2
Fore
SplineSet
440 1774 m 1,0,1
 381 1812 381 1812 410 1903 c 0,2,3
 423 1943 423 1943 449 1976 c 0,4,5
 540 2091 540 2091 623 2116 c 0,6,7
 636 2120 636 2120 682 2119 c 0,8,9
 722 2118 722 2118 739 2111 c 0,10,11
 784 2089 784 2089 790 2032 c 0,12,13
 790 2026 790 2026 787 2013 c 0,14,15
 784 1995 784 1995 787 1988 c 0,16,17
 812 1931 812 1931 792 1916 c 0,18,19
 780 1907 780 1907 732 1924 c 0,20,21
 726 1926 726 1926 723 1927 c 0,22,23
 637 1941 637 1941 579 1894 c 1,24,25
 587 1890 587 1890 602 1881 c 0,26,27
 641 1857 641 1857 667 1858 c 0,28,29
 683 1859 683 1859 718 1866 c 0,30,31
 746 1871 746 1871 759 1873 c 1,32,33
 790 1872 790 1872 792 1870 c 0,34,35
 793 1869 793 1869 789 1853 c 0,36,37
 789 1850 l 0,38,39
 786 1829 786 1829 764 1778 c 1,40,41
 766 1778 766 1778 774 1780 c 0,42,43
 801 1787 801 1787 803 1781 c 0,44,45
 805 1778 805 1778 799 1762 c 2,46,-1
 798 1760 l 2,47,48
 794 1751 794 1751 785 1733 c 0,49,50
 776 1715 776 1715 773 1707 c 0,51,52
 764 1689 764 1689 760 1688 c 0,53,54
 752 1684 752 1684 735 1680 c 0,55,56
 725 1678 725 1678 722 1678 c 0,57,58
 701 1674 701 1674 646 1660 c 0,59,60
 515 1627 515 1627 409 1588 c 1,61,-1
 422 1643 l 1,62,-1
 387 1630 l 1,63,-1
 389 1638 l 1,64,-1
 366 1630 l 1,65,-1
 368 1638 l 1,66,-1
 345 1630 l 1,67,-1
 362 1704 l 1,68,-1
 370 1733 l 1,69,-1
 392 1748 l 1,70,-1
 440 1774 l 1,0,1
729 2012 m 1,71,72
 726 2025 726 2025 714 2042 c 0,73,74
 693 2070 693 2070 663 2071 c 0,75,76
 619 2071 619 2071 554 2009 c 0,77,78
 548 2003 548 2003 544 1998 c 1,79,80
 550 2000 550 2000 563 2005 c 0,81,82
 586 2015 586 2015 597 2017 c 0,83,84
 641 2026 641 2026 729 2012 c 1,71,72
514 1966 m 1,85,86
 490 1948 490 1948 465 1909 c 0,87,88
 454 1893 454 1893 454 1888 c 0,89,90
 453 1878 453 1878 463 1858 c 2,91,-1
 464 1856 l 1,92,93
 494 1810 494 1810 521 1794 c 1,94,-1
 502 1784 l 1,95,-1
 516 1771 l 1,96,-1
 497 1761 l 1,97,-1
 511 1748 l 1,98,-1
 420 1701 l 1,99,-1
 420 1699 l 1,100,101
 458 1708 458 1708 535 1731 c 0,102,103
 593 1748 593 1748 621 1756 c 0,104,105
 631 1758 631 1758 650 1763 c 0,106,107
 671 1767 671 1767 680 1770 c 0,108,109
 705 1775 705 1775 708 1776 c 0,110,111
 713 1781 713 1781 729 1817 c 1,112,113
 589 1791 589 1791 531 1845 c 1,114,115
 500 1878 500 1878 501 1904 c 0,116,117
 500 1932 500 1932 514 1966 c 1,85,86
EndSplineSet
EndChar

StartChar: uni0655
Encoding: 1621 1621 321
Width: 93
VWidth: 1639
GlyphClass: 2
Flags: HW
AnchorPoint: "GposMark2BaseAnchorClassErabBelow_01_02" -140 -129 mark 0
LayerCount: 2
Fore
SplineSet
-279 -474 m 1,0,1
 -338 -436 -338 -436 -309 -345 c 0,2,3
 -296 -305 -296 -305 -270 -272 c 0,4,5
 -179 -157 -179 -157 -96 -133 c 0,6,7
 -83 -129 -83 -129 -38 -130 c 0,8,9
 2 -131 2 -131 20 -138 c 0,10,11
 65 -160 65 -160 70 -216 c 0,12,13
 70 -222 70 -222 68 -235 c 0,14,15
 65 -253 65 -253 68 -261 c 0,16,17
 95 -319 95 -319 72 -333 c 0,18,19
 60 -342 60 -342 13 -324 c 0,20,21
 7 -322 7 -322 3 -321 c 0,22,23
 -83 -307 -83 -307 -140 -354 c 1,24,25
 -132 -358 -132 -358 -118 -368 c 0,26,27
 -79 -392 -79 -392 -52 -390 c 0,28,29
 -36 -389 -36 -389 -1 -382 c 0,30,31
 27 -377 27 -377 40 -376 c 1,32,33
 71 -377 71 -377 72 -379 c 0,34,35
 73 -380 73 -380 70 -395 c 0,36,37
 70 -398 70 -398 69 -399 c 0,38,39
 66 -420 66 -420 45 -471 c 1,40,41
 47 -471 47 -471 54 -468 c 0,42,43
 81 -461 81 -461 84 -467 c 0,44,45
 86 -470 86 -470 80 -487 c 2,46,-1
 79 -489 l 2,47,48
 75 -498 75 -498 66 -515 c 0,49,50
 57 -533 57 -533 53 -541 c 0,51,52
 44 -559 44 -559 41 -561 c 0,53,54
 33 -565 33 -565 16 -568 c 0,55,56
 6 -570 6 -570 2 -571 c 0,57,58
 -19 -575 -19 -575 -74 -589 c 0,59,60
 -205 -622 -205 -622 -310 -661 c 1,61,-1
 -297 -605 l 1,62,-1
 -332 -618 l 1,63,-1
 -330 -610 l 1,64,-1
 -353 -618 l 1,65,-1
 -352 -610 l 1,66,-1
 -375 -618 l 1,67,-1
 -358 -544 l 1,68,-1
 -349 -515 l 1,69,-1
 -328 -500 l 1,70,-1
 -279 -474 l 1,0,1
9 -236 m 1,71,72
 6 -223 6 -223 -5 -207 c 0,73,74
 -26 -179 -26 -179 -56 -177 c 0,75,76
 -100 -177 -100 -177 -165 -240 c 0,77,78
 -171 -246 -171 -246 -176 -251 c 1,79,80
 -170 -249 -170 -249 -156 -243 c 0,81,82
 -133 -233 -133 -233 -122 -231 c 0,83,84
 -79 -222 -79 -222 9 -236 c 1,71,72
-206 -282 m 1,85,86
 -230 -300 -230 -300 -254 -339 c 0,87,88
 -265 -355 -265 -355 -265 -361 c 0,89,90
 -266 -371 -266 -371 -256 -390 c 2,91,-1
 -255 -392 l 1,92,93
 -225 -438 -225 -438 -198 -454 c 1,94,-1
 -217 -464 l 1,95,-1
 -203 -477 l 1,96,-1
 -222 -487 l 1,97,-1
 -209 -500 l 1,98,-1
 -299 -548 l 1,99,-1
 -299 -549 l 1,100,101
 -261 -540 -261 -540 -185 -517 c 0,102,103
 -127 -500 -127 -500 -99 -492 c 0,104,105
 -89 -490 -89 -490 -69 -485 c 0,106,107
 -48 -481 -48 -481 -39 -479 c 0,108,109
 -14 -474 -14 -474 -12 -472 c 0,110,111
 -7 -467 -7 -467 10 -431 c 1,112,113
 -130 -457 -130 -457 -188 -403 c 1,114,115
 -219 -370 -219 -370 -219 -344 c 0,116,117
 -220 -316 -220 -316 -206 -282 c 1,85,86
EndSplineSet
EndChar

StartChar: uni0656
Encoding: 1622 1622 322
Width: 101
VWidth: 1639
GlyphClass: 2
Flags: HW
AnchorPoint: "GposMark2BaseAnchorClassErabBelow_01_02" -95.5 -131 mark 0
LayerCount: 2
Fore
SplineSet
-221 -828 m 1,0,1
 -224 -821 -224 -821 -216 -781 c 0,2,3
 -215 -778 -215 -778 -215 -776 c 0,4,5
 -212 -757 -212 -757 -207 -720 c 0,6,7
 -201 -683 -201 -683 -199 -664 c 0,8,9
 -193 -616 -193 -616 -166 -351 c 1,10,11
 -158 -252 -158 -252 -154 -231 c 0,12,13
 -153 -227 -153 -227 -151 -217 c 0,14,15
 -148 -201 -148 -201 -146 -194 c 1,16,17
 -142 -188 -142 -188 -120 -177 c 1,18,19
 -95 -163 -95 -163 -49 -141 c 0,20,21
 -29 -132 -29 -132 -24 -139 c 1,22,23
 -6 -131 -6 -131 -3 -139 c 1,24,25
 11 -132 11 -132 16 -136 c 0,26,27
 18 -140 18 -140 17 -159 c 1,28,29
 9 -205 9 -205 4 -230 c 1,30,31
 24 -222 24 -222 28 -225 c 0,32,33
 33 -232 33 -232 25 -264 c 1,34,35
 3 -377 l 1,36,37
 -9 -431 -9 -431 -32 -539 c 0,38,39
 -55 -647 -55 -647 -68 -700 c 0,40,41
 -88 -786 -88 -786 -93 -798 c 0,42,43
 -103 -820 -103 -820 -116 -836 c 0,44,45
 -132 -855 -132 -855 -155 -871 c 1,46,-1
 -156 -871 l 1,47,48
 -160 -861 -160 -861 -150 -811 c 0,49,50
 -149 -807 -149 -807 -149 -805 c 1,51,-1
 -150 -805 l 1,52,-1
 -177 -828 l 1,53,-1
 -179 -828 l 1,54,-1
 -180 -815 l 1,55,-1
 -198 -828 l 1,56,-1
 -200 -828 l 1,57,-1
 -201 -815 l 1,58,-1
 -220 -828 l 1,59,-1
 -221 -828 l 1,0,1
-36 -197 m 1,60,-1
 -88 -223 l 1,61,-1
 -106 -235 l 1,62,-1
 -111 -279 l 1,63,-1
 -119 -380 l 1,64,-1
 -144 -599 l 1,65,-1
 -164 -738 l 1,66,-1
 -162 -738 l 1,67,68
 -138 -699 -138 -699 -117 -590 c 0,69,70
 -114 -574 -114 -574 -111 -564 c 0,71,72
 -55 -318 -55 -318 -36 -197 c 1,60,-1
EndSplineSet
EndChar

StartChar: uni0670
Encoding: 1648 1648 326
Width: 101
VWidth: 1639
GlyphClass: 2
Flags: HW
AnchorPoint: "GposMark2BaseAnchorHamzaErabAbove_01_01" 624 1588 mark 0
AnchorPoint: "GposMark2BaseAnchorHamzaErabBelow_01_01" 624 2327 mark 0
AnchorPoint: "GposMark2BaseAnchorClassErabAbove_01_02" 624 1588 mark 0
AnchorPoint: "GposMark2MarkAnchorHamzaErabAbove_01_01" 624 1588 mark 0
AnchorPoint: "GposMark2MarkAnchorHamzaErabBelow_01_01" 624 2327 mark 0
AnchorPoint: "GposMark2MarkAnchorShaddaErabAbove_01_02" 624 1588 mark 0
AnchorPoint: "GposMark2MarkAnchorShaddaErabBelow_01_02" 624 2327 mark 0
LayerCount: 2
Fore
SplineSet
498 1630 m 1,0,1
 495 1637 495 1637 504 1678 c 0,2,3
 505 1681 505 1681 504 1683 c 0,4,5
 507 1702 507 1702 513 1738 c 0,6,7
 519 1775 519 1775 521 1794 c 0,8,9
 527 1842 527 1842 554 2107 c 1,10,11
 562 2206 562 2206 566 2227 c 0,12,13
 567 2231 567 2231 569 2242 c 0,14,15
 571 2258 571 2258 573 2265 c 1,16,17
 577 2271 577 2271 600 2281 c 1,18,19
 625 2295 625 2295 671 2317 c 0,20,21
 691 2326 691 2326 696 2319 c 1,22,23
 714 2327 714 2327 717 2319 c 1,24,25
 731 2326 731 2326 736 2322 c 0,26,27
 738 2318 738 2318 737 2299 c 1,28,29
 729 2253 729 2253 724 2229 c 1,30,31
 744 2237 744 2237 748 2234 c 0,32,33
 753 2227 753 2227 745 2194 c 0,34,35
 743 2181 743 2181 738 2157 c 0,36,37
 729 2106 729 2106 723 2081 c 0,38,39
 711 2027 711 2027 687 1920 c 0,40,41
 664 1812 664 1812 652 1758 c 0,42,43
 632 1672 632 1672 627 1660 c 0,44,45
 617 1638 617 1638 603 1622 c 0,46,47
 587 1603 587 1603 565 1588 c 1,48,-1
 563 1588 l 1,49,50
 559 1598 559 1598 570 1647 c 0,51,52
 571 1650 571 1650 571 1653 c 1,53,-1
 569 1653 l 1,54,-1
 543 1630 l 1,55,-1
 541 1630 l 1,56,-1
 540 1643 l 1,57,-1
 521 1630 l 1,58,-1
 520 1630 l 1,59,-1
 518 1643 l 1,60,-1
 500 1630 l 1,61,-1
 498 1630 l 1,0,1
684 2262 m 1,62,-1
 632 2235 l 1,63,-1
 614 2224 l 1,64,-1
 609 2180 l 1,65,-1
 600 2078 l 1,66,-1
 576 1860 l 1,67,-1
 556 1720 l 1,68,-1
 557 1720 l 1,69,70
 581 1759 581 1759 603 1868 c 0,71,72
 606 1884 606 1884 608 1894 c 0,73,74
 665 2141 665 2141 684 2262 c 1,62,-1
EndSplineSet
EndChar

StartChar: uni0674
Encoding: 1652 1652 327
Width: 107
GlyphClass: 2
Flags: HW
AnchorPoint: "GposMark2BaseAnchorClassErabAbove_01_02" 590 1014 mark 0
AnchorPoint: "GposMark2MarkAnchorHamzaErabAbove_01_01" 590 1579 basemark 0
AnchorPoint: "GposMark2MarkAnchorHamzaErabBelow_01_01" 590 864 basemark 0
LayerCount: 2
Fore
SplineSet
764 1178 m 2,0,1
 755 1160 755 1160 745 1145 c 128,-1,2
 735 1130 735 1130 731 1129 c 0,3,4
 684 1118 684 1118 644.5 1109 c 128,-1,5
 605 1100 605 1100 587 1095 c 0,6,7
 541 1082 541 1082 496.5 1062 c 128,-1,8
 452 1042 452 1042 414 1018 c 1,9,10
 409 1014 409 1014 405 1014 c 0,11,12
 402 1014 402 1014 398.5 1018 c 128,-1,13
 395 1022 395 1022 396 1025 c 256,14,15
 397 1028 397 1028 402 1032 c 1,16,-1
 402 1031 l 1,17,18
 417 1051 417 1051 447 1076 c 128,-1,19
 477 1101 477 1101 522 1136 c 1,20,21
 448 1171 448 1171 463 1233 c 0,22,23
 474 1282 474 1282 559 1355 c 1,24,25
 648 1429 648 1429 708 1429 c 0,26,27
 718 1429 718 1429 729 1425.5 c 128,-1,28
 740 1422 740 1422 747.5 1415.5 c 128,-1,29
 755 1409 755 1409 759 1400.5 c 128,-1,30
 763 1392 763 1392 761 1382 c 0,31,32
 758 1368 758 1368 751.5 1353.5 c 128,-1,33
 745 1339 745 1339 736.5 1327 c 128,-1,34
 728 1315 728 1315 719 1307.5 c 128,-1,35
 710 1300 710 1300 703 1300 c 0,36,37
 699 1300 699 1300 694 1307.5 c 128,-1,38
 689 1315 689 1315 681.5 1323.5 c 128,-1,39
 674 1332 674 1332 664 1339.5 c 128,-1,40
 654 1347 654 1347 641 1347 c 256,41,42
 628 1347 628 1347 611.5 1339.5 c 128,-1,43
 595 1332 595 1332 579.5 1321.5 c 128,-1,44
 564 1311 564 1311 553 1299 c 128,-1,45
 542 1287 542 1287 540 1277 c 0,46,47
 536 1259 536 1259 543.5 1244 c 128,-1,48
 551 1229 551 1229 565.5 1218 c 128,-1,49
 580 1207 580 1207 601 1201 c 128,-1,50
 622 1195 622 1195 644 1195 c 0,51,52
 647 1195 647 1195 668 1200 c 128,-1,53
 689 1205 689 1205 713.5 1210.5 c 128,-1,54
 738 1216 738 1216 759.5 1221 c 128,-1,55
 781 1226 781 1226 785 1226 c 1,56,-1
 764 1178 l 2,0,1
EndSplineSet
EndChar

StartChar: afii57388
Encoding: 1548 1548 329
Width: 657
VWidth: 1639
GlyphClass: 2
Flags: W
LayerCount: 2
Fore
SplineSet
366 277 m 1,0,1
 435 276 435 276 457 254 c 0,2,3
 477 234 477 234 478 192 c 1,4,5
 476 161 476 161 475 162 c 1,6,7
 476 154 476 154 482 141 c 0,8,9
 488 125 488 125 489 116 c 0,10,11
 492 28 492 28 421 -31 c 0,12,13
 399 -49 399 -49 375 -59 c 0,14,15
 300 -88 300 -88 244 -54 c 0,16,17
 237 -50 237 -50 226 -39 c 0,18,19
 218 -31 218 -31 215 -28 c 0,20,21
 213 -26 213 -26 187 -16 c 0,22,23
 184 -15 184 -15 183 -15 c 0,24,25
 160 0 160 0 143 26 c 1,26,27
 114 85 114 85 140 195 c 0,28,29
 172 331 172 331 230 403 c 0,30,31
 305 498 305 498 389 526 c 0,32,33
 397 528 397 528 403 530 c 0,34,35
 436 538 436 538 483 535 c 0,36,37
 504 533 504 533 502 521 c 1,38,39
 499 514 499 514 493 508 c 1,40,41
 503 499 503 499 487 485 c 1,42,43
 502 476 502 476 462 446 c 0,44,45
 457 442 457 442 456 441 c 1,46,47
 488 447 488 447 502 444 c 0,48,49
 514 442 514 442 515 435 c 1,50,51
 514 424 514 424 471 394 c 1,52,53
 416 351 416 351 366 277 c 1,0,1
402 471 m 1,54,55
 293 422 293 422 225 300 c 0,56,57
 199 253 199 253 187 207 c 0,58,59
 162 113 162 113 210 55 c 0,60,61
 229 34 229 34 253 25 c 0,62,63
 302 7 302 7 367 56 c 0,64,65
 409 90 409 90 422 130 c 1,66,67
 429 157 429 157 417 189 c 1,68,69
 398 229 398 229 355 230 c 0,70,71
 351 230 351 230 338 226 c 0,72,73
 309 220 309 220 305 225 c 1,74,75
 286 222 286 222 284 225 c 1,76,-1
 261 220 l 1,77,78
 288 335 288 335 326 389 c 0,79,80
 334 400 334 400 391 459 c 0,81,82
 398 466 398 466 402 471 c 1,54,55
EndSplineSet
EndChar

StartChar: afii57403
Encoding: 1563 1563 334
Width: 657
VWidth: 1639
GlyphClass: 2
Flags: W
LayerCount: 2
Fore
SplineSet
454 659 m 1,0,1
 526 658 526 658 549 633 c 0,2,3
 563 617 563 617 563 571 c 0,4,5
 563 555 563 555 564 546 c 0,6,7
 565 538 565 538 570 523 c 0,8,9
 577 504 577 504 578 494 c 0,10,11
 577 400 577 400 496 345 c 0,12,13
 476 332 476 332 454 323 c 0,14,15
 385 297 385 297 334 328 c 0,16,17
 327 333 327 333 316 344 c 0,18,19
 307 353 307 353 303 356 c 0,20,21
 297 360 297 360 274 367 c 1,22,23
 250 380 250 380 231 412 c 1,24,25
 203 467 203 467 227 572 c 0,26,27
 261 716 261 716 327 795 c 0,28,29
 399 882 399 882 481 909 c 0,30,31
 489 911 489 911 495 913 c 0,32,33
 529 919 529 919 572 917 c 1,34,35
 600 911 600 911 579 891 c 1,36,37
 593 886 593 886 574 868 c 1,38,39
 593 862 593 862 548 827 c 0,40,41
 545 825 545 825 544 823 c 1,42,43
 576 829 576 829 591 827 c 0,44,45
 603 825 603 825 604 818 c 0,46,47
 604 816 604 816 602 813 c 128,-1,48
 600 810 600 810 596 806 c 128,-1,49
 592 802 592 802 589.5 799.5 c 128,-1,50
 587 797 587 797 581.5 793 c 128,-1,51
 576 789 576 789 574 786.5 c 128,-1,52
 572 784 572 784 566 781 c 2,53,-1
 561 777 l 1,54,55
 500 727 500 727 454 659 c 1,0,1
490 853 m 1,56,57
 397 814 397 814 326 706 c 0,58,59
 276 628 276 628 270 559 c 0,60,61
 261 468 261 468 309 425 c 0,62,63
 332 406 332 406 362 403 c 0,64,65
 419 401 419 401 473 458 c 0,66,67
 533 521 533 521 505 574 c 0,68,69
 501 582 501 582 494 589 c 0,70,71
 481 602 481 602 467 607 c 0,72,73
 448 613 448 613 392 602 c 1,74,75
 391 609 391 609 371 602 c 1,76,77
 370 609 370 609 350 602 c 1,78,79
 378 721 378 721 417 774 c 0,80,81
 423 782 423 782 479 841 c 0,82,83
 486 848 486 848 490 853 c 1,56,57
288 244 m 0,84,85
 400 258 400 258 424 185 c 1,86,87
 427 161 427 161 427 149 c 0,88,89
 423 129 423 129 423 126 c 0,90,91
 425 120 425 120 429 109 c 0,92,93
 438 88 438 88 438 74 c 0,94,95
 438 8 438 8 379 -38 c 0,96,97
 353 -57 353 -57 326 -62 c 0,98,99
 284 -69 284 -69 255 -46 c 0,100,101
 251 -43 251 -43 245 -34 c 0,102,103
 238 -25 238 -25 235 -21 c 0,104,105
 230 -18 230 -18 217 -16 c 0,106,107
 208 -14 208 -14 204 -13 c 0,108,109
 170 7 170 7 162 48 c 1,110,111
 161 69 161 69 170 108 c 0,112,113
 181 153 181 153 184 161 c 0,114,115
 213 222 213 222 275 241 c 0,116,117
 282 243 282 243 288 244 c 0,84,85
314 195 m 0,118,119
 279 195 279 195 238 151 c 0,120,121
 220 129 220 129 215 112 c 0,122,123
 206 74 206 74 242 43 c 0,124,125
 259 29 259 29 275 28 c 0,126,127
 310 28 310 28 350 72 c 0,128,129
 368 94 368 94 374 112 c 0,130,131
 381 150 381 150 347 181 c 0,132,133
 330 194 330 194 314 195 c 0,118,119
EndSplineSet
EndChar

StartChar: afii57407
Encoding: 1567 1567 335
Width: 991
VWidth: 1639
GlyphClass: 2
Flags: W
LayerCount: 2
Fore
SplineSet
490 310 m 1,0,1
 504 371 504 371 514 400 c 0,2,3
 535 456 535 456 536 469 c 0,4,5
 536 505 536 505 516 546 c 0,6,7
 496 588 496 588 420 684 c 0,8,9
 381 733 381 733 362 766 c 0,10,11
 319 850 319 850 324 950 c 0,12,13
 333 1133 333 1133 445 1283 c 0,14,15
 524 1389 524 1389 632 1437 c 0,16,17
 700 1466 700 1466 812 1466 c 0,18,19
 895 1465 895 1465 955 1428 c 1,20,21
 996 1399 996 1399 1021 1358 c 0,22,23
 1040 1325 1040 1325 1048 1239 c 0,24,25
 1048 1236 1048 1236 1049 1235 c 0,26,27
 1050 1225 1050 1225 1054 1206 c 0,28,29
 1060 1180 1060 1180 1060 1166 c 0,30,31
 1062 1053 1062 1053 999 965 c 0,32,33
 968 924 968 924 931 902 c 0,34,35
 869 868 869 868 818 891 c 0,36,37
 814 893 814 893 811 894 c 0,38,39
 805 898 805 898 795 910 c 0,40,41
 787 920 787 920 783 923 c 0,42,43
 781 926 781 926 756 933 c 0,44,45
 752 934 752 934 751 935 c 0,46,47
 723 951 723 951 712 986 c 0,48,49
 707 1009 707 1009 717 1055 c 0,50,51
 731 1113 731 1113 747 1138 c 1,52,53
 792 1203 792 1203 879 1207 c 1,54,55
 928 1207 928 1207 932 1205 c 1,56,57
 914 1262 914 1262 905 1273 c 0,58,59
 899 1280 899 1280 894 1284 c 0,60,61
 878 1295 878 1295 832 1296 c 0,62,63
 740 1296 740 1296 662 1205 c 0,64,65
 615 1150 615 1150 598 1087 c 0,66,67
 585 1033 585 1033 611 950 c 0,68,69
 618 926 618 926 632 878 c 0,70,71
 659 788 659 788 669 741 c 0,72,73
 671 727 671 727 675 699 c 0,74,75
 678 670 678 670 680 656 c 0,76,77
 696 541 696 541 688 492 c 0,78,79
 680 444 680 444 626 305 c 0,80,81
 618 283 618 283 612 267 c 1,82,-1
 555 267 l 1,83,-1
 568 310 l 1,84,-1
 490 310 l 1,0,1
928 1137 m 1,85,86
 891 1161 891 1161 876 1159 c 0,87,88
 831 1156 831 1156 789 1106 c 0,89,90
 762 1071 762 1071 763 1041 c 1,91,92
 767 998 767 998 803 980 c 0,93,94
 815 974 815 974 827 974 c 0,95,96
 877 978 877 978 924 1030 c 0,97,98
 1011 1125 1011 1125 992 1241 c 0,99,100
 989 1259 989 1259 983 1276 c 0,101,102
 965 1324 965 1324 932 1356 c 0,103,104
 866 1423 866 1423 780 1419 c 1,105,106
 643 1414 643 1414 518 1285 c 0,107,108
 460 1224 460 1224 423 1153 c 1,109,110
 387 1080 387 1080 381 1036 c 0,111,112
 365 911 365 911 416 813 c 0,113,114
 428 791 428 791 492 705 c 0,115,116
 499 696 499 696 503 689 c 0,117,118
 559 613 559 613 566 600 c 0,119,120
 578 577 578 577 584 556 c 0,121,122
 595 509 595 509 564 411 c 0,123,124
 553 375 553 375 548 356 c 1,125,-1
 557 356 l 1,126,127
 564 378 564 378 584 424 c 0,128,129
 615 498 615 498 623 533 c 0,130,131
 634 589 634 589 616 694 c 0,132,133
 610 725 610 725 562 879 c 0,134,135
 509 1050 509 1050 540 1165 c 0,136,137
 547 1191 547 1191 558 1217 c 0,138,139
 595 1303 595 1303 677 1355 c 0,140,141
 692 1364 692 1364 704 1369 c 0,142,143
 741 1384 741 1384 796 1384 c 0,144,145
 898 1383 898 1383 942 1337 c 0,146,147
 991 1283 991 1283 987 1210 c 0,148,149
 985 1195 985 1195 971 1137 c 1,150,-1
 952 1148 l 1,151,-1
 950 1137 l 1,152,-1
 931 1148 l 1,153,-1
 928 1137 l 1,85,86
470 233 m 0,154,155
 584 248 584 248 605 177 c 0,156,157
 606 171 606 171 602 132 c 0,158,159
 602 124 602 124 602 120 c 0,160,161
 603 111 603 111 610 95 c 0,162,163
 618 75 618 75 618 64 c 0,164,165
 618 0 618 0 560 -43 c 0,166,167
 534 -61 534 -61 507 -66 c 1,168,169
 466 -70 466 -70 440 -48 c 0,170,171
 437 -45 437 -45 431 -37 c 0,172,173
 424 -28 424 -28 421 -25 c 0,174,175
 416 -22 416 -22 404 -19 c 0,176,177
 395 -17 395 -17 392 -16 c 0,178,179
 358 2 358 2 352 39 c 0,180,181
 349 59 349 59 357 93 c 0,182,183
 370 150 370 150 372 156 c 0,184,185
 400 212 400 212 456 230 c 0,186,187
 464 232 464 232 470 233 c 0,154,155
495 185 m 1,188,189
 459 181 459 181 423 140 c 0,190,191
 407 121 407 121 403 105 c 0,192,193
 395 70 395 70 428 39 c 0,194,195
 444 24 444 24 460 25 c 0,196,197
 496 27 496 27 533 70 c 0,198,199
 549 89 549 89 553 105 c 0,200,201
 561 141 561 141 529 171 c 0,202,203
 511 185 511 185 495 185 c 1,188,189
EndSplineSet
EndChar

StartChar: afii57409
Encoding: 1569 1569 336
AltUni2: 00fe80.ffffffff.0
Width: 754
VWidth: 1639
GlyphClass: 2
Flags: HW
AnchorPoint: "GposMark2BaseAnchorHamzaErabAbove_01_01" 334.5 858 basechar 0
AnchorPoint: "GposMark2BaseAnchorHamzaErabBelow_01_01" 334.5 -234 basechar 0
LayerCount: 2
Fore
SplineSet
146 197 m 1,0,1
 94 227 94 227 83 280 c 0,2,3
 70 348 70 348 126 443 c 0,4,5
 131 450 131 450 134 456 c 0,6,7
 174 515 174 515 259 585 c 1,8,9
 352 659 352 659 416 679 c 0,10,11
 513 708 513 708 593 671 c 0,12,13
 631 651 631 651 641 625 c 0,14,15
 645 615 645 615 639 576 c 0,16,17
 638 569 638 569 638 564 c 0,18,19
 638 561 638 561 652 539 c 0,20,21
 654 536 654 536 654 535 c 0,22,23
 664 502 664 502 641 458 c 0,24,25
 618 416 618 416 565 425 c 0,26,27
 550 428 550 428 522 437 c 0,28,29
 450 459 450 459 407 440 c 0,30,31
 375 425 375 425 344 399 c 0,32,33
 328 384 328 384 327 377 c 0,34,35
 326 372 326 372 335 364 c 2,36,-1
 337 362 l 1,37,38
 353 342 353 342 376 333 c 1,39,40
 424 308 424 308 528 342 c 0,41,42
 599 365 599 365 624 369 c 1,43,-1
 622 362 l 1,44,-1
 645 369 l 1,45,-1
 643 362 l 1,46,-1
 666 369 l 1,47,-1
 656 346 l 1,48,49
 662 344 662 344 653 327 c 0,50,51
 652 326 652 326 651 325 c 2,52,-1
 651 323 l 1,53,54
 655 320 655 320 649 308 c 0,55,56
 646 301 646 301 640 288 c 0,57,58
 634 274 634 274 631 267 c 1,59,-1
 678 280 l 1,60,61
 674 267 674 267 631 177 c 0,62,63
 627 169 627 169 625 162 c 0,64,65
 623 159 623 159 619 149 c 0,66,67
 608 124 608 124 602 118 c 0,68,69
 598 114 598 114 557 106 c 0,70,71
 554 105 554 105 553 105 c 0,72,73
 528 100 528 100 439 72 c 0,74,75
 247 11 247 11 55 -84 c 1,76,-1
 70 -21 l 1,77,-1
 33 -41 l 1,78,-1
 36 -28 l 1,79,-1
 12 -41 l 1,80,-1
 15 -28 l 1,81,-1
 -9 -41 l 1,82,-1
 15 66 l 1,83,-1
 27 110 l 1,84,-1
 59 138 l 1,85,-1
 146 197 l 1,0,1
595 305 m 1,86,87
 459 272 459 272 428 270 c 0,88,89
 358 265 358 265 313 292 c 1,90,91
 258 329 258 329 246 374 c 0,92,93
 246 380 246 380 250 408 c 1,94,95
 262 464 262 464 299 495 c 0,96,97
 377 557 377 557 472 536 c 0,98,99
 484 534 484 534 508 527 c 0,100,101
 524 522 524 522 532 520 c 0,102,103
 556 515 556 515 566 522 c 0,104,105
 617 555 617 555 570 604 c 0,106,107
 562 612 562 612 553 618 c 0,108,109
 512 643 512 643 482 641 c 0,110,111
 451 638 451 638 401 613 c 0,112,113
 314 569 314 569 222 477 c 1,114,115
 143 393 143 393 135 348 c 1,116,117
 128 291 128 291 201 242 c 0,118,119
 206 239 206 239 216 232 c 0,120,121
 228 224 228 224 233 221 c 1,122,-1
 210 210 l 1,123,-1
 228 200 l 1,124,-1
 227 198 l 1,125,-1
 205 187 l 1,126,-1
 222 177 l 1,127,-1
 222 175 l 1,128,-1
 180 153 l 1,129,-1
 99 97 l 1,130,-1
 59 64 l 1,131,-1
 50 31 l 1,132,133
 62 34 62 34 147 73 c 0,134,135
 152 75 152 75 155 77 c 0,136,137
 269 124 269 124 385 161 c 0,138,139
 451 182 451 182 496 194 c 0,140,141
 500 195 500 195 512 196 c 0,142,143
 538 200 538 200 546 205 c 0,144,145
 552 210 552 210 562 233 c 0,146,147
 568 245 568 245 578 269 c 0,148,149
 589 293 589 293 595 305 c 1,86,87
EndSplineSet
EndChar

StartChar: afii57410
Encoding: 1570 1570 337
AltUni2: 00fe81.ffffffff.0
Width: 302
VWidth: 1639
GlyphClass: 2
Flags: W
LayerCount: 2
Fore
SplineSet
281 1543 m 1,0,1
 266 1535 266 1535 231 1537 c 0,2,3
 209 1537 209 1537 207 1544 c 0,4,5
 206 1547 206 1547 206 1548 c 0,6,7
 206 1556 206 1556 211 1576 c 0,8,9
 222 1628 222 1628 267 1701 c 1,10,11
 296 1744 296 1744 316 1755 c 0,12,13
 325 1759 325 1759 361 1758 c 0,14,15
 365 1758 365 1758 475 1742 c 0,16,17
 483 1741 483 1741 490 1740 c 0,18,19
 554 1732 554 1732 650 1747 c 0,20,21
 660 1749 660 1749 680 1754 c 0,22,23
 710 1762 710 1762 724 1765 c 0,24,25
 728 1765 728 1765 767 1765 c 0,26,27
 780 1764 780 1764 782 1761 c 1,28,29
 781 1756 781 1756 781 1754.5 c 128,-1,30
 781 1753 781 1753 775 1747 c 2,31,-1
 769 1742 l 1,32,33
 782 1739 782 1739 764 1719 c 1,34,35
 776 1715 776 1715 763 1699 c 0,36,37
 753 1690 753 1690 730 1674 c 0,38,39
 717 1665 717 1665 711 1660 c 1,40,-1
 774 1674 l 2,41,42
 791 1678 791 1678 793 1673 c 1,43,44
 794 1661 794 1661 758 1635 c 0,45,46
 692 1589 692 1589 627 1568 c 0,47,48
 556 1546 556 1546 469 1551 c 0,49,50
 457 1552 457 1552 433 1556 c 0,51,52
 395 1562 395 1562 377 1561 c 0,53,54
 359 1558 359 1558 326 1523 c 0,55,56
 305 1501 305 1501 293 1494 c 0,57,58
 266 1482 266 1482 272 1517 c 0,59,60
 275 1532 275 1532 281 1543 c 1,0,1
665 1699 m 1,61,62
 647 1696 647 1696 583 1692 c 0,63,64
 501 1686 501 1686 448 1692 c 0,65,66
 425 1695 425 1695 375 1706 c 0,67,68
 350 1710 350 1710 345 1707 c 0,69,70
 320 1693 320 1693 277 1619 c 1,71,72
 282 1623 282 1623 293 1631 c 0,73,74
 310 1645 310 1645 318 1648 c 0,75,76
 325 1650 325 1650 355 1650 c 0,77,78
 374 1650 374 1650 410 1645 c 0,79,80
 447 1640 447 1640 465 1640 c 0,81,82
 562 1641 562 1641 665 1697 c 1,83,-1
 665 1699 l 1,61,62
277 1617 m 1,84,-1
 275 1615 l 1,85,-1
 277 1617 l 1,84,-1
145 -36 m 1,86,87
 138 -51 138 -51 129 -52 c 1,88,89
 126 -50 126 -50 124 -48 c 0,90,91
 122 -40 122 -40 128 -18 c 1,92,93
 130 -1 130 -1 146 67 c 0,94,95
 166 154 166 154 192 317 c 1,96,97
 287 885 287 885 350 1333 c 0,98,99
 353 1358 353 1358 362 1383 c 1,100,-1
 365 1399 l 1,101,102
 369 1405 369 1405 392 1422 c 0,103,104
 395 1424 395 1424 396 1425 c 0,105,106
 408 1436 408 1436 433 1456 c 0,107,108
 458 1477 458 1477 469 1486 c 0,109,110
 478 1493 478 1493 497 1508 c 0,111,112
 516 1523 516 1523 524 1530 c 1,113,114
 543 1541 543 1541 543 1528 c 1,115,116
 564 1540 564 1540 565 1528 c 1,117,118
 583 1538 583 1538 585 1538 c 0,119,120
 586 1536 586 1536 587.5 1534.5 c 128,-1,121
 589 1533 589 1533 588 1529 c 128,-1,122
 587 1525 587 1525 586.5 1522.5 c 128,-1,123
 586 1520 586 1520 585 1516 c 2,124,-1
 584 1512 l 2,125,126
 583 1502 583 1502 577 1480 c 0,127,128
 570 1449 570 1449 570 1435 c 1,129,130
 590 1453 590 1453 597 1450 c 1,131,132
 600 1446 600 1446 596 1428 c 0,133,134
 594 1417 594 1417 591 1397 c 0,135,136
 588 1376 588 1376 585 1366 c 0,137,138
 574 1319 574 1319 557 1227 c 0,139,140
 539 1134 539 1134 528 1087 c 0,141,142
 494 939 494 939 429 645 c 0,143,144
 364 349 364 349 330 202 c 0,145,146
 293 46 293 46 248 -28 c 1,147,148
 217 -72 217 -72 214 -75 c 0,149,150
 202 -90 202 -90 198 -93 c 1,151,152
 188 -94 188 -94 190 -79 c 1,153,154
 191 -59 191 -59 200 -23 c 1,155,-1
 199 -23 l 1,156,157
 184 -49 184 -49 172 -50 c 0,158,159
 167 -51 167 -51 168 -40 c 0,160,161
 168 -38 168 -38 168 -36 c 1,162,-1
 167 -36 l 1,163,164
 158 -53 158 -53 150 -49 c 1,165,166
 146 -44 146 -44 147 -36 c 1,167,-1
 145 -36 l 1,86,87
531 1461 m 1,168,169
 518 1454 518 1454 490 1430 c 0,170,171
 480 1422 480 1422 462 1407 c 0,172,173
 443 1392 443 1392 434 1384 c 0,174,175
 431 1382 431 1382 424 1377 c 0,176,177
 407 1365 407 1365 403 1356 c 0,178,179
 398 1346 398 1346 392 1297 c 0,180,181
 389 1273 389 1273 381 1227 c 0,182,183
 373 1180 373 1180 370 1156 c 0,184,185
 359 1061 359 1061 327 869 c 0,186,187
 313 787 313 787 288 623 c 0,188,189
 262 458 262 458 248 377 c 0,190,191
 224 232 224 232 209 161 c 0,192,193
 206 149 206 149 201 124 c 0,194,195
 196 99 196 99 194 87 c 0,196,197
 186 52 186 52 186 49 c 1,198,199
 193 63 193 63 208 90 c 0,200,201
 231 132 231 132 240 154 c 0,202,203
 259 210 259 210 287 348 c 0,204,205
 285 348 285 348 310 451 c 2,206,-1
 335 554 l 1,207,208
 426 946 426 946 466 1141 c 2,209,-1
 531 1461 l 1,168,169
EndSplineSet
AlternateSubs2: "gsub_alternate_dfl_aalt_arab_FAR_Lookup_01_Subtable_01" uniFE82 afii57410
Substitution2: "gsub_single_rtl_fina_arab_FAR_Lookup_01_Subtable_01" uniFE82
EndChar

StartChar: uniFE83
Encoding: 1571 1571 339
AltUni2: 00fe83.ffffffff.0
Width: 496
VWidth: 1639
GlyphClass: 2
Flags: W
LayerCount: 2
Fore
SplineSet
192 -38 m 1,0,1
 177 -59 177 -59 173 -48 c 0,2,3
 172 -45 172 -45 171 -43 c 0,4,5
 172 -25 172 -25 180 8 c 0,6,7
 189 48 189 48 226 238 c 0,8,9
 293 595 293 595 365 1105 c 0,10,11
 370 1139 370 1139 380 1207 c 0,12,13
 390 1276 390 1276 395 1309 c 0,14,15
 397 1319 397 1319 400 1337 c 0,16,17
 404 1356 404 1356 405 1366 c 2,18,-1
 413 1399 l 1,19,20
 417 1404 417 1404 443 1425 c 0,21,22
 482 1458 482 1458 520 1487 c 0,23,24
 526 1492 526 1492 538 1503 c 0,25,26
 573 1533 573 1533 590 1540 c 1,27,-1
 591 1528 l 1,28,-1
 612 1540 l 1,29,-1
 612 1528 l 1,30,-1
 633 1540 l 1,31,32
 637 1523 637 1523 622 1454 c 0,33,34
 619 1442 619 1442 618 1435 c 1,35,-1
 645 1451 l 1,36,37
 649 1435 649 1435 633 1369 c 0,38,39
 632 1362 632 1362 631 1358 c 0,40,41
 623 1313 623 1313 603 1224 c 0,42,43
 588 1157 588 1157 583 1123 c 0,44,45
 578 1093 578 1093 501 751 c 0,46,47
 499 741 499 741 497 733 c 0,48,49
 427 418 427 418 391 261 c 0,50,51
 354 100 354 100 335 53 c 0,52,53
 320 16 320 16 303 -15 c 1,54,55
 275 -59 275 -59 263 -74 c 0,56,57
 251 -90 251 -90 245 -93 c 1,58,59
 236 -92 236 -92 238 -79 c 0,60,61
 239 -59 239 -59 248 -23 c 1,62,-1
 246 -23 l 1,63,64
 233 -49 233 -49 222 -49 c 1,65,66
 216 -46 216 -46 214 -38 c 1,67,68
 196 -58 196 -58 192 -38 c 1,0,1
579 1463 m 1,69,70
 563 1452 563 1452 485 1387 c 0,71,72
 482 1385 482 1385 475 1380 c 0,73,74
 455 1364 455 1364 450 1356 c 0,75,76
 445 1348 445 1348 444 1322 c 1,77,-1
 435 1263 l 2,78,79
 402 1043 402 1043 401 1038 c 0,80,81
 367 803 367 803 318 512 c 1,82,83
 268 203 268 203 232 49 c 1,84,-1
 234 49 l 1,85,86
 277 127 277 127 290 162 c 1,87,88
 301 194 301 194 325 297 c 0,89,90
 334 337 334 337 351 417 c 0,91,92
 369 497 369 497 378 536 c 0,93,94
 472 945 472 945 515 1150 c 0,95,96
 522 1185 522 1185 536 1255 c 0,97,98
 563 1393 563 1393 579 1463 c 1,69,70
484 1809 m 1,99,100
 425 1847 425 1847 453 1938 c 0,101,102
 466 1978 466 1978 492 2011 c 0,103,104
 583 2126 583 2126 666 2150 c 0,105,106
 679 2154 679 2154 725 2153 c 0,107,108
 765 2152 765 2152 783 2145 c 0,109,110
 828 2123 828 2123 833 2066 c 0,111,112
 833 2060 833 2060 831 2048 c 0,113,114
 828 2030 828 2030 830 2022 c 0,115,116
 857 1964 857 1964 835 1950 c 0,117,118
 823 1941 823 1941 776 1958 c 0,119,120
 770 1960 770 1960 766 1961 c 0,121,122
 680 1975 680 1975 623 1929 c 1,123,124
 631 1925 631 1925 645 1915 c 0,125,126
 684 1891 684 1891 711 1893 c 0,127,128
 727 1894 727 1894 762 1900 c 0,129,130
 790 1905 790 1905 802 1907 c 1,131,132
 833 1906 833 1906 835 1904 c 0,133,134
 836 1903 836 1903 833 1888 c 0,135,136
 833 1885 833 1885 832 1884 c 0,137,138
 829 1863 829 1863 808 1812 c 1,139,140
 810 1812 810 1812 817 1814 c 0,141,142
 844 1821 844 1821 847 1815 c 0,143,144
 850 1811 850 1811 843 1796 c 0,145,146
 842 1795 842 1795 842 1794 c 0,147,148
 838 1785 838 1785 829 1768 c 0,149,150
 820 1750 820 1750 816 1742 c 0,151,152
 807 1724 807 1724 804 1722 c 0,153,154
 796 1718 796 1718 778 1715 c 0,155,156
 768 1713 768 1713 765 1712 c 0,157,158
 744 1708 744 1708 689 1694 c 0,159,160
 558 1661 558 1661 453 1622 c 1,161,-1
 466 1678 l 1,162,-1
 431 1665 l 1,163,-1
 433 1673 l 1,164,-1
 409 1665 l 1,165,-1
 411 1673 l 1,166,-1
 388 1665 l 1,167,-1
 405 1738 l 1,168,-1
 413 1768 l 1,169,-1
 435 1783 l 1,170,-1
 484 1809 l 1,99,100
772 2047 m 1,171,172
 769 2060 769 2060 758 2076 c 0,173,174
 737 2104 737 2104 706 2106 c 0,175,176
 662 2106 662 2106 598 2043 c 0,177,178
 592 2037 592 2037 587 2032 c 1,179,180
 593 2034 593 2034 606 2040 c 0,181,182
 629 2050 629 2050 640 2052 c 0,183,184
 684 2061 684 2061 772 2047 c 1,171,172
557 2001 m 1,185,186
 533 1983 533 1983 509 1943 c 0,187,188
 498 1927 498 1927 498 1922 c 0,189,190
 498 1910 498 1910 507 1891 c 1,191,192
 537 1845 537 1845 565 1829 c 1,193,-1
 546 1819 l 1,194,-1
 559 1806 l 1,195,-1
 540 1796 l 1,196,-1
 554 1783 l 1,197,-1
 464 1735 l 1,198,-1
 463 1733 l 1,199,200
 501 1742 501 1742 578 1766 c 0,201,202
 636 1783 636 1783 664 1791 c 0,203,204
 674 1793 674 1793 694 1797 c 0,205,206
 715 1801 715 1801 724 1804 c 0,207,208
 749 1809 749 1809 751 1811 c 0,209,210
 756 1816 756 1816 773 1852 c 1,211,212
 633 1826 633 1826 575 1879 c 1,213,214
 544 1912 544 1912 544 1938 c 0,215,216
 543 1967 543 1967 557 2001 c 1,185,186
EndSplineSet
AlternateSubs2: "gsub_alternate_dfl_aalt_arab_FAR_Lookup_01_Subtable_01" uniFE84 uniFE83
Substitution2: "gsub_single_rtl_fina_arab_FAR_Lookup_01_Subtable_01" uniFE84
EndChar

StartChar: uniFE84
Encoding: 65156 65156 340
Width: 417
VWidth: 1639
GlyphClass: 2
Flags: W
LayerCount: 2
Fore
SplineSet
429 -66 m 1,0,1
 322 -66 322 -66 287 -52 c 0,2,3
 283 -50 283 -50 280 -49 c 0,4,5
 276 -47 276 -47 233 -17 c 0,6,7
 227 -13 227 -13 222 -10 c 0,8,9
 216 -6 216 -6 203 0 c 0,10,11
 189 6 189 6 184 10 c 0,12,13
 141 43 141 43 121 107 c 1,14,15
 104 175 104 175 119 290 c 0,16,17
 131 375 131 375 182 581 c 0,18,19
 264 921 264 921 321 1330 c 0,20,21
 329 1382 329 1382 336 1394 c 0,22,23
 340 1400 340 1400 361 1417 c 0,24,25
 371 1426 371 1426 391 1444 c 0,26,27
 412 1463 412 1463 421 1471 c 0,28,29
 424 1474 424 1474 432 1482 c 0,30,31
 468 1516 468 1516 480 1504 c 1,32,33
 493 1513 493 1513 500 1504 c 1,34,-1
 501 1504 l 1,35,36
 519 1517 519 1517 521 1497 c 1,37,38
 521 1453 521 1453 513 1417 c 1,39,40
 537 1430 537 1430 533 1384 c 0,41,42
 532 1378 532 1378 528 1346 c 0,43,44
 509 1192 509 1192 486 1087 c 0,45,46
 471 1021 471 1021 442 889 c 0,47,48
 383 624 383 624 353 492 c 2,49,-1
 317 333 l 2,50,51
 305 279 305 279 306 271 c 0,52,53
 307 267 307 267 307 266 c 0,54,55
 328 206 328 206 450 206 c 0,56,57
 457 206 457 206 470 206 c 0,58,59
 485 206 485 206 492 207 c 1,60,-1
 481 161 l 1,61,62
 469 161 469 161 442 160 c 0,63,64
 320 156 320 156 280 187 c 0,65,66
 261 202 261 202 250 223 c 0,67,68
 228 273 228 273 253 382 c 2,69,-1
 299 579 l 2,70,71
 399 1012 399 1012 428 1168 c 0,72,73
 440 1233 440 1233 458 1346 c 0,74,75
 460 1359 460 1359 461 1384 c 0,76,77
 464 1421 464 1421 468 1438 c 1,78,79
 456 1427 456 1427 432 1406 c 0,80,81
 407 1384 407 1384 397 1374 c 0,82,83
 394 1371 394 1371 388 1366 c 0,84,85
 376 1355 376 1355 373 1350 c 0,86,87
 373 1348 373 1348 371 1345 c 128,-1,88
 369 1342 369 1342 368.5 1339.5 c 128,-1,89
 368 1337 368 1337 368 1332.5 c 128,-1,90
 368 1328 368 1328 367.5 1326.5 c 128,-1,91
 367 1325 367 1325 367 1320 c 2,92,-1
 366 1315 l 2,93,94
 364 1302 364 1302 361 1277 c 0,95,96
 357 1251 357 1251 355 1238 c 0,97,98
 349 1204 349 1204 338 1138 c 0,99,100
 317 1009 317 1009 305 945 c 0,101,102
 292 876 292 876 216 544 c 0,103,104
 175 365 175 365 169 310 c 0,105,106
 150 118 150 118 240 56 c 0,107,108
 291 22 291 22 417 23 c 0,109,110
 442 23 442 23 449 23 c 1,111,-1
 429 -66 l 1,0,1
496 1791 m 1,112,113
 437 1829 437 1829 466 1920 c 0,114,115
 479 1960 479 1960 504 1993 c 0,116,117
 595 2108 595 2108 679 2132 c 0,118,119
 692 2136 692 2136 737 2135 c 0,120,121
 777 2134 777 2134 795 2127 c 0,122,123
 840 2105 840 2105 845 2048 c 0,124,125
 845 2042 845 2042 843 2030 c 0,126,127
 840 2012 840 2012 843 2004 c 0,128,129
 868 1947 868 1947 847 1932 c 0,130,131
 835 1923 835 1923 788 1940 c 0,132,133
 782 1942 782 1942 778 1943 c 0,134,135
 692 1957 692 1957 635 1911 c 1,136,137
 643 1907 643 1907 657 1897 c 0,138,139
 696 1873 696 1873 723 1875 c 0,140,141
 739 1876 739 1876 774 1882 c 0,142,143
 802 1887 802 1887 815 1889 c 1,144,145
 846 1888 846 1888 847 1886 c 0,146,147
 848 1885 848 1885 845 1870 c 0,148,149
 845 1867 845 1867 844 1866 c 0,150,151
 841 1845 841 1845 820 1794 c 1,152,153
 822 1794 822 1794 829 1796 c 0,154,155
 856 1803 856 1803 859 1797 c 0,156,157
 861 1794 861 1794 855 1778 c 2,158,-1
 854 1776 l 2,159,160
 850 1767 850 1767 841 1750 c 0,161,162
 832 1732 832 1732 828 1724 c 0,163,164
 819 1706 819 1706 816 1704 c 0,165,166
 808 1700 808 1700 791 1697 c 0,167,168
 781 1695 781 1695 777 1694 c 0,169,170
 756 1690 756 1690 701 1676 c 0,171,172
 570 1643 570 1643 465 1604 c 1,173,-1
 478 1660 l 1,174,-1
 443 1647 l 1,175,-1
 445 1655 l 1,176,-1
 422 1647 l 1,177,-1
 423 1655 l 1,178,-1
 400 1647 l 1,179,-1
 417 1720 l 1,180,-1
 426 1750 l 1,181,-1
 447 1765 l 1,182,-1
 496 1791 l 1,112,113
784 2029 m 1,183,184
 781 2042 781 2042 770 2058 c 0,185,186
 749 2086 749 2086 719 2088 c 0,187,188
 675 2088 675 2088 610 2025 c 0,189,190
 604 2019 604 2019 599 2014 c 1,191,192
 605 2016 605 2016 619 2022 c 0,193,194
 642 2032 642 2032 653 2034 c 0,195,196
 696 2043 696 2043 784 2029 c 1,183,184
569 1983 m 1,197,198
 545 1965 545 1965 521 1925 c 0,199,200
 510 1909 510 1909 510 1904 c 0,201,202
 509 1894 509 1894 519 1875 c 2,203,-1
 520 1873 l 1,204,205
 550 1827 550 1827 577 1811 c 1,206,-1
 558 1801 l 1,207,-1
 572 1788 l 1,208,-1
 553 1778 l 1,209,-1
 566 1765 l 1,210,-1
 476 1717 l 1,211,-1
 476 1715 l 1,212,213
 514 1724 514 1724 590 1748 c 0,214,215
 648 1765 648 1765 676 1773 c 0,216,217
 686 1775 686 1775 706 1779 c 0,218,219
 727 1783 727 1783 736 1786 c 0,220,221
 762 1792 762 1792 763 1793 c 0,222,223
 768 1798 768 1798 785 1834 c 1,224,225
 645 1808 645 1808 587 1861 c 1,226,227
 556 1894 556 1894 556 1920 c 0,228,229
 555 1949 555 1949 569 1983 c 1,197,198
EndSplineSet
EndChar

StartChar: uniFE85
Encoding: 1572 1572 341
AltUni2: 00fe85.ffffffff.0
Width: 787
VWidth: 1639
GlyphClass: 2
Flags: W
LayerCount: 2
Fore
SplineSet
461 -59 m 1,0,1
 440 -59 440 -59 398 -62 c 0,2,3
 298 -68 298 -68 255 -54 c 0,4,5
 233 -46 233 -46 214 -31 c 0,6,7
 212 -29 212 -29 207 -24 c 0,8,9
 198 -15 198 -15 194 -13 c 0,10,11
 142 19 142 19 136 27 c 0,12,13
 125 41 125 41 119 57 c 0,14,15
 106 101 106 101 126 189 c 0,16,17
 165 355 165 355 284 502 c 0,18,19
 370 608 370 608 449 615 c 1,20,21
 511 618 511 618 545 608 c 1,22,23
 631 578 631 578 654 429 c 0,24,25
 655 420 655 420 667 328 c 0,26,27
 682 211 682 211 650 51 c 1,28,29
 580 -323 580 -323 302 -584 c 0,30,31
 289 -596 289 -596 277 -607 c 0,32,33
 270 -613 270 -613 255 -626 c 0,34,35
 197 -678 197 -678 169 -689 c 0,36,37
 146 -697 146 -697 81 -687 c 1,38,39
 -36 -677 -36 -677 -90 -667 c 0,40,41
 -95 -666 -95 -666 -108 -666 c 0,42,43
 -156 -661 -156 -661 -169 -649 c 0,44,45
 -176 -641 -176 -641 -146 -628 c 0,46,47
 -143 -627 -143 -627 -143 -626 c 1,48,49
 -172 -626 -172 -626 -216 -613 c 0,50,51
 -248 -604 -248 -604 -222 -591 c 0,52,53
 -219 -589 -219 -589 -218 -589 c 1,54,55
 -240 -580 -240 -580 -216 -568 c 0,56,57
 -213 -567 -213 -567 -212 -566 c 1,58,59
 -239 -553 -239 -553 -189 -536 c 0,60,61
 -73 -497 -73 -497 -56 -490 c 0,62,63
 180 -391 180 -391 352 -207 c 0,64,65
 441 -111 441 -111 461 -59 c 1,0,1
-129 -576 m 1,66,67
 -126 -576 -126 -576 -64 -585 c 0,68,69
 -23 -590 -23 -590 46 -597 c 1,70,71
 105 -605 105 -605 124 -595 c 0,72,73
 191 -557 191 -557 297 -446 c 0,74,75
 540 -191 540 -191 593 144 c 0,76,77
 601 194 601 194 604 241 c 0,78,79
 620 497 620 497 510 554 c 0,80,81
 485 567 485 567 467 567 c 1,82,83
 411 561 411 561 339 484 c 1,84,85
 246 380 246 380 192 249 c 1,86,87
 156 158 156 158 172 102 c 1,88,89
 193 45 193 45 268 30 c 0,90,91
 280 28 280 28 356 28 c 1,92,93
 531 33 l 1,94,95
 507 -71 507 -71 505 -78 c 0,96,97
 498 -97 498 -97 490 -112 c 0,98,99
 460 -171 460 -171 382 -256 c 0,100,101
 224 -425 224 -425 6 -523 c 0,102,103
 -2 -527 -2 -527 -112 -568 c 0,104,105
 -122 -572 -122 -572 -129 -574 c 1,106,-1
 -129 -576 l 1,66,67
379 430 m 0,107,108
 512 447 512 447 548 332 c 0,109,110
 550 324 550 324 553 317 c 0,111,112
 563 279 563 279 550 215 c 1,113,114
 548 187 548 187 542 177 c 1,115,116
 537 173 537 173 515 169 c 0,117,118
 441 157 441 157 347 159 c 1,119,120
 272 163 272 163 246 192 c 1,121,122
 227 217 227 217 238 277 c 1,123,124
 250 328 250 328 260 346 c 0,125,126
 294 412 294 412 368 428 c 0,127,128
 375 429 375 429 379 430 c 0,107,108
506 220 m 1,129,130
 503 275 503 275 483 313 c 0,131,132
 473 335 473 335 463 339 c 1,133,134
 402 353 402 353 343 296 c 0,135,136
 336 289 336 289 331 284 c 0,137,138
 304 251 304 251 306 235 c 0,139,140
 309 223 309 223 347 212 c 0,141,142
 401 198 401 198 506 220 c 1,129,130
487 886 m 1,143,144
 428 924 428 924 457 1015 c 0,145,146
 470 1055 470 1055 496 1087 c 0,147,148
 587 1202 587 1202 670 1227 c 0,149,150
 683 1231 683 1231 728 1230 c 0,151,152
 768 1229 768 1229 786 1222 c 0,153,154
 831 1200 831 1200 836 1143 c 0,155,156
 836 1137 836 1137 834 1124 c 0,157,158
 831 1106 831 1106 834 1099 c 0,159,160
 861 1041 861 1041 838 1027 c 0,161,162
 826 1018 826 1018 779 1035 c 0,163,164
 773 1037 773 1037 769 1038 c 0,165,166
 684 1053 684 1053 626 1005 c 1,167,168
 634 1001 634 1001 649 992 c 0,169,170
 687 967 687 967 714 969 c 0,171,172
 730 970 730 970 765 977 c 0,173,174
 793 982 793 982 806 984 c 1,175,176
 837 983 837 983 839 981 c 0,177,178
 840 980 840 980 836 964 c 0,179,180
 836 962 836 962 836 961 c 0,181,182
 833 940 833 940 811 889 c 1,183,184
 813 889 813 889 820 891 c 0,185,186
 847 898 847 898 850 892 c 0,187,188
 852 889 852 889 846 873 c 2,189,-1
 845 871 l 2,190,191
 841 862 841 862 832.5 844.5 c 128,-1,192
 824 827 824 827 819 818 c 0,193,194
 810 800 810 800 807 799 c 0,195,196
 799 795 799 795 782 792 c 0,197,198
 772 790 772 790 768 789 c 0,199,200
 747 785 747 785 692 771 c 0,201,202
 561 738 561 738 456 699 c 1,203,-1
 469 754 l 1,204,-1
 434 741 l 1,205,-1
 436 749 l 1,206,-1
 413 741 l 1,207,-1
 415 749 l 1,208,-1
 391 741 l 1,209,-1
 408 815 l 1,210,-1
 417 845 l 1,211,-1
 438 859 l 1,212,-1
 487 886 l 1,143,144
775 1123 m 1,213,214
 772 1136 772 1136 761 1153 c 0,215,216
 740 1181 740 1181 710 1182 c 0,217,218
 666 1182 666 1182 601 1120 c 0,219,220
 595 1114 595 1114 591 1109 c 1,221,222
 597 1111 597 1111 610 1116 c 0,223,224
 633 1126 633 1126 644 1128 c 0,225,226
 687 1137 687 1137 775 1123 c 1,213,214
560 1077 m 1,227,228
 536 1059 536 1059 512 1020 c 0,229,230
 501 1004 501 1004 501 999 c 0,231,232
 500 989 500 989 510 969 c 2,233,-1
 511 968 l 1,234,235
 541 922 541 922 568 905 c 1,236,-1
 549 895 l 1,237,-1
 563 882 l 1,238,-1
 544 872 l 1,239,-1
 557 859 l 1,240,-1
 467 812 l 1,241,-1
 467 810 l 1,242,243
 505 819 505 819 581 843 c 0,244,245
 639 860 639 860 668 868 c 0,246,247
 678 870 678 870 697 874 c 0,248,249
 718 878 718 878 727 881 c 0,250,251
 752 886 752 886 754 887 c 0,252,253
 759 892 759 892 776 928 c 1,254,255
 636 902 636 902 578 956 c 1,256,257
 547 989 547 989 548 1015 c 0,258,259
 546 1043 546 1043 560 1077 c 1,227,228
EndSplineSet
AlternateSubs2: "gsub_alternate_dfl_aalt_arab_FAR_Lookup_01_Subtable_01" uniFE86 uniFE85
Substitution2: "gsub_single_rtl_fina_arab_FAR_Lookup_01_Subtable_01" uniFE86
EndChar

StartChar: uniFE86
Encoding: 65158 65158 342
Width: 671
VWidth: 1639
GlyphClass: 2
Flags: W
LayerCount: 2
Fore
SplineSet
410 -66 m 1,0,1
 277 -66 277 -66 258 -63 c 0,2,3
 223 -58 223 -58 197 -48 c 0,4,5
 193 -46 193 -46 156 -16 c 0,6,7
 152 -13 152 -13 149 -11 c 0,8,9
 95 22 95 22 92 25 c 0,10,11
 78 40 78 40 71 59 c 0,12,13
 58 103 58 103 80 197 c 0,14,15
 110 324 110 324 203 458 c 0,16,17
 257 535 257 535 306 574 c 0,18,19
 394 643 394 643 490 607 c 0,20,21
 550 583 550 583 576 530 c 0,22,23
 600 477 600 477 608 399 c 0,24,25
 610 384 610 384 615 354 c 0,26,27
 630 256 630 256 622 207 c 1,28,-1
 747 207 l 1,29,-1
 737 161 l 1,30,-1
 549 161 l 1,31,32
 565 266 565 266 555 353 c 1,33,34
 542 438 542 438 525 479 c 0,35,36
 499 536 499 536 451 558 c 0,37,38
 428 567 428 567 415 566 c 0,39,40
 353 557 353 557 276 466 c 0,41,42
 252 437 252 437 230 403 c 0,43,44
 65 169 65 169 144 73 c 0,45,46
 153 62 153 62 163 54 c 0,47,48
 209 23 209 23 316 23 c 2,49,-1
 481 23 l 1,50,51
 457 -80 457 -80 449 -99 c 0,52,53
 446 -106 446 -106 443 -112 c 0,54,55
 402 -190 402 -190 306 -285 c 0,56,57
 109 -481 109 -481 -177 -574 c 1,58,-1
 -178 -576 l 1,59,60
 -162 -576 -162 -576 -129 -582 c 0,61,62
 -110 -586 -110 -586 -101 -587 c 0,63,64
 -4 -597 -4 -597 -1 -597 c 0,65,66
 4 -597 4 -597 15 -599 c 0,67,68
 51 -604 51 -604 66 -599 c 0,69,70
 82 -593 82 -593 122 -561 c 0,71,72
 179 -514 179 -514 216 -477 c 0,73,74
 382 -315 382 -315 472 -108 c 0,75,76
 507 -30 507 -30 519 23 c 1,77,-1
 705 23 l 1,78,-1
 684 -66 l 1,79,-1
 573 -66 l 1,80,81
 520 -294 520 -294 323 -512 c 0,82,83
 296 -542 296 -542 269 -567 c 0,84,85
 212 -622 212 -622 164 -659 c 0,86,87
 128 -686 128 -686 116 -690 c 1,88,89
 101 -692 101 -692 33 -687 c 0,90,91
 -84 -677 -84 -677 -138 -667 c 1,92,93
 -166 -664 -166 -664 -194 -658 c 0,94,95
 -212 -653 -212 -653 -216 -649 c 1,96,97
 -221 -638 -221 -638 -194 -629 c 0,98,99
 -191 -628 -191 -628 -190 -628 c 2,100,-1
 -190 -626 l 1,101,102
 -221 -626 -221 -626 -266 -613 c 0,103,104
 -281 -608 -281 -608 -280 -601 c 0,105,106
 -279 -596 -279 -596 -268 -591 c 0,107,108
 -266 -590 -266 -590 -265 -590 c 1,109,-1
 -265 -589 l 1,110,111
 -285 -583 -285 -583 -269 -572 c 0,112,113
 -264 -569 -264 -569 -260 -567 c 1,114,-1
 -259 -566 l 1,115,116
 -288 -556 -288 -556 -237 -536 c 0,117,118
 -220 -530 -220 -530 -186 -519 c 0,119,120
 -136 -503 -136 -503 -112 -494 c 0,121,122
 133 -390 133 -390 302 -210 c 1,123,124
 388 -114 388 -114 410 -66 c 1,0,1
324 428 m 0,125,126
 458 445 458 445 495 338 c 0,127,128
 498 328 498 328 500 320 c 0,129,130
 512 266 512 266 499 210 c 0,131,132
 491 177 491 177 490 175 c 0,133,134
 485 171 485 171 464 167 c 0,135,136
 365 149 365 149 276 159 c 0,137,138
 219 166 219 166 196 190 c 1,139,140
 175 218 175 218 189 279 c 0,141,142
 201 329 201 329 209 344 c 0,143,144
 242 406 242 406 309 425 c 0,145,146
 317 427 317 427 324 428 c 0,125,126
454 218 m 1,147,148
 457 260 457 260 434 310 c 1,149,150
 421 333 421 333 417 336 c 0,151,152
 406 342 406 342 367 338 c 1,153,154
 308 323 308 323 270 269 c 1,155,156
 253 241 253 241 254 233 c 1,157,158
 257 226 257 226 278 216 c 0,159,160
 314 202 314 202 367 205 c 0,161,162
 386 206 386 206 454 218 c 1,147,148
546 922 m 1,163,164
 487 960 487 960 516 1051 c 0,165,166
 529 1091 529 1091 555 1123 c 0,167,168
 646 1238 646 1238 729 1263 c 0,169,170
 742 1267 742 1267 787 1266 c 0,171,172
 827 1265 827 1265 845 1258 c 0,173,174
 890 1236 890 1236 895 1179 c 0,175,176
 895 1173 895 1173 893 1160 c 0,177,178
 890 1142 890 1142 893 1135 c 0,179,180
 920 1077 920 1077 897 1063 c 0,181,182
 885 1054 885 1054 838 1071 c 0,183,184
 832 1073 832 1073 828 1074 c 0,185,186
 742 1088 742 1088 685 1041 c 1,187,188
 693 1037 693 1037 708 1028 c 0,189,190
 747 1004 747 1004 773 1005 c 0,191,192
 789 1006 789 1006 824 1013 c 0,193,194
 852 1018 852 1018 865 1020 c 1,195,196
 896 1019 896 1019 898 1017 c 0,197,198
 899 1016 899 1016 895 1001 c 0,199,200
 895 999 895 999 895 997 c 0,201,202
 892 976 892 976 870 925 c 1,203,204
 872 925 872 925 879 927 c 0,205,206
 906 934 906 934 909 928 c 0,207,208
 911 925 911 925 905 909 c 2,209,-1
 904 907 l 2,210,211
 900 898 900 898 891 881 c 0,212,213
 882 863 882 863 878 854 c 0,214,215
 869 836 869 836 866 835 c 0,216,217
 858 831 858 831 841 828 c 0,218,219
 831 826 831 826 827 825 c 0,220,221
 806 821 806 821 751 807 c 0,222,223
 620 774 620 774 515 735 c 1,224,-1
 528 790 l 1,225,-1
 493 777 l 1,226,-1
 495 786 l 1,227,-1
 472 777 l 1,228,-1
 474 786 l 1,229,-1
 450 777 l 1,230,-1
 467 851 l 1,231,-1
 476 881 l 1,232,-1
 497 895 l 1,233,-1
 546 922 l 1,163,164
834 1159 m 1,234,235
 831 1172 831 1172 820 1189 c 0,236,237
 799 1217 799 1217 769 1219 c 0,238,239
 725 1219 725 1219 660 1156 c 0,240,241
 654 1150 654 1150 650 1145 c 1,242,243
 656 1147 656 1147 669 1153 c 0,244,245
 692 1163 692 1163 703 1164 c 0,246,247
 746 1173 746 1173 834 1159 c 1,234,235
619 1114 m 1,248,249
 595 1096 595 1096 571 1056 c 0,250,251
 560 1040 560 1040 560 1035 c 0,252,253
 559 1025 559 1025 569 1006 c 2,254,-1
 570 1004 l 1,255,256
 600 958 600 958 627 941 c 1,257,-1
 608 932 l 1,258,-1
 622 918 l 1,259,-1
 603 909 l 1,260,-1
 616 895 l 1,261,-1
 526 848 l 1,262,-1
 526 846 l 1,263,264
 564 855 564 855 640 879 c 0,265,266
 698 896 698 896 727 904 c 0,267,268
 737 906 737 906 756 910 c 0,269,270
 777 914 777 914 786 917 c 0,271,272
 811 922 811 922 813 923 c 0,273,274
 818 928 818 928 835 964 c 1,275,276
 695 938 695 938 637 992 c 1,277,278
 606 1025 606 1025 607 1051 c 0,279,280
 605 1080 605 1080 619 1114 c 1,248,249
EndSplineSet
EndChar

StartChar: uniFE87
Encoding: 1573 1573 343
AltUni2: 00fe87.ffffffff.0
Width: 500
VWidth: 1639
GlyphClass: 2
Flags: W
LayerCount: 2
Fore
SplineSet
245 -38 m 1,0,1
 230 -59 230 -59 225 -48 c 0,2,3
 224 -45 224 -45 224 -43 c 0,4,5
 225 -25 225 -25 233 8 c 0,6,7
 242 48 242 48 278 238 c 0,8,9
 345 595 345 595 418 1105 c 0,10,11
 423 1139 423 1139 433 1207 c 0,12,13
 443 1276 443 1276 448 1309 c 0,14,15
 450 1319 450 1319 453 1337 c 0,16,17
 457 1356 457 1356 458 1366 c 2,18,-1
 466 1399 l 1,19,20
 470 1404 470 1404 496 1425 c 0,21,22
 535 1458 535 1458 573 1487 c 0,23,24
 579 1492 579 1492 591 1503 c 0,25,26
 626 1533 626 1533 643 1540 c 1,27,-1
 643 1528 l 1,28,-1
 664 1540 l 1,29,-1
 665 1528 l 1,30,-1
 686 1540 l 1,31,32
 690 1523 690 1523 674 1454 c 0,33,34
 671 1442 671 1442 671 1435 c 1,35,-1
 697 1451 l 1,36,37
 701 1435 701 1435 686 1369 c 0,38,39
 685 1362 685 1362 683 1358 c 0,40,41
 675 1313 675 1313 656 1224 c 0,42,43
 641 1157 641 1157 635 1123 c 0,44,45
 630 1093 630 1093 554 751 c 0,46,47
 552 741 552 741 550 733 c 0,48,49
 480 418 480 418 444 261 c 0,50,51
 407 100 407 100 388 53 c 0,52,53
 373 16 373 16 356 -15 c 1,54,55
 328 -59 328 -59 316 -74 c 0,56,57
 304 -90 304 -90 298 -93 c 1,58,59
 289 -92 289 -92 291 -79 c 0,60,61
 292 -59 292 -59 300 -23 c 1,62,-1
 299 -23 l 1,63,64
 286 -49 286 -49 275 -49 c 1,65,66
 269 -46 269 -46 267 -38 c 1,67,68
 249 -58 249 -58 245 -38 c 1,0,1
631 1463 m 1,69,70
 615 1452 615 1452 538 1387 c 0,71,72
 535 1385 535 1385 528 1380 c 0,73,74
 508 1364 508 1364 503 1356 c 0,75,76
 498 1348 498 1348 497 1322 c 1,77,-1
 488 1263 l 2,78,79
 455 1043 455 1043 454 1038 c 0,80,81
 420 803 420 803 371 512 c 1,82,83
 321 203 321 203 285 49 c 1,84,-1
 287 49 l 1,85,86
 330 127 330 127 343 162 c 1,87,88
 354 194 354 194 377 297 c 0,89,90
 386 337 386 337 404 417 c 0,91,92
 422 497 422 497 431 536 c 0,93,94
 525 945 525 945 568 1150 c 0,95,96
 575 1185 575 1185 589 1255 c 0,97,98
 615 1393 615 1393 631 1463 c 1,69,70
-22 -608 m 1,99,100
 -81 -570 -81 -570 -52 -479 c 0,101,102
 -39 -439 -39 -439 -13 -407 c 0,103,104
 78 -292 78 -292 161 -267 c 0,105,106
 174 -263 174 -263 220 -264 c 0,107,108
 260 -265 260 -265 277 -272 c 0,109,110
 322 -294 322 -294 328 -351 c 0,111,112
 328 -357 328 -357 325 -370 c 0,113,114
 322 -388 322 -388 325 -395 c 0,115,116
 352 -453 352 -453 330 -467 c 0,117,118
 318 -476 318 -476 270 -459 c 0,119,120
 264 -457 264 -457 261 -456 c 0,121,122
 176 -441 176 -441 117 -489 c 1,123,124
 125 -493 125 -493 140 -502 c 0,125,126
 179 -526 179 -526 205 -525 c 0,127,128
 221 -524 221 -524 256 -517 c 0,129,130
 284 -512 284 -512 297 -510 c 1,131,132
 328 -511 328 -511 330 -513 c 0,133,134
 331 -514 331 -514 327 -530 c 0,135,136
 327 -533 l 0,137,138
 324 -554 324 -554 303 -605 c 1,139,140
 305 -605 305 -605 312 -603 c 0,141,142
 339 -596 339 -596 341 -602 c 0,143,144
 343 -608 343 -608 337 -623 c 0,145,146
 333 -632 333 -632 324 -649 c 0,147,148
 315 -667 315 -667 311 -676 c 0,149,150
 302 -694 302 -694 299 -695 c 0,151,152
 291 -699 291 -699 273 -702 c 0,153,154
 263 -704 263 -704 260 -705 c 0,155,156
 239 -709 239 -709 184 -723 c 0,157,158
 53 -756 53 -756 -52 -795 c 1,159,-1
 -40 -740 l 1,160,-1
 -75 -753 l 1,161,-1
 -73 -745 l 1,162,-1
 -96 -753 l 1,163,-1
 -94 -745 l 1,164,-1
 -117 -753 l 1,165,-1
 -100 -679 l 1,166,-1
 -92 -649 l 1,167,-1
 -70 -635 l 1,168,-1
 -22 -608 l 1,99,100
267 -371 m 1,169,170
 264 -358 264 -358 252 -341 c 0,171,172
 231 -313 231 -313 201 -312 c 0,173,174
 157 -312 157 -312 93 -374 c 0,175,176
 87 -380 87 -380 82 -385 c 1,177,178
 88 -383 88 -383 101 -378 c 0,179,180
 124 -368 124 -368 135 -366 c 0,181,182
 179 -357 179 -357 267 -371 c 1,169,170
52 -417 m 1,183,184
 28 -435 28 -435 3 -474 c 0,185,186
 -8 -490 -8 -490 -8 -495 c 0,187,188
 -8 -507 -8 -507 2 -526 c 1,189,190
 32 -572 32 -572 59 -589 c 1,191,-1
 40 -599 l 1,192,-1
 54 -612 l 1,193,-1
 35 -622 l 1,194,-1
 49 -635 l 1,195,-1
 -42 -682 l 1,196,-1
 -42 -684 l 1,197,198
 -4 -675 -4 -675 73 -651 c 0,199,200
 131 -634 131 -634 159 -626 c 0,201,202
 169 -624 169 -624 189 -620 c 0,203,204
 210 -616 210 -616 218 -613 c 0,205,206
 243 -608 243 -608 246 -607 c 0,207,208
 251 -602 251 -602 267 -566 c 1,209,210
 127 -592 127 -592 69 -538 c 1,211,212
 38 -505 38 -505 39 -479 c 0,213,214
 38 -451 38 -451 52 -417 c 1,183,184
EndSplineSet
AlternateSubs2: "gsub_alternate_dfl_aalt_arab_FAR_Lookup_01_Subtable_01" uniFE88 uniFE87
Substitution2: "gsub_single_rtl_fina_arab_FAR_Lookup_01_Subtable_01" uniFE88
EndChar

StartChar: uniFE88
Encoding: 65160 65160 344
Width: 636
VWidth: 1639
GlyphClass: 2
Flags: W
LayerCount: 2
Fore
SplineSet
650 -66 m 1,0,1
 543 -66 543 -66 508 -52 c 0,2,3
 504 -50 504 -50 502 -49 c 0,4,5
 498 -47 498 -47 454 -17 c 0,6,7
 448 -13 448 -13 444 -10 c 0,8,9
 438 -6 438 -6 425 0 c 0,10,11
 411 6 411 6 406 10 c 0,12,13
 363 43 363 43 342 107 c 1,14,15
 325 175 325 175 341 290 c 0,16,17
 353 375 353 375 403 581 c 0,18,19
 485 921 485 921 543 1330 c 0,20,21
 551 1382 551 1382 557 1394 c 0,22,23
 561 1400 561 1400 582 1417 c 0,24,25
 592 1426 592 1426 612 1444 c 0,26,27
 633 1463 633 1463 642 1471 c 0,28,29
 645 1474 645 1474 653 1482 c 0,30,31
 689 1516 689 1516 702 1504 c 1,32,33
 715 1513 715 1513 721 1504 c 1,34,-1
 723 1504 l 1,35,36
 741 1517 741 1517 743 1497 c 1,37,38
 743 1453 743 1453 735 1417 c 1,39,40
 759 1430 759 1430 755 1384 c 0,41,42
 754 1378 754 1378 749 1346 c 0,43,44
 730 1192 730 1192 708 1087 c 0,45,46
 693 1021 693 1021 664 889 c 0,47,48
 605 624 605 624 575 492 c 2,49,-1
 538 333 l 2,50,51
 526 279 526 279 527 271 c 0,52,53
 528 267 528 267 529 266 c 0,54,55
 550 206 550 206 672 206 c 0,56,57
 679 206 679 206 692 206 c 0,58,59
 707 206 707 206 713 207 c 1,60,-1
 703 161 l 1,61,62
 691 161 691 161 664 160 c 0,63,64
 542 156 542 156 501 187 c 0,65,66
 482 202 482 202 472 223 c 0,67,68
 450 273 450 273 475 382 c 2,69,-1
 520 579 l 2,70,71
 620 1012 620 1012 650 1168 c 0,72,73
 662 1233 662 1233 679 1346 c 0,74,75
 681 1359 681 1359 683 1384 c 0,76,77
 686 1421 686 1421 690 1438 c 1,78,79
 678 1427 678 1427 654 1406 c 0,80,81
 629 1384 629 1384 618 1374 c 0,82,83
 615 1371 615 1371 610 1366 c 0,84,85
 598 1355 598 1355 594 1350 c 0,86,87
 594 1348 594 1348 592.5 1345 c 128,-1,88
 591 1342 591 1342 590.5 1339.5 c 128,-1,89
 590 1337 590 1337 589.5 1332.5 c 128,-1,90
 589 1328 589 1328 589 1326.5 c 128,-1,91
 589 1325 589 1325 588 1320 c 2,92,-1
 588 1315 l 2,93,94
 586 1302 586 1302 582 1277 c 0,95,96
 578 1251 578 1251 576 1238 c 0,97,98
 570 1204 570 1204 560 1138 c 0,99,100
 539 1009 539 1009 527 945 c 0,101,102
 514 876 514 876 437 544 c 0,103,104
 396 365 396 365 391 310 c 0,105,106
 372 118 372 118 462 56 c 0,107,108
 513 22 513 22 638 23 c 0,109,110
 663 23 663 23 671 23 c 1,111,-1
 650 -66 l 1,0,1
9 -474 m 1,112,113
 -50 -436 -50 -436 -22 -345 c 0,114,115
 -9 -305 -9 -305 17 -272 c 0,116,117
 108 -157 108 -157 191 -133 c 0,118,119
 204 -129 204 -129 250 -130 c 0,120,121
 290 -131 290 -131 307 -138 c 0,122,123
 352 -160 352 -160 358 -216 c 0,124,125
 358 -222 358 -222 356 -235 c 0,126,127
 353 -253 353 -253 355 -261 c 0,128,129
 382 -319 382 -319 360 -333 c 0,130,131
 348 -342 348 -342 301 -324 c 0,132,133
 295 -322 295 -322 291 -321 c 0,134,135
 205 -307 205 -307 148 -354 c 1,136,137
 156 -358 156 -358 170 -368 c 0,138,139
 209 -392 209 -392 235 -390 c 0,140,141
 251 -389 251 -389 287 -382 c 0,142,143
 315 -377 315 -377 327 -376 c 1,144,145
 358 -377 358 -377 360 -379 c 0,146,147
 361 -380 361 -380 357 -395 c 0,148,149
 357 -398 357 -398 357 -399 c 0,150,151
 354 -420 354 -420 333 -471 c 1,152,153
 335 -471 335 -471 342 -468 c 0,154,155
 369 -461 369 -461 372 -467 c 0,156,157
 374 -470 374 -470 368 -487 c 2,158,-1
 367 -489 l 2,159,160
 363 -498 363 -498 354 -515 c 0,161,162
 345 -533 345 -533 341 -541 c 0,163,164
 332 -559 332 -559 329 -561 c 0,165,166
 321 -565 321 -565 303 -568 c 0,167,168
 293 -570 293 -570 290 -571 c 0,169,170
 269 -575 269 -575 214 -589 c 0,171,172
 83 -622 83 -622 -22 -661 c 1,173,-1
 -9 -605 l 1,174,-1
 -45 -618 l 1,175,-1
 -43 -610 l 1,176,-1
 -66 -618 l 1,177,-1
 -64 -610 l 1,178,-1
 -87 -618 l 1,179,-1
 -70 -544 l 1,180,-1
 -62 -515 l 1,181,-1
 -40 -500 l 1,182,-1
 9 -474 l 1,112,113
297 -236 m 1,183,184
 294 -223 294 -223 282 -207 c 0,185,186
 261 -179 261 -179 231 -177 c 0,187,188
 187 -177 187 -177 123 -240 c 0,189,190
 117 -246 117 -246 112 -251 c 1,191,192
 118 -249 118 -249 131 -243 c 0,193,194
 154 -233 154 -233 165 -231 c 0,195,196
 209 -222 209 -222 297 -236 c 1,183,184
82 -282 m 1,197,198
 58 -300 58 -300 34 -339 c 0,199,200
 23 -355 23 -355 23 -361 c 0,201,202
 22 -371 22 -371 31 -390 c 2,203,-1
 32 -392 l 1,204,205
 62 -438 62 -438 89 -454 c 1,206,-1
 70 -464 l 1,207,-1
 84 -477 l 1,208,-1
 65 -487 l 1,209,-1
 79 -500 l 1,210,-1
 -11 -548 l 1,211,-1
 -12 -549 l 1,212,213
 26 -540 26 -540 103 -517 c 0,214,215
 161 -500 161 -500 189 -492 c 0,216,217
 199 -490 199 -490 219 -485 c 0,218,219
 240 -481 240 -481 248 -479 c 0,220,221
 273 -474 273 -474 276 -472 c 0,222,223
 281 -467 281 -467 298 -431 c 1,224,225
 158 -457 158 -457 100 -403 c 1,226,227
 69 -370 69 -370 69 -344 c 0,228,229
 68 -316 68 -316 82 -282 c 1,197,198
EndSplineSet
EndChar

StartChar: uniFE89
Encoding: 1574 1574 345
AltUni2: 00fe89.ffffffff.0
Width: 1518
VWidth: 1639
GlyphClass: 2
Flags: W
LayerCount: 2
Fore
SplineSet
1066 -105 m 1,0,1
 1061 -104 1061 -104 971 -76 c 0,2,3
 963 -74 963 -74 956 -72 c 0,4,5
 940 -68 940 -68 908 -62 c 0,6,7
 803 -41 803 -41 758 -18 c 0,8,9
 749 -13 749 -13 736 -1 c 0,10,11
 727 8 727 8 723 11 c 0,12,13
 714 18 714 18 695 29 c 0,14,15
 662 48 662 48 652 69 c 1,16,17
 640 103 640 103 654 166 c 0,18,19
 673 248 673 248 702 307 c 1,20,21
 800 494 800 494 1001 663 c 0,22,23
 1113 756 1113 756 1205 779 c 0,24,25
 1236 787 1236 787 1291 787 c 0,26,27
 1415 786 1415 786 1455 720 c 0,28,29
 1468 696 1468 696 1478 620 c 0,30,31
 1479 611 1479 611 1480 604 c 0,32,33
 1481 594 1481 594 1484 575 c 0,34,35
 1491 528 1491 528 1490 502 c 0,36,37
 1487 471 1487 471 1482 466 c 0,38,39
 1480 464 1480 464 1476 463 c 128,-1,40
 1472 462 1472 462 1467.5 464 c 128,-1,41
 1463 466 1463 466 1459 468.5 c 128,-1,42
 1455 471 1455 471 1452 473.5 c 128,-1,43
 1449 476 1449 476 1445 479 c 2,44,-1
 1441 482 l 1,45,46
 1395 509 1395 509 1315 518 c 0,47,48
 1151 535 1151 535 969 372 c 0,49,50
 959 363 959 363 951 356 c 0,51,52
 903 309 903 309 883 285 c 1,53,54
 858 251 858 251 856 246 c 0,55,56
 854 237 854 237 865 233 c 1,57,58
 883 221 883 221 902 213 c 0,59,60
 925 203 925 203 1054 172 c 0,61,62
 1068 169 1068 169 1078 166 c 0,63,64
 1186 134 1186 134 1218 104 c 0,65,66
 1228 94 1228 94 1235 85 c 0,67,68
 1249 63 1249 63 1244 31 c 0,69,70
 1240 11 1240 11 1240 8 c 0,71,72
 1241 1 1241 1 1248 -10 c 0,73,74
 1256 -24 1256 -24 1257 -33 c 0,75,76
 1260 -106 1260 -106 1189 -226 c 1,77,78
 1139 -315 1139 -315 1087 -364 c 0,79,80
 989 -454 989 -454 802 -515 c 0,81,82
 619 -576 619 -576 426 -584 c 0,83,84
 270 -590 270 -590 182 -559 c 0,85,86
 144 -546 144 -546 78 -500 c 0,87,88
 -28 -429 -28 -429 -60 -365 c 0,89,90
 -71 -343 -71 -343 -77 -320 c 0,91,92
 -100 -230 -100 -230 -70 -97 c 0,93,94
 -26 90 -26 90 80 233 c 0,95,96
 122 290 122 290 157 328 c 0,97,98
 186 359 186 359 208 371 c 1,99,100
 216 373 216 373 232 372 c 0,101,102
 234 372 234 372 242 373 c 0,103,104
 265 375 265 375 270 371 c 0,105,106
 274 366 274 366 268 343 c 0,107,108
 258 303 258 303 235 264 c 1,109,110
 241 269 241 269 249 274 c 128,-1,111
 257 279 257 279 267 283 c 128,-1,112
 277 287 277 287 281.5 283.5 c 128,-1,113
 286 280 286 280 283 269 c 0,114,115
 281 261 281 261 279 257 c 0,116,117
 277 253 277 253 271 241 c 0,118,119
 261 226 261 226 241 198 c 0,120,121
 220 169 220 169 211 154 c 0,122,123
 146 53 146 53 115 -44 c 0,124,125
 91 -118 91 -118 95 -143 c 0,126,127
 116 -242 116 -242 242 -290 c 0,128,129
 250 -293 250 -293 257 -295 c 0,130,131
 341 -321 341 -321 490 -307 c 0,132,133
 664 -291 664 -291 812 -248 c 1,134,135
 972 -204 972 -204 1042 -133 c 0,136,137
 1055 -119 1055 -119 1066 -105 c 1,0,1
1426 574 m 1,138,139
 1423 630 1423 630 1407 664 c 0,140,141
 1373 731 1373 731 1295 739 c 0,142,143
 1281 740 1281 740 1269 740 c 0,144,145
 1216 733 1216 733 1146 697 c 1,146,147
 1048 642 1048 642 929 518 c 0,148,149
 802 387 802 387 740 271 c 0,150,151
 708 211 708 211 700 177 c 1,152,153
 686 98 686 98 758 66 c 0,154,155
 797 48 797 48 941 16 c 0,156,157
 973 9 973 9 996 2 c 0,158,159
 1046 -11 1046 -11 1087 -33 c 0,160,161
 1113 -45 1113 -45 1121 -61 c 0,162,163
 1123 -69 1123 -69 1118 -85 c 0,164,165
 1107 -132 1107 -132 1101 -144 c 0,166,167
 1080 -184 1080 -184 1021 -223 c 1,168,169
 950 -266 950 -266 823 -300 c 0,170,171
 602 -359 602 -359 352 -359 c 0,172,173
 146 -358 146 -358 71 -248 c 1,174,175
 41 -201 41 -201 34 -157 c 0,176,177
 16 -51 16 -51 86 113 c 1,178,179
 114 171 114 171 132 203 c 0,180,181
 134 206 134 206 139 214 c 0,182,183
 152 233 152 233 153 241 c 1,184,185
 79 155 79 155 28 49 c 0,186,187
 -23 -58 -23 -58 -30 -123 c 0,188,189
 -39 -199 -39 -199 -28 -253 c 0,190,191
 -19 -298 -19 -298 7 -341 c 0,192,193
 136 -561 136 -561 597 -467 c 0,194,195
 661 -454 661 -454 740 -430 c 1,196,197
 947 -360 947 -360 1037 -272 c 1,198,199
 1083 -224 1083 -224 1125 -156 c 0,200,201
 1162 -95 1162 -95 1180 -43 c 0,202,203
 1194 -6 1194 -6 1192 11 c 0,204,205
 1188 47 1188 47 1133 79 c 0,206,207
 1086 107 1086 107 950 137 c 0,208,209
 920 144 920 144 901 149 c 0,210,211
 805 177 805 177 784 211 c 0,212,213
 778 223 778 223 776 235 c 0,214,215
 775 247 775 247 785 289 c 0,216,217
 792 318 792 318 804 338 c 0,218,219
 832 383 832 383 899 446 c 0,220,221
 1015 556 1015 556 1126 590 c 0,222,223
 1217 618 1217 618 1335 604 c 0,224,225
 1345 602 1345 602 1417 577 c 0,226,227
 1423 575 1423 575 1426 574 c 1,138,139
235 264 m 1,228,-1
 233 262 l 1,229,-1
 235 264 l 1,228,-1
159 248 m 1,230,-1
 157 246 l 1,231,-1
 159 248 l 1,230,-1
157 244 m 1,232,-1
 155 243 l 1,233,-1
 157 244 l 1,232,-1
214 810 m 1,234,235
 155 848 155 848 184 939 c 0,236,237
 197 979 197 979 223 1012 c 0,238,239
 314 1127 314 1127 397 1151 c 0,240,241
 410 1155 410 1155 456 1155 c 0,242,243
 496 1154 496 1154 513 1146 c 0,244,245
 558 1124 558 1124 564 1068 c 0,246,247
 564 1062 564 1062 561 1049 c 0,248,249
 558 1031 558 1031 561 1023 c 0,250,251
 588 965 588 965 566 951 c 0,252,253
 554 942 554 942 506 960 c 0,254,255
 500 962 500 962 497 963 c 0,256,257
 411 977 411 977 353 930 c 1,258,259
 361 926 361 926 376 916 c 0,260,261
 415 892 415 892 441 894 c 0,262,263
 457 895 457 895 492 902 c 0,264,265
 520 907 520 907 533 909 c 1,266,267
 564 908 564 908 566 905 c 0,268,269
 567 904 567 904 563 889 c 0,270,271
 563 887 563 887 563 886 c 0,272,273
 560 865 560 865 539 813 c 1,274,275
 541 813 541 813 548 816 c 0,276,277
 575 823 575 823 577 817 c 0,278,279
 579 814 579 814 574 797 c 2,280,-1
 573 795 l 2,281,282
 569 786 569 786 560 769 c 0,283,284
 551 751 551 751 547 743 c 0,285,286
 538 725 538 725 535 723 c 0,287,288
 527 719 527 719 509 716 c 0,289,290
 499 714 499 714 496 713 c 0,291,292
 475 709 475 709 420 695 c 0,293,294
 289 662 289 662 183 623 c 1,295,-1
 196 679 l 1,296,-1
 161 666 l 1,297,-1
 163 674 l 1,298,-1
 140 666 l 1,299,-1
 142 674 l 1,300,-1
 119 666 l 1,301,-1
 136 740 l 1,302,-1
 144 769 l 1,303,-1
 166 784 l 1,304,-1
 214 810 l 1,234,235
503 1048 m 1,305,306
 500 1061 500 1061 488 1077 c 0,307,308
 467 1105 467 1105 437 1107 c 0,309,310
 393 1107 393 1107 329 1044 c 0,311,312
 323 1038 323 1038 318 1033 c 1,313,314
 324 1035 324 1035 337 1041 c 0,315,316
 360 1051 360 1051 371 1053 c 0,317,318
 415 1062 415 1062 503 1048 c 1,305,306
288 1002 m 1,319,320
 264 984 264 984 239 945 c 0,321,322
 228 929 228 929 228 923 c 0,323,324
 227 913 227 913 237 894 c 2,325,-1
 238 892 l 1,326,327
 268 846 268 846 295 830 c 1,328,-1
 276 820 l 1,329,-1
 290 807 l 1,330,-1
 271 797 l 1,331,-1
 285 784 l 1,332,-1
 194 736 l 1,333,-1
 194 735 l 1,334,335
 232 744 232 744 309 767 c 0,336,337
 367 784 367 784 395 792 c 0,338,339
 405 794 405 794 425 799 c 0,340,341
 446 803 446 803 454 805 c 0,342,343
 479 810 479 810 482 812 c 0,344,345
 487 817 487 817 503 853 c 1,346,347
 363 827 363 827 305 881 c 1,348,349
 274 914 274 914 275 940 c 0,350,351
 274 968 274 968 288 1002 c 1,319,320
EndSplineSet
AlternateSubs2: "gsub_alternate_dfl_aalt_arab_FAR_Lookup_01_Subtable_01" uniFE8A uniFE8B uniFE89 uniFE8C
Substitution2: "gsub_single_rtl_fina_arab_FAR_Lookup_01_Subtable_01" uniFE8A
Substitution2: "gsub_single_rtl_init_arab_FAR_Lookup_01_Subtable_01" uniFE8B
Substitution2: "gsub_single_rtl_medi_arab_FAR_Lookup_01_Subtable_01" uniFE8C
EndChar

StartChar: uniFE8A
Encoding: 65162 65162 346
Width: 1275
VWidth: 1639
GlyphClass: 2
Flags: W
LayerCount: 2
Fore
SplineSet
968 -387 m 1,0,1
 955 -383 955 -383 810 -357 c 0,2,3
 746 -345 746 -345 707 -328 c 0,4,5
 703 -326 703 -326 657 -292 c 0,6,7
 655 -291 655 -291 654 -290 c 0,8,9
 647 -286 647 -286 634 -279 c 0,10,11
 597 -260 597 -260 586 -241 c 0,12,13
 573 -216 573 -216 586 -164 c 0,14,15
 606 -80 606 -80 703 25 c 1,16,17
 781 105 781 105 847 143 c 1,18,19
 972 206 972 206 1167 207 c 2,20,-1
 1352 207 l 1,21,-1
 1341 161 l 1,22,23
 1317 161 1317 161 1269 162 c 0,24,25
 1072 166 1072 166 973 136 c 0,26,27
 927 121 927 121 886 100 c 0,28,29
 835 71 835 71 780 21 c 0,30,31
 723 -31 723 -31 676 -90 c 1,32,33
 636 -147 636 -147 633 -159 c 0,34,35
 632 -163 632 -163 631 -166 c 0,36,37
 628 -210 628 -210 695 -239 c 0,38,39
 741 -259 741 -259 889 -285 c 0,40,41
 930 -292 930 -292 956 -298 c 0,42,43
 1014 -311 1014 -311 1029 -331 c 0,44,45
 1035 -340 1035 -340 1029 -364 c 0,46,47
 1020 -413 1020 -413 1001 -433 c 0,48,49
 967 -465 967 -465 880 -490 c 0,50,51
 775 -519 775 -519 566 -533 c 0,52,53
 503 -538 503 -538 442 -538 c 0,54,55
 243 -538 243 -538 164 -516 c 0,56,57
 34 -477 34 -477 1 -367 c 0,58,59
 -9 -333 -9 -333 -8 -290 c 0,60,61
 0 -172 0 -172 64 -41 c 0,62,63
 71 -26 71 -26 87 2 c 0,64,65
 104 31 104 31 111 46 c 1,66,-1
 110 46 l 1,67,68
 108 42 108 42 52 -36 c 0,69,70
 43 -49 43 -49 37 -59 c 0,71,72
 -113 -305 -113 -305 -69 -472 c 0,73,74
 -25 -634 -25 -634 221 -668 c 0,75,76
 261 -673 261 -673 313 -677 c 0,77,78
 374 -682 374 -682 445 -674 c 1,79,80
 546 -665 546 -665 564 -663 c 0,81,82
 663 -649 663 -649 740 -625 c 1,83,84
 897 -571 897 -571 979 -495 c 1,85,86
 1012 -463 1012 -463 1041 -420 c 0,87,88
 1069 -375 1069 -375 1090 -318 c 0,89,90
 1102 -284 1102 -284 1101 -277 c 0,91,92
 1096 -253 1096 -253 1042 -228 c 0,93,94
 1000 -210 1000 -210 847 -175 c 0,95,96
 841 -174 841 -174 837 -172 c 0,97,98
 773 -155 773 -155 744 -144 c 0,99,100
 717 -132 717 -132 715 -128 c 0,101,102
 715 -124 715 -124 725 -85 c 0,103,104
 732 -60 732 -60 737 -52 c 0,105,106
 777 2 777 2 892 18 c 0,107,108
 928 23 928 23 1055 23 c 2,109,-1
 1309 23 l 1,110,-1
 1289 -66 l 1,111,-1
 1091 -66 l 2,112,113
 938 -66 938 -66 851 -99 c 0,114,115
 839 -104 839 -104 829 -108 c 1,116,-1
 829 -110 l 1,117,118
 846 -112 846 -112 918 -133 c 0,119,120
 934 -137 934 -137 966 -144 c 0,121,122
 1028 -158 1028 -158 1058 -167 c 0,123,124
 1127 -193 1127 -193 1142 -208 c 0,125,126
 1146 -212 1146 -212 1148 -215 c 0,127,128
 1158 -228 1158 -228 1149 -261 c 0,129,130
 1145 -277 1145 -277 1146 -287 c 0,131,132
 1146 -292 1146 -292 1161 -307 c 0,133,134
 1167 -316 1167 -316 1168 -325 c 0,135,136
 1166 -347 1166 -347 1143 -413 c 1,137,138
 1081 -567 1081 -567 958 -641 c 0,139,140
 791 -742 791 -742 515 -761 c 0,141,142
 479 -763 479 -763 427 -766 c 0,143,144
 207 -775 207 -775 88 -720 c 0,145,146
 70 -712 70 -712 12 -674 c 0,147,148
 -75 -617 -75 -617 -102 -569 c 0,149,150
 -106 -561 -106 -561 -110 -554 c 0,151,152
 -147 -474 -147 -474 -124 -339 c 0,153,154
 -101 -202 -101 -202 -31 -75 c 0,155,156
 58 88 58 88 128 144 c 1,157,158
 149 157 149 157 187 156 c 0,159,160
 207 156 207 156 209 153 c 0,161,162
 210 150 210 150 210 149 c 0,163,164
 211 143 211 143 206 125 c 1,165,166
 198 83 198 83 184 57 c 1,167,168
 212 77 212 77 221 63 c 0,169,170
 223 56 223 56 221 46 c 0,171,172
 214 22 214 22 166 -45 c 0,173,174
 156 -59 156 -59 150 -69 c 0,175,176
 103 -151 103 -151 75 -244 c 1,177,178
 55 -303 55 -303 58 -331 c 1,179,180
 65 -365 65 -365 107 -407 c 0,181,182
 208 -503 208 -503 460 -490 c 1,183,184
 625 -484 625 -484 728 -467 c 0,185,186
 868 -445 868 -445 924 -416 c 0,187,188
 949 -403 949 -403 968 -387 c 1,0,1
184 57 m 1,189,-1
 182 56 l 1,190,-1
 184 57 l 1,189,-1
115 51 m 1,191,-1
 113 49 l 1,192,-1
 115 51 l 1,191,-1
113 48 m 1,193,-1
 111 46 l 1,194,-1
 113 48 l 1,193,-1
133 476 m 1,195,196
 74 514 74 514 102 605 c 0,197,198
 115 645 115 645 141 677 c 0,199,200
 232 792 232 792 315 817 c 0,201,202
 328 821 328 821 374 820 c 0,203,204
 414 819 414 819 431 812 c 0,205,206
 476 790 476 790 482 733 c 0,207,208
 482 727 482 727 480 714 c 0,209,210
 477 696 477 696 479 689 c 0,211,212
 506 631 506 631 484 617 c 0,213,214
 472 608 472 608 425 625 c 0,215,216
 419 627 419 627 415 628 c 0,217,218
 329 642 329 642 272 595 c 1,219,220
 280 591 280 591 294 582 c 0,221,222
 333 558 333 558 359 559 c 0,223,224
 375 560 375 560 411 567 c 0,225,226
 439 572 439 572 451 574 c 1,227,228
 482 573 482 573 484 571 c 0,229,230
 485 570 485 570 481 554 c 0,231,232
 481 552 481 552 481 551 c 0,233,234
 478 530 478 530 457 479 c 1,235,236
 459 479 459 479 466 481 c 0,237,238
 493 488 493 488 496 482 c 0,239,240
 498 479 498 479 492 463 c 2,241,-1
 491 461 l 2,242,243
 487 452 487 452 478 434.5 c 128,-1,244
 469 417 469 417 465 408 c 0,245,246
 456 390 456 390 453 389 c 0,247,248
 445 385 445 385 427 382 c 0,249,250
 417 380 417 380 414 379 c 0,251,252
 393 375 393 375 338 361 c 0,253,254
 207 328 207 328 102 289 c 1,255,-1
 115 344 l 1,256,-1
 79 331 l 1,257,-1
 81 339 l 1,258,-1
 58 331 l 1,259,-1
 60 339 l 1,260,-1
 37 331 l 1,261,-1
 54 405 l 1,262,-1
 62 435 l 1,263,-1
 84 449 l 1,264,-1
 133 476 l 1,195,196
421 713 m 1,265,266
 418 726 418 726 406 743 c 0,267,268
 385 771 385 771 355 772 c 0,269,270
 311 772 311 772 247 710 c 0,271,272
 241 704 241 704 236 699 c 1,273,274
 242 701 242 701 255 706 c 0,275,276
 278 716 278 716 289 718 c 0,277,278
 333 727 333 727 421 713 c 1,265,266
206 667 m 1,279,280
 182 649 182 649 158 610 c 0,281,282
 147 594 147 594 147 589 c 0,283,284
 146 579 146 579 155 559 c 2,285,-1
 156 558 l 1,286,287
 186 512 186 512 213 495 c 1,288,-1
 194 485 l 1,289,-1
 208 472 l 1,290,-1
 189 462 l 1,291,-1
 203 449 l 1,292,-1
 113 402 l 1,293,-1
 112 400 l 1,294,295
 150 409 150 409 227 433 c 0,296,297
 285 450 285 450 313 458 c 0,298,299
 323 460 323 460 343 464 c 0,300,301
 364 468 364 468 372 471 c 0,302,303
 397 476 397 476 400 477 c 0,304,305
 405 482 405 482 422 518 c 1,306,307
 282 492 282 492 224 546 c 1,308,309
 193 579 193 579 193 605 c 0,310,311
 192 633 192 633 206 667 c 1,279,280
EndSplineSet
EndChar

StartChar: uniFE8B
Encoding: 65163 65163 347
Width: 554
VWidth: 1639
GlyphClass: 2
Flags: W
LayerCount: 2
Fore
SplineSet
274 904 m 1,0,1
 239 945 239 945 236 968 c 0,2,3
 236 971 236 971 235 973 c 0,4,5
 229 1049 229 1049 306 1133 c 0,6,7
 391 1226 391 1226 455 1246 c 0,8,9
 471 1249 471 1249 517 1250 c 0,10,11
 556 1249 556 1249 573 1241 c 0,12,13
 618 1218 618 1218 624 1164 c 0,14,15
 625 1158 625 1158 622 1146 c 0,16,17
 619 1129 619 1129 620 1122 c 0,18,19
 646 1065 646 1065 627 1046 c 1,20,21
 618 1041 618 1041 606 1045 c 0,22,23
 598 1046 598 1046 584 1051 c 0,24,25
 566 1057 566 1057 557 1058 c 0,26,27
 472 1073 472 1073 413 1025 c 1,28,29
 421 1021 421 1021 437 1011 c 0,30,31
 477 987 477 987 506 989 c 0,32,33
 520 991 520 991 548 995 c 0,34,35
 577 1000 577 1000 591 1002 c 0,36,37
 620 1007 620 1007 626 1002 c 0,38,39
 628 998 628 998 623 982 c 1,40,41
 619 952 619 952 598 907 c 1,42,43
 632 917 632 917 638 913 c 0,44,45
 643 908 643 908 633 891 c 2,46,-1
 633 891 l 1,47,-1
 608 836 l 2,48,49
 601 820 601 820 596 818 c 0,50,51
 591 815 591 815 585 813.5 c 128,-1,52
 579 812 579 812 569 811 c 2,53,-1
 559 810 l 1,54,55
 508 798 508 798 473 789 c 0,56,57
 378 764 378 764 245 718 c 1,58,-1
 258 772 l 1,59,-1
 223 761 l 1,60,-1
 225 769 l 1,61,-1
 201 761 l 1,62,-1
 203 769 l 1,63,-1
 180 761 l 1,64,-1
 197 835 l 1,65,-1
 206 866 l 1,66,-1
 225 877 l 1,67,-1
 274 904 l 1,0,1
564 1143 m 1,68,69
 561 1156 561 1156 550 1173 c 0,70,71
 529 1201 529 1201 497 1202 c 1,72,73
 451 1200 451 1200 389 1138 c 0,74,75
 383 1132 383 1132 379 1128 c 1,76,77
 472 1169 472 1169 564 1143 c 1,68,69
348 1097 m 1,78,79
 333 1086 333 1086 302 1043 c 0,80,81
 291 1026 291 1026 288 1018 c 1,82,83
 288 1010 288 1010 297 991 c 2,84,-1
 298 989 l 2,85,86
 321 944 321 944 356 927 c 1,87,-1
 355 923 l 1,88,-1
 336 915 l 1,89,-1
 336 913 l 1,90,-1
 350 904 l 1,91,-1
 350 900 l 1,92,-1
 331 892 l 1,93,-1
 331 891 l 1,94,-1
 345 881 l 1,95,-1
 344 877 l 1,96,-1
 256 831 l 1,97,-1
 256 830 l 1,98,99
 289 837 289 837 354 858 c 0,100,101
 420 879 420 879 453 886 c 0,102,103
 463 888 463 888 484 893 c 0,104,105
 505 898 505 898 514 900 c 0,106,107
 542 906 542 906 543 907 c 0,108,109
 550 913 550 913 563 946 c 1,110,111
 455 941 455 941 435 945 c 0,112,113
 388 953 388 953 360 981 c 1,114,115
 339 1006 339 1006 335 1028 c 0,116,117
 334 1042 334 1042 348 1097 c 1,78,79
254 830 m 1,118,-1
 252 828 l 1,119,-1
 254 830 l 1,118,-1
19 207 m 1,120,121
 175 207 175 207 222 215 c 0,122,123
 238 218 238 218 252 221 c 0,124,125
 321 244 321 244 331 272 c 0,126,127
 333 279 333 279 333 286.5 c 128,-1,128
 333 294 333 294 329 306 c 2,129,-1
 325 318 l 1,130,131
 317 353 317 353 296 399 c 0,132,133
 279 437 279 437 278 440 c 0,134,135
 278 443 278 443 284 458 c 0,136,137
 285 463 285 463 286 473 c 0,138,139
 287 485 287 485 288 490 c 0,140,141
 290 500 290 500 316 536 c 0,142,143
 325 550 325 550 342 579 c 0,144,145
 360 608 360 608 368 622 c 0,146,147
 388 657 388 657 396 664 c 1,148,149
 404 669 404 669 413 659 c 1,150,151
 426 673 426 673 433 659 c 1,152,-1
 434 659 l 1,153,154
 447 671 447 671 457 658 c 1,155,156
 465 642 465 642 475 610 c 0,157,158
 489 566 489 566 500 474 c 1,159,160
 510 417 510 417 511 397 c 0,161,162
 519 229 519 229 439 96 c 1,163,164
 377 -3 377 -3 283 -41 c 1,165,166
 215 -66 215 -66 102 -66 c 2,167,-1
 -44 -66 l 1,168,-1
 -24 23 l 1,169,170
 118 23 118 23 148 27 c 0,171,172
 216 37 216 37 269 67 c 0,173,174
 412 150 412 150 440 337 c 0,175,176
 452 420 452 420 438 497 c 0,177,178
 425 562 425 562 410 592 c 1,179,180
 405 583 405 583 358 507 c 0,181,182
 357 505 357 505 352 499 c 0,183,184
 340 480 340 480 340 474 c 0,185,186
 339 463 339 463 358 425 c 0,187,188
 361 418 361 418 363 415 c 0,189,190
 392 341 392 341 380 279 c 0,191,192
 375 245 375 245 367 228 c 1,193,194
 343 187 343 187 267 172 c 0,195,196
 200 159 200 159 62 160 c 0,197,198
 26 161 26 161 8 161 c 1,199,-1
 19 207 l 1,120,121
EndSplineSet
EndChar

StartChar: uniFE8C
Encoding: 65164 65164 348
Width: 738
VWidth: 1639
GlyphClass: 2
Flags: W
LayerCount: 2
Fore
SplineSet
361 707 m 1,0,1
 324 753 324 753 322 779 c 0,2,3
 321 790 321 790 328 818 c 0,4,5
 344 884 344 884 398 943 c 1,6,7
 484 1032 484 1032 543 1050 c 0,8,9
 561 1055 561 1055 603 1055 c 0,10,11
 636 1054 636 1054 655 1046 c 0,12,13
 702 1029 702 1029 710 970 c 0,14,15
 710 967 710 967 711 966 c 0,16,17
 711 961 711 961 708 950 c 0,18,19
 704 933 704 933 706 927 c 0,20,21
 707 924 707 924 712 914 c 0,22,23
 733 869 733 869 715 851 c 0,24,25
 704 840 704 840 663 856 c 0,26,27
 655 859 655 859 651 859 c 0,28,29
 552 880 552 880 501 828 c 1,30,31
 507 825 507 825 517 817 c 0,32,33
 528 809 528 809 534 805 c 0,34,35
 576 787 576 787 648 804 c 0,36,37
 657 806 657 806 697 805 c 1,38,39
 710 808 710 808 713 804 c 0,40,41
 714 801 714 801 712 792 c 0,42,43
 710 785 710 785 710 782 c 0,44,45
 708 772 708 772 686 712 c 1,46,47
 689 712 689 712 696 714 c 0,48,49
 719 720 719 720 724 717 c 0,50,51
 729 712 729 712 719 695 c 2,52,-1
 718 694 l 1,53,54
 712 679 712 679 694 641 c 0,55,56
 686 624 686 624 683 622 c 0,57,58
 677 619 677 619 663 616 c 0,59,60
 653 614 653 614 649 613 c 0,61,62
 626 609 626 609 569 595 c 1,63,64
 483 572 483 572 425 554 c 2,65,-1
 331 523 l 1,66,-1
 344 577 l 1,67,-1
 309 566 l 1,68,-1
 310 572 l 1,69,-1
 288 566 l 1,70,-1
 289 572 l 1,71,-1
 266 566 l 1,72,-1
 283 640 l 1,73,-1
 292 669 l 1,74,-1
 311 681 l 1,75,-1
 361 707 l 1,0,1
650 946 m 1,76,77
 647 959 647 959 635 976 c 1,78,79
 610 1005 610 1005 583 1005 c 1,80,81
 537 1003 537 1003 474 941 c 0,82,83
 468 935 468 935 465 932 c 1,84,85
 545 970 545 970 650 946 c 1,76,77
435 902 m 1,86,-1
 433 900 l 1,87,-1
 435 902 l 1,86,-1
433 899 m 1,88,89
 418 888 418 888 387 845 c 0,90,91
 376 829 376 829 376 822 c 0,92,93
 375 819 375 819 376 814 c 128,-1,94
 377 809 377 809 378 806.5 c 128,-1,95
 379 804 379 804 382 798 c 2,96,-1
 386 792 l 1,97,98
 405 750 405 750 443 728 c 1,99,-1
 423 718 l 1,100,-1
 423 717 l 1,101,-1
 437 705 l 1,102,-1
 418 695 l 1,103,-1
 418 694 l 1,104,-1
 432 682 l 1,105,-1
 342 635 l 1,106,-1
 341 633 l 1,107,108
 376 641 376 641 448 663 c 0,109,110
 510 682 510 682 541 690 c 0,111,112
 551 692 551 692 570 697 c 0,113,114
 591 701 591 701 600 704 c 0,115,116
 628 710 628 710 629 710 c 0,117,118
 641 720 641 720 649 751 c 1,119,120
 506 723 506 723 447 781 c 0,121,122
 427 802 427 802 422 830 c 0,123,124
 421 838 421 838 432 892 c 0,125,126
 433 897 433 897 433 899 c 1,88,89
19 207 m 1,127,128
 34 207 34 207 64 206 c 0,129,130
 209 202 209 202 277 234 c 0,131,132
 318 254 318 254 349 284 c 1,133,134
 384 321 384 321 413 395 c 1,135,136
 430 444 430 444 450 456 c 1,137,138
 451 459 451 459 461 458 c 2,139,-1
 471 456 l 1,140,141
 502 460 502 460 511 456 c 1,142,143
 528 443 528 443 515 369 c 1,144,145
 537 364 537 364 530 312 c 0,146,147
 528 292 528 292 528 285 c 0,148,149
 530 267 530 267 558 244 c 2,150,-1
 559 243 l 2,151,152
 609 201 609 201 750 205 c 0,153,154
 803 207 803 207 815 207 c 1,155,-1
 804 161 l 1,156,-1
 717 161 l 2,157,158
 589 161 589 161 549 174 c 0,159,160
 490 195 490 195 470 244 c 0,161,162
 460 271 460 271 465 350 c 0,163,164
 466 376 466 376 466 392 c 1,165,166
 459 383 459 383 436 326 c 0,167,168
 435 323 435 323 434 321 c 0,169,170
 415 274 415 274 387 243 c 0,171,172
 315 164 315 164 168 161 c 0,173,174
 152 161 152 161 120 161 c 0,175,176
 103 161 103 161 95 161 c 2,177,-1
 8 161 l 1,178,-1
 19 207 l 1,127,128
390 166 m 1,179,-1
 398 148 l 1,180,-1
 412 166 l 1,181,-1
 420 148 l 1,182,-1
 433 166 l 1,183,184
 435 162 435 162 448 131 c 1,185,186
 464 99 464 99 485 80 c 0,187,188
 548 22 548 22 701 22 c 0,189,190
 713 22 713 22 737 23 c 0,191,192
 760 23 760 23 772 23 c 1,193,-1
 752 -66 l 1,194,195
 616 -66 616 -66 564 -49 c 0,196,197
 541 -41 541 -41 489 -3 c 2,198,-1
 418 46 l 1,199,200
 386 0 386 0 297 -34 c 0,201,202
 203 -70 203 -70 27 -67 c 0,203,204
 -26 -66 -26 -66 -44 -66 c 1,205,-1
 -24 23 l 1,206,207
 136 23 136 23 202 41 c 0,208,209
 276 62 276 62 333 107 c 0,210,211
 370 138 370 138 390 166 c 1,179,-1
EndSplineSet
EndChar

StartChar: alefarabic
Encoding: 1575 1575 349
AltUni2: 00fe8d.ffffffff.0
Width: 477
VWidth: 1639
GlyphClass: 2
Flags: HW
AnchorPoint: "GposMark2BaseAnchorClassErabAbove_01_02" 414.5 1690 basechar 0
AnchorPoint: "GposMark2BaseAnchorClassErabBelow_01_02" 414.5 -243 basechar 0
LayerCount: 2
Fore
SplineSet
197 -38 m 1,0,1
 182 -59 182 -59 177 -48 c 0,2,3
 176 -45 176 -45 176 -43 c 0,4,5
 177 -25 177 -25 185 8 c 0,6,7
 194 48 194 48 230 238 c 0,8,9
 297 595 297 595 370 1105 c 0,10,11
 375 1139 375 1139 385 1207 c 0,12,13
 395 1276 395 1276 400 1309 c 0,14,15
 402 1319 402 1319 405 1337 c 0,16,17
 409 1356 409 1356 410 1366 c 2,18,-1
 418 1399 l 1,19,20
 422 1404 422 1404 448 1425 c 0,21,22
 487 1458 487 1458 525 1487 c 0,23,24
 531 1492 531 1492 543 1503 c 0,25,26
 578 1533 578 1533 595 1540 c 1,27,-1
 595 1528 l 1,28,-1
 616 1540 l 1,29,-1
 617 1528 l 1,30,-1
 638 1540 l 1,31,32
 642 1523 642 1523 626 1454 c 0,33,34
 623 1442 623 1442 623 1435 c 1,35,-1
 649 1451 l 1,36,37
 653 1435 653 1435 638 1369 c 0,38,39
 637 1362 637 1362 635 1358 c 0,40,41
 627 1313 627 1313 608 1224 c 0,42,43
 593 1157 593 1157 587 1123 c 0,44,45
 582 1093 582 1093 506 751 c 0,46,47
 504 741 504 741 502 733 c 0,48,49
 432 418 432 418 396 261 c 0,50,51
 359 100 359 100 340 53 c 0,52,53
 325 16 325 16 308 -15 c 1,54,55
 280 -59 280 -59 268 -74 c 0,56,57
 256 -90 256 -90 250 -93 c 1,58,59
 241 -92 241 -92 243 -79 c 0,60,61
 244 -59 244 -59 253 -23 c 1,62,-1
 251 -23 l 1,63,64
 238 -49 238 -49 227 -49 c 1,65,66
 221 -46 221 -46 219 -38 c 1,67,68
 201 -58 201 -58 197 -38 c 1,0,1
583 1463 m 1,69,70
 567 1452 567 1452 490 1387 c 0,71,72
 487 1385 487 1385 480 1380 c 0,73,74
 460 1364 460 1364 455 1356 c 0,75,76
 450 1348 450 1348 449 1322 c 1,77,-1
 440 1263 l 2,78,79
 407 1043 407 1043 406 1038 c 0,80,81
 372 803 372 803 323 512 c 1,82,83
 273 203 273 203 237 49 c 1,84,-1
 239 49 l 1,85,86
 282 127 282 127 295 162 c 1,87,88
 306 194 306 194 329 297 c 0,89,90
 338 337 338 337 356 417 c 0,91,92
 374 497 374 497 383 536 c 0,93,94
 477 945 477 945 520 1150 c 0,95,96
 527 1185 527 1185 541 1255 c 0,97,98
 567 1393 567 1393 583 1463 c 1,69,70
EndSplineSet
AlternateSubs2: "gsub_alternate_dfl_aalt_arab_FAR_Lookup_01_Subtable_01" uniFE8E alefarabic
Substitution2: "gsub_single_rtl_fina_arab_FAR_Lookup_01_Subtable_01" uniFE8E
EndChar

StartChar: uniFE8E
Encoding: 65166 65166 350
Width: 497
VWidth: 1639
GlyphClass: 2
Flags: HW
AnchorPoint: "GposMark2BaseAnchorClassErabAbove_01_02" 403.5 1667 basechar 0
AnchorPoint: "GposMark2BaseAnchorClassErabBelow_01_02" 403.5 -216 basechar 0
LayerCount: 2
Fore
SplineSet
512 -66 m 1,0,1
 405 -66 405 -66 370 -52 c 0,2,3
 366 -50 366 -50 363 -49 c 0,4,5
 359 -47 359 -47 316 -17 c 0,6,7
 310 -13 310 -13 305 -10 c 0,8,9
 299 -6 299 -6 286 0 c 0,10,11
 272 6 272 6 267 10 c 0,12,13
 224 43 224 43 204 107 c 1,14,15
 187 175 187 175 202 290 c 0,16,17
 214 375 214 375 264 581 c 0,18,19
 346 921 346 921 404 1330 c 0,20,21
 412 1382 412 1382 419 1394 c 0,22,23
 423 1400 423 1400 444 1417 c 0,24,25
 454 1426 454 1426 474 1444 c 0,26,27
 495 1463 495 1463 504 1471 c 0,28,29
 507 1474 507 1474 514 1482 c 0,30,31
 550 1516 550 1516 563 1504 c 1,32,33
 576 1513 576 1513 583 1504 c 1,34,-1
 584 1504 l 1,35,36
 602 1517 602 1517 604 1497 c 1,37,38
 604 1453 604 1453 596 1417 c 1,39,40
 620 1430 620 1430 616 1384 c 0,41,42
 615 1378 615 1378 610 1346 c 0,43,44
 591 1192 591 1192 569 1087 c 0,45,46
 554 1021 554 1021 525 889 c 0,47,48
 466 624 466 624 436 492 c 2,49,-1
 399 333 l 2,50,51
 387 279 387 279 388 271 c 0,52,53
 389 267 389 267 390 266 c 0,54,55
 411 206 411 206 533 206 c 0,56,57
 540 206 540 206 553 206 c 0,58,59
 568 206 568 206 575 207 c 1,60,-1
 564 161 l 1,61,62
 552 161 552 161 525 160 c 0,63,64
 403 156 403 156 362 187 c 0,65,66
 343 202 343 202 333 223 c 0,67,68
 311 273 311 273 336 382 c 2,69,-1
 381 579 l 2,70,71
 481 1012 481 1012 511 1168 c 0,72,73
 523 1233 523 1233 540 1346 c 0,74,75
 542 1359 542 1359 544 1384 c 0,76,77
 547 1421 547 1421 551 1438 c 1,78,79
 539 1427 539 1427 515 1406 c 0,80,81
 490 1384 490 1384 480 1374 c 0,82,83
 477 1371 477 1371 471 1366 c 0,84,85
 459 1355 459 1355 456 1350 c 0,86,87
 456 1348 456 1348 454 1345 c 128,-1,88
 452 1342 452 1342 451.5 1339.5 c 128,-1,89
 451 1337 451 1337 451 1332.5 c 128,-1,90
 451 1328 451 1328 450.5 1326.5 c 128,-1,91
 450 1325 450 1325 450 1320 c 2,92,-1
 449 1315 l 2,93,94
 447 1302 447 1302 443 1277 c 0,95,96
 439 1251 439 1251 438 1238 c 0,97,98
 432 1204 432 1204 421 1138 c 0,99,100
 400 1009 400 1009 388 945 c 0,101,102
 375 876 375 876 299 544 c 0,103,104
 258 365 258 365 252 310 c 0,105,106
 233 118 233 118 323 56 c 0,107,108
 374 22 374 22 499 23 c 0,109,110
 524 23 524 23 532 23 c 1,111,-1
 512 -66 l 1,0,1
EndSplineSet
EndChar

StartChar: afii57416
Encoding: 1576 1576 351
AltUni2: 00fe8f.ffffffff.0
Width: 1642
VWidth: 1639
GlyphClass: 2
Flags: HW
AnchorPoint: "GposMark2BaseAnchorClassErabAbove_01_02" 812 832 basechar 0
AnchorPoint: "GposMark2BaseAnchorClassErabBelow_01_02" 812 -704 basechar 0
LayerCount: 2
Fore
SplineSet
288 512 m 1,0,1
 323 536 323 536 326 513 c 0,2,3
 326 509 326 509 326 505 c 0,4,5
 323 488 323 488 296 448 c 1,6,7
 269 400 269 400 256 359 c 0,8,9
 246 330 246 330 247 321 c 0,10,11
 253 304 253 304 282 277 c 0,12,13
 292 269 292 269 322 251 c 1,14,15
 409 207 409 207 614 190 c 2,16,-1
 616 190 l 1,17,18
 835 175 835 175 1114 213 c 0,19,20
 1243 229 1243 229 1320 259 c 0,21,22
 1378 282 1378 282 1392 302 c 1,23,24
 1396 312 1396 312 1386 346 c 0,25,26
 1375 377 1375 377 1352 431 c 0,27,28
 1339 459 1339 459 1339 466 c 0,29,30
 1340 475 1340 475 1350 500 c 0,31,32
 1350 502 1350 502 1349 507 c 0,33,34
 1349 513 1349 513 1350 515 c 0,35,36
 1352 518 1352 518 1373 546 c 0,37,38
 1384 562 1384 562 1431 628 c 0,39,40
 1457 666 1457 666 1463 670 c 0,41,42
 1474 675 1474 675 1481 667 c 1,43,44
 1494 677 1494 677 1501 667 c 1,45,-1
 1503 667 l 1,46,47
 1519 682 1519 682 1530 650 c 0,48,49
 1531 646 1531 646 1532 645 c 0,50,51
 1553 583 1553 583 1561 518 c 0,52,53
 1576 390 l 0,54,55
 1577 373 1577 373 1576 359 c 0,56,57
 1567 205 1567 205 1473 99 c 0,58,59
 1451 75 1451 75 1427 57 c 0,60,61
 1384 27 1384 27 1304 -2 c 1,62,63
 1216 -31 1216 -31 1093 -51 c 0,64,65
 819 -99 819 -99 589 -87 c 0,66,67
 379 -77 379 -77 277 -31 c 0,68,69
 266 -26 266 -26 196 20 c 1,70,71
 95 82 95 82 73 154 c 0,72,73
 69 168 69 168 67 182 c 0,74,75
 47 319 47 319 140 477 c 0,76,77
 153 498 153 498 165 517 c 0,78,79
 213 587 213 587 241 605 c 0,80,81
 250 611 250 611 269 610 c 0,82,83
 272 610 272 610 281 611 c 0,84,85
 306 613 306 613 312 608 c 1,86,87
 318 600 318 600 309 579 c 1,88,89
 298 530 298 530 288 512 c 1,0,1
1478 602 m 1,90,91
 1467 592 1467 592 1427 531 c 0,92,93
 1423 525 1423 525 1420 522 c 0,94,95
 1401 496 1401 496 1401 490 c 0,96,97
 1402 480 1402 480 1420 443 c 1,98,99
 1452 363 1452 363 1446 319 c 0,100,101
 1445 315 1445 315 1445 312 c 0,102,103
 1435 259 1435 259 1400 236 c 0,104,105
 1397 234 1397 234 1396 233 c 0,106,107
 1358 212 1358 212 1299 197 c 0,108,109
 1234 179 1234 179 1110 162 c 0,110,111
 1105 161 1105 161 943 148 c 0,112,113
 931 147 931 147 922 146 c 0,114,115
 874 141 874 141 701 141 c 0,116,117
 467 141 467 141 353 174 c 0,118,119
 208 217 208 217 182 300 c 1,120,121
 167 367 167 367 226 507 c 1,122,-1
 224 507 l 1,123,124
 147 411 147 411 123 328 c 0,125,126
 90 205 90 205 178 114 c 0,127,128
 200 92 200 92 226 77 c 0,129,130
 336 12 336 12 535 3 c 0,131,132
 787 -8 787 -8 1090 48 c 1,133,134
 1293 83 1293 83 1386 157 c 0,135,136
 1416 182 1416 182 1438 210 c 0,137,138
 1529 331 1529 331 1506 490 c 0,139,140
 1502 513 1502 513 1490 555 c 0,141,142
 1481 587 1481 587 1478 602 c 1,90,91
288 512 m 1,143,-1
 286 510 l 1,144,-1
 288 512 l 1,143,-1
228 510 m 1,145,-1
 226 508 l 1,146,-1
 228 510 l 1,145,-1
661 -225 m 1,147,-1
 669 -236 l 1,148,-1
 670 -236 l 1,149,-1
 682 -225 l 1,150,-1
 684 -225 l 1,151,-1
 690 -236 l 1,152,-1
 692 -236 l 1,153,-1
 703 -225 l 1,154,-1
 705 -225 l 1,155,-1
 790 -346 l 1,156,-1
 789 -348 l 1,157,-1
 776 -358 l 1,158,-1
 776 -359 l 1,159,-1
 785 -369 l 1,160,-1
 784 -371 l 1,161,-1
 771 -380 l 1,162,-1
 771 -382 l 1,163,-1
 779 -392 l 1,164,-1
 779 -394 l 2,165,166
 776 -403 776 -403 798 -431 c 0,167,168
 800 -434 800 -434 801 -435 c 2,169,-1
 801 -436 l 1,170,-1
 698 -525 l 2,171,172
 696 -527 696 -527 691 -532 c 0,173,174
 668 -554 668 -554 661 -554 c 0,175,176
 658 -554 658 -554 656 -552.5 c 128,-1,177
 654 -551 654 -551 652 -547 c 2,178,-1
 650 -543 l 1,179,180
 629 -512 629 -512 626 -507 c 1,181,-1
 625 -507 l 1,182,183
 617 -510 617 -510 608 -507 c 0,184,185
 605 -507 605 -507 601 -509 c 0,186,187
 595 -511 595 -511 592 -510 c 0,188,189
 579 -498 579 -498 541 -438 c 0,190,191
 536 -430 536 -430 532 -425 c 0,192,193
 530 -423 530 -423 526 -417 c 0,194,195
 513 -401 513 -401 512 -394 c 0,196,197
 513 -392 513 -392 516 -387 c 0,198,199
 519 -382 519 -382 520 -380 c 0,200,201
 521 -378 521 -378 519 -375 c 0,202,203
 518 -371 518 -371 518 -369 c 0,204,205
 519 -367 519 -367 521 -363 c 0,206,207
 525 -359 525 -359 525 -356 c 0,208,209
 525 -354 525 -354 524 -351 c 0,210,211
 523 -347 523 -347 523 -344 c 0,212,213
 529 -335 529 -335 562 -310 c 1,214,-1
 661 -225 l 1,147,-1
668 -294 m 1,215,216
 654 -304 654 -304 603 -348 c 0,217,218
 583 -365 l 0,219,220
 582 -367 582 -367 582 -369 c 0,221,222
 581 -372 581 -372 586 -380 c 2,223,-1
 588 -382 l 1,224,-1
 608 -412 l 2,225,226
 609 -414 609 -414 613 -419 c 0,227,228
 627 -443 627 -443 633 -443 c 0,229,230
 636 -443 636 -443 640.5 -439.5 c 128,-1,231
 645 -436 645 -436 651 -430 c 2,232,-1
 657 -425 l 1,233,-1
 720 -371 l 1,234,-1
 720 -369 l 1,235,-1
 668 -294 l 1,215,216
EndSplineSet
AlternateSubs2: "gsub_alternate_dfl_aalt_arab_FAR_Lookup_01_Subtable_01" uniFE90 uniFE91 afii57416 uniFE92
Substitution2: "gsub_single_rtl_fina_arab_FAR_Lookup_01_Subtable_01" uniFE90
Substitution2: "gsub_single_rtl_init_arab_FAR_Lookup_01_Subtable_01" uniFE91
Substitution2: "gsub_single_rtl_medi_arab_FAR_Lookup_01_Subtable_01" uniFE92
EndChar

StartChar: uniFE90
Encoding: 65168 65168 352
Width: 1598
VWidth: 1639
GlyphClass: 2
Flags: HW
AnchorPoint: "GposMark2BaseAnchorClassErabAbove_01_02" 851.5 755 basechar 0
AnchorPoint: "GposMark2BaseAnchorClassErabBelow_01_02" 851.5 -706 basechar 0
LayerCount: 2
Fore
SplineSet
1333 98 m 1,0,1
 1195 20 1195 20 1164 7 c 0,2,3
 1157 4 1157 4 1151 2 c 0,4,5
 911 -95 911 -95 601 -95 c 0,6,7
 393 -94 393 -94 286 -52 c 0,8,9
 263 -43 263 -43 193 2 c 0,10,11
 112 55 112 55 89 95 c 0,12,13
 84 103 84 103 81 110 c 0,14,15
 29 222 29 222 100 393 c 0,16,17
 126 455 126 455 162 507 c 0,18,19
 197 558 197 558 226 587 c 1,20,21
 247 605 247 605 287 602 c 0,22,23
 307 602 307 602 309 600 c 0,24,25
 311 597 311 597 312 595 c 0,26,27
 313 589 313 589 307 569 c 1,28,29
 299 527 299 527 284 502 c 1,30,31
 311 523 311 523 322 509 c 1,32,33
 325 501 325 501 323 490 c 0,34,35
 320 480 320 480 307 460 c 0,36,37
 299 447 299 447 296 441 c 0,38,39
 243 352 243 352 243 310 c 0,40,41
 244 282 244 282 293 249 c 1,42,43
 364 198 364 198 522 182 c 0,44,45
 630 172 630 172 789 184 c 0,46,47
 1048 202 1048 202 1237 300 c 0,48,49
 1322 345 1322 345 1387 405 c 0,50,51
 1395 412 1395 412 1412 430 c 0,52,53
 1457 477 1457 477 1480 489 c 1,54,55
 1488 491 1488 491 1521 489 c 0,56,57
 1538 488 1538 488 1539 487 c 0,58,59
 1543 479 1543 479 1539 461 c 0,60,61
 1538 455 1538 455 1535 441 c 0,62,63
 1529 407 1529 407 1522 394 c 1,64,65
 1558 409 1558 409 1550 367 c 0,66,67
 1548 358 1548 358 1517 282 c 0,68,69
 1516 279 1516 279 1515 276 c 0,70,71
 1506 250 1506 250 1510 241 c 1,72,73
 1520 230 1520 230 1533 221.5 c 128,-1,74
 1546 213 1546 213 1569 210.5 c 128,-1,75
 1592 208 1592 208 1601 206.5 c 128,-1,76
 1610 205 1610 205 1642 206 c 2,77,-1
 1674 207 l 1,78,-1
 1664 161 l 1,79,-1
 1616 161 l 2,80,81
 1502 161 1502 161 1468 185 c 1,82,83
 1439 208 1439 208 1437 248 c 0,84,85
 1436 284 1436 284 1468 376 c 0,86,87
 1478 403 1478 403 1482 420 c 1,88,89
 1469 409 1469 409 1447 385 c 0,90,91
 1427 365 1427 365 1417 356 c 0,92,93
 1363 306 1363 306 1291 266 c 0,94,95
 1158 191 1158 191 981 159 c 1,96,97
 753 116 753 116 498 134 c 0,98,99
 327 148 327 148 252 195 c 0,100,101
 183 239 183 239 175 308 c 1,102,103
 171 377 171 377 224 500 c 1,104,-1
 223 500 l 1,105,106
 214 486 214 486 195 458 c 0,107,108
 136 370 136 370 121 318 c 0,109,110
 115 297 115 297 115 251 c 0,111,112
 114 65 114 65 352 13 c 0,113,114
 379 7 379 7 407 3 c 0,115,116
 555 -17 555 -17 744 5 c 0,117,118
 952 27 952 27 1126 103 c 1,119,120
 1204 139 1204 139 1270 182 c 0,121,122
 1280 189 1280 189 1300 204 c 0,123,124
 1331 227 1331 227 1345 236 c 1,125,-1
 1343 218 l 1,126,-1
 1367 236 l 1,127,-1
 1364 218 l 1,128,-1
 1388 236 l 1,129,130
 1383 212 1383 212 1382 171 c 1,131,132
 1385 144 1385 144 1394 121 c 0,133,134
 1433 29 1433 29 1587 24 c 0,135,136
 1606 23 1606 23 1632 23 c 1,137,-1
 1611 -66 l 1,138,139
 1522 -65 1522 -65 1476 -43 c 0,140,141
 1466 -38 1466 -38 1450 -23 c 0,142,143
 1435 -11 1435 -11 1427 -7 c 0,144,145
 1339 43 1339 43 1333 98 c 1,0,1
226 502 m 1,146,-1
 225 502 l 1,147,-1
 226 502 l 1,146,-1
1484 421 m 1,148,-1
 1482 420 l 1,149,-1
 1484 421 l 1,148,-1
630 -225 m 1,150,-1
 638 -236 l 1,151,-1
 640 -236 l 1,152,-1
 652 -225 l 1,153,-1
 653 -225 l 1,154,-1
 660 -236 l 1,155,-1
 661 -236 l 1,156,-1
 673 -225 l 1,157,-1
 675 -225 l 1,158,-1
 760 -346 l 1,159,-1
 759 -348 l 1,160,-1
 746 -358 l 1,161,-1
 746 -359 l 1,162,-1
 754 -369 l 1,163,-1
 754 -371 l 1,164,-1
 741 -380 l 1,165,-1
 741 -382 l 1,166,-1
 749 -392 l 1,167,-1
 749 -394 l 2,168,169
 746 -403 746 -403 768 -431 c 0,170,171
 770 -434 770 -434 771 -435 c 2,172,-1
 771 -436 l 1,173,-1
 632 -556 l 1,174,-1
 630 -556 l 1,175,-1
 605 -520 l 1,176,177
 595 -510 595 -510 588 -513 c 1,178,-1
 587 -513 l 1,179,-1
 580 -502 l 1,180,-1
 579 -502 l 1,181,-1
 567 -513 l 1,182,-1
 565 -513 l 1,183,-1
 481 -392 l 1,184,-1
 481 -390 l 1,185,-1
 494 -380 l 1,186,-1
 494 -379 l 1,187,-1
 486 -369 l 1,188,-1
 486 -367 l 1,189,-1
 499 -358 l 1,190,-1
 500 -356 l 1,191,-1
 491 -346 l 1,192,-1
 491 -344 l 1,193,-1
 630 -225 l 1,150,-1
637 -294 m 1,194,-1
 550 -367 l 1,195,-1
 550 -369 l 1,196,-1
 603 -444 l 1,197,-1
 604 -444 l 1,198,-1
 690 -371 l 1,199,-1
 690 -369 l 1,200,-1
 637 -294 l 1,194,-1
EndSplineSet
EndChar

StartChar: uniFE91
Encoding: 65169 65169 353
Width: 584
VWidth: 1639
GlyphClass: 2
Flags: HW
AnchorPoint: "GposMark2BaseAnchorClassErabAbove_01_02" 237.5 823 basechar 0
AnchorPoint: "GposMark2BaseAnchorClassErabBelow_01_02" 237.5 -693 basechar 0
LayerCount: 2
Fore
SplineSet
19 207 m 1,0,1
 175 207 175 207 222 215 c 0,2,3
 238 218 238 218 252 221 c 0,4,5
 321 244 321 244 331 272 c 0,6,7
 333 279 333 279 333 286.5 c 128,-1,8
 333 294 333 294 329 306 c 2,9,-1
 325 318 l 1,10,11
 317 353 317 353 296 399 c 0,12,13
 279 437 279 437 278 440 c 0,14,15
 278 443 278 443 284 458 c 0,16,17
 285 463 285 463 286 473 c 0,18,19
 287 485 287 485 288 490 c 0,20,21
 290 500 290 500 316 536 c 0,22,23
 325 550 325 550 342 579 c 0,24,25
 360 608 360 608 368 622 c 0,26,27
 388 657 388 657 396 664 c 1,28,29
 404 669 404 669 413 659 c 1,30,31
 426 673 426 673 433 659 c 1,32,-1
 434 659 l 1,33,34
 447 671 447 671 457 658 c 1,35,36
 465 642 465 642 475 610 c 0,37,38
 489 566 489 566 500 474 c 1,39,40
 510 417 510 417 511 397 c 0,41,42
 519 229 519 229 439 96 c 1,43,44
 377 -3 377 -3 283 -41 c 1,45,46
 215 -66 215 -66 102 -66 c 2,47,-1
 -44 -66 l 1,48,-1
 -24 23 l 1,49,50
 118 23 118 23 148 27 c 0,51,52
 216 37 216 37 269 67 c 0,53,54
 412 150 412 150 440 337 c 0,55,56
 452 420 452 420 438 497 c 0,57,58
 425 562 425 562 410 592 c 1,59,60
 405 583 405 583 358 507 c 0,61,62
 357 505 357 505 352 499 c 0,63,64
 340 480 340 480 340 474 c 0,65,66
 339 463 339 463 358 425 c 0,67,68
 361 418 361 418 363 415 c 0,69,70
 392 341 392 341 380 279 c 0,71,72
 375 245 375 245 367 228 c 1,73,74
 343 187 343 187 267 172 c 0,75,76
 200 159 200 159 62 160 c 0,77,78
 26 161 26 161 8 161 c 1,79,-1
 19 207 l 1,0,1
1 -333 m 1,80,-1
 99 -249 l 1,81,-1
 139 -216 l 1,82,-1
 149 -221 l 1,83,-1
 162 -216 l 1,84,-1
 171 -221 l 1,85,-1
 186 -218 l 1,86,-1
 216 -259 l 1,87,-1
 253 -312 l 1,88,-1
 267 -335 l 1,89,-1
 260 -346 l 1,90,-1
 262 -359 l 1,91,-1
 254 -371 l 1,92,-1
 254 -387 l 1,93,94
 279 -416 279 -416 279 -425 c 1,95,96
 276 -431 276 -431 251 -451 c 2,97,-1
 173 -518 l 2,98,99
 171 -520 171 -520 166 -525 c 0,100,101
 148 -543 148 -543 141 -543 c 0,102,103
 138 -543 138 -543 136.5 -541.5 c 128,-1,104
 135 -540 135 -540 132 -535 c 2,105,-1
 130 -531 l 1,106,107
 109 -500 109 -500 107 -495 c 1,108,-1
 105 -495 l 1,109,110
 97 -498 97 -498 88 -495 c 0,111,112
 86 -495 86 -495 82 -498 c 0,113,114
 78 -500 78 -500 77 -500 c 0,115,116
 72 -500 72 -500 66 -490 c 0,117,118
 64 -489 64 -489 64 -487 c 2,119,-1
 63 -485 l 1,120,-1
 -10 -380 l 1,121,-1
 -10 -379 l 1,122,-1
 3 -371 l 1,123,-1
 -5 -358 l 1,124,-1
 -5 -356 l 1,125,-1
 8 -348 l 1,126,-1
 0 -335 l 1,127,-1
 1 -333 l 1,80,-1
146 -285 m 0,128,129
 140 -286 140 -286 111 -313 c 0,130,131
 108 -316 108 -316 98 -323 c 0,132,133
 69 -346 69 -346 63 -356 c 1,134,135
 62 -362 62 -362 72 -376 c 2,136,-1
 100 -417 l 2,137,138
 111 -431 111 -431 114 -431 c 0,139,140
 120 -430 120 -430 149 -403 c 0,141,142
 152 -400 152 -400 162 -394 c 0,143,144
 191 -371 191 -371 197 -361 c 1,145,146
 198 -355 198 -355 188 -341 c 2,147,-1
 159 -300 l 2,148,149
 148 -286 148 -286 146 -285 c 0,128,129
EndSplineSet
EndChar

StartChar: uniFE92
Encoding: 65170 65170 354
Width: 738
VWidth: 1639
GlyphClass: 2
Flags: HW
AnchorPoint: "GposMark2BaseAnchorClassErabAbove_01_02" 385.5 610 basechar 0
AnchorPoint: "GposMark2BaseAnchorClassErabBelow_01_02" 385.5 -693 basechar 0
LayerCount: 2
Fore
SplineSet
19 207 m 1,0,1
 34 207 34 207 64 206 c 0,2,3
 209 202 209 202 277 234 c 0,4,5
 318 254 318 254 349 284 c 1,6,7
 384 321 384 321 413 395 c 1,8,9
 430 444 430 444 450 456 c 1,10,11
 451 459 451 459 461 458 c 2,12,-1
 471 456 l 1,13,14
 502 460 502 460 511 456 c 1,15,16
 528 443 528 443 515 369 c 1,17,18
 537 364 537 364 530 312 c 0,19,20
 528 292 528 292 528 285 c 0,21,22
 530 267 530 267 558 244 c 2,23,-1
 559 243 l 2,24,25
 609 201 609 201 750 205 c 0,26,27
 803 207 803 207 815 207 c 1,28,-1
 804 161 l 1,29,-1
 719 161 l 2,30,31
 594 161 594 161 557 171 c 0,32,33
 492 191 492 191 470 244 c 0,34,35
 460 271 460 271 465 350 c 0,36,37
 466 376 466 376 466 392 c 1,38,39
 459 383 459 383 436 326 c 0,40,41
 435 323 435 323 434 321 c 0,42,43
 415 274 415 274 387 243 c 0,44,45
 315 164 315 164 168 161 c 0,46,47
 152 161 152 161 120 161 c 0,48,49
 103 161 103 161 95 161 c 2,50,-1
 8 161 l 1,51,-1
 19 207 l 1,0,1
390 166 m 1,52,-1
 398 148 l 1,53,-1
 412 166 l 1,54,-1
 420 148 l 1,55,-1
 433 166 l 1,56,57
 435 162 435 162 448 131 c 1,58,59
 464 99 464 99 485 80 c 0,60,61
 548 22 548 22 701 22 c 0,62,63
 713 22 713 22 737 23 c 0,64,65
 760 23 760 23 772 23 c 1,66,-1
 752 -66 l 1,67,68
 616 -66 616 -66 564 -49 c 0,69,70
 541 -41 541 -41 489 -3 c 2,71,-1
 418 46 l 1,72,73
 386 0 386 0 297 -34 c 0,74,75
 203 -70 203 -70 27 -67 c 0,76,77
 -26 -66 -26 -66 -44 -66 c 1,78,-1
 -24 23 l 1,79,80
 136 23 136 23 202 41 c 0,81,82
 276 62 276 62 333 107 c 0,83,84
 370 138 370 138 390 166 c 1,52,-1
242 -213 m 1,85,-1
 250 -225 l 1,86,-1
 252 -225 l 1,87,-1
 263 -213 l 1,88,-1
 265 -213 l 1,89,-1
 271 -225 l 1,90,-1
 273 -225 l 1,91,-1
 285 -213 l 1,92,-1
 286 -213 l 1,93,-1
 371 -335 l 1,94,-1
 371 -336 l 1,95,-1
 358 -346 l 1,96,-1
 357 -348 l 1,97,-1
 366 -358 l 1,98,-1
 365 -359 l 1,99,-1
 352 -369 l 1,100,-1
 352 -371 l 1,101,-1
 360 -380 l 1,102,-1
 360 -382 l 2,103,104
 357 -391 357 -391 380 -419 c 0,105,106
 382 -422 382 -422 383 -423 c 2,107,-1
 382 -425 l 1,108,-1
 279 -513 l 2,109,110
 277 -515 277 -515 272 -520 c 0,111,112
 249 -542 249 -542 242 -543 c 0,113,114
 239 -543 239 -543 237 -541.5 c 128,-1,115
 235 -540 235 -540 233 -535 c 2,116,-1
 231 -531 l 1,117,118
 210 -500 210 -500 207 -495 c 1,119,-1
 206 -495 l 1,120,121
 198 -498 198 -498 189 -495 c 0,122,123
 186 -495 186 -495 182 -498 c 0,124,125
 176 -500 176 -500 173 -499 c 0,126,127
 160 -487 160 -487 122 -426 c 0,128,129
 117 -418 117 -418 113 -413 c 0,130,131
 111 -411 111 -411 107 -406 c 0,132,133
 94 -390 94 -390 93 -382 c 0,134,135
 94 -380 94 -380 97 -376 c 0,136,137
 100 -371 100 -371 101 -369 c 0,138,139
 102 -367 102 -367 100 -363 c 0,140,141
 99 -359 99 -359 99 -358 c 0,142,143
 100 -356 100 -356 103 -352 c 0,144,145
 107 -348 107 -348 106 -344 c 0,146,147
 106 -342 106 -342 105 -340 c 0,148,149
 104 -335 104 -335 104 -333 c 0,150,151
 110 -324 110 -324 143 -298 c 1,152,-1
 242 -213 l 1,85,-1
249 -282 m 1,153,154
 235 -292 235 -292 185 -336 c 0,155,156
 165 -353 165 -353 165 -354 c 0,157,158
 164 -356 164 -356 163 -358 c 0,159,160
 162 -361 162 -361 167 -369 c 2,161,-1
 169 -371 l 1,162,-1
 190 -400 l 2,163,164
 191 -402 191 -402 194 -407 c 0,165,166
 208 -431 208 -431 214 -431 c 0,167,168
 217 -431 217 -431 222 -428 c 128,-1,169
 227 -425 227 -425 233 -419 c 2,170,-1
 238 -413 l 1,171,-1
 301 -359 l 1,172,-1
 302 -358 l 1,173,-1
 249 -282 l 1,153,154
EndSplineSet
EndChar

StartChar: afii57417
Encoding: 1577 1577 355
AltUni2: 00fe93.ffffffff.0
Width: 690
VWidth: 1639
GlyphClass: 2
Flags: HW
AnchorPoint: "GposMark2BaseAnchorClassErabAbove_01_02" 374 1365 basechar 0
AnchorPoint: "GposMark2BaseAnchorClassErabBelow_01_02" 374 -243 basechar 0
LayerCount: 2
Fore
SplineSet
309 909 m 1,0,1
 301 906 301 906 292 909 c 0,2,3
 289 909 289 909 285 906 c 0,4,5
 278 905 278 905 275 907 c 0,6,7
 265 917 265 917 216 991 c 0,8,9
 213 996 213 996 211 999 c 0,10,11
 209 1001 209 1001 204 1007 c 0,12,13
 188 1026 188 1026 187 1035 c 0,14,15
 188 1037 188 1037 191 1041 c 0,16,17
 194 1046 194 1046 195 1048 c 0,18,19
 196 1050 196 1050 194 1054 c 0,20,21
 193 1058 193 1058 193 1059 c 0,22,23
 194 1061 194 1061 197 1065 c 0,24,25
 200 1070 200 1070 200 1073 c 0,26,27
 200 1075 200 1075 199 1077 c 0,28,29
 198 1082 198 1082 198 1084 c 0,30,31
 202 1090 202 1090 225 1109 c 2,32,-1
 294 1168 l 2,33,34
 298 1172 298 1172 308 1181 c 0,35,36
 335 1206 335 1206 347 1212 c 1,37,38
 353 1213 353 1213 360 1209 c 0,39,40
 362 1209 362 1209 366 1211 c 0,41,42
 370 1213 370 1213 372 1214 c 0,43,44
 374 1214 374 1214 377 1211 c 0,45,46
 380 1208 380 1208 383 1209 c 0,47,48
 385 1210 385 1210 388 1211 c 0,49,50
 393 1213 393 1213 395 1214 c 0,51,52
 402 1209 402 1209 418 1182 c 1,53,-1
 474 1102 l 1,54,55
 496 1127 496 1127 581 1195 c 0,56,57
 596 1207 596 1207 605 1215 c 1,58,-1
 607 1215 l 1,59,-1
 613 1204 l 1,60,-1
 615 1204 l 1,61,-1
 627 1215 l 1,62,-1
 628 1215 l 1,63,-1
 635 1204 l 1,64,-1
 636 1204 l 1,65,-1
 648 1215 l 1,66,-1
 650 1215 l 1,67,-1
 713 1125 l 2,68,69
 715 1122 715 1122 721 1115 c 0,70,71
 739 1092 739 1092 741 1082 c 0,72,73
 740 1080 740 1080 737 1076 c 0,74,75
 734 1071 734 1071 733 1069 c 0,76,77
 732 1067 732 1067 734 1064 c 0,78,79
 735 1060 735 1060 735 1058 c 0,80,81
 734 1056 734 1056 731 1052 c 0,82,83
 728 1047 728 1047 728 1045 c 0,84,85
 728 1031 728 1031 728 1032 c 2,86,-1
 727 1030 l 1,87,88
 752 1001 752 1001 752 992 c 1,89,90
 749 985 749 985 723 964 c 2,91,-1
 635 889 l 2,92,93
 633 887 633 887 628 882 c 0,94,95
 607 862 607 862 600 861 c 0,96,97
 597 861 597 861 595 862.5 c 128,-1,98
 593 864 593 864 591 868 c 2,99,-1
 589 872 l 1,100,101
 568 903 568 903 565 909 c 1,102,-1
 564 909 l 1,103,104
 556 906 556 906 547 909 c 0,105,106
 545 909 545 909 540 906 c 0,107,108
 535 904 535 904 533 904 c 0,109,110
 531 904 531 904 529 906.5 c 128,-1,111
 527 909 527 909 525 913 c 2,112,-1
 523 917 l 1,113,-1
 500 950 l 1,114,115
 482 972 482 972 481 973 c 0,116,117
 475 972 475 972 442 941 c 2,118,-1
 371 881 l 2,119,120
 350 863 350 863 349 862 c 0,121,122
 346 861 346 861 345 861 c 0,123,124
 342 861 342 861 340 862.5 c 128,-1,125
 338 864 338 864 336 868 c 2,126,-1
 334 872 l 1,127,128
 313 903 313 903 310 909 c 1,129,-1
 309 909 l 1,0,1
356 1145 m 0,130,131
 347 1142 347 1142 315 1112 c 1,132,-1
 275 1077 l 2,133,134
 259 1063 259 1063 257 1061 c 0,135,136
 256 1058 256 1058 257.5 1054 c 128,-1,137
 259 1050 259 1050 263 1045 c 2,138,-1
 267 1040 l 1,139,-1
 303 989 l 2,140,141
 315 973 315 973 318 973 c 0,142,143
 327 976 327 976 359 1005 c 1,144,-1
 399 1040 l 2,145,146
 415 1054 415 1054 416 1056 c 0,147,148
 417 1059 417 1059 415.5 1063.5 c 128,-1,149
 414 1068 414 1068 410 1073 c 2,150,-1
 406 1077 l 1,151,-1
 370 1128 l 2,152,153
 358 1144 358 1144 356 1145 c 0,130,131
610 1145 m 0,154,155
 601 1142 601 1142 569 1112 c 1,156,-1
 529 1077 l 2,157,158
 513 1063 513 1063 512 1061 c 0,159,160
 511 1058 511 1058 512.5 1054 c 128,-1,161
 514 1050 514 1050 518 1045 c 2,162,-1
 522 1040 l 1,163,-1
 558 989 l 2,164,165
 570 973 570 973 572 973 c 0,166,167
 581 976 581 976 613 1005 c 1,168,-1
 653 1040 l 2,169,170
 670 1054 670 1054 671 1056 c 0,171,172
 672 1059 672 1059 670.5 1063.5 c 128,-1,173
 669 1068 669 1068 665 1073 c 2,174,-1
 661 1077 l 1,175,-1
 625 1128 l 2,176,177
 612 1144 612 1144 610 1145 c 0,154,155
389 754 m 0,178,179
 392 755 392 755 404 753 c 0,180,181
 408 753 408 753 418 754 c 0,182,183
 433 755 433 755 438 754 c 0,184,185
 446 752 446 752 467 736 c 0,186,187
 547 673 547 673 592 610 c 0,188,189
 637 545 637 545 650 477 c 0,190,191
 652 466 652 466 653 444 c 0,192,193
 653 427 653 427 654 420 c 0,194,195
 666 338 666 338 665 332 c 0,196,197
 665 327 665 327 665 323 c 0,198,199
 658 179 658 179 553 61 c 0,200,201
 530 36 530 36 507 16 c 0,202,203
 475 -11 475 -11 418 -38 c 1,204,205
 293 -93 293 -93 184 -65 c 0,206,207
 173 -62 173 -62 163 -59 c 0,208,209
 158 -57 158 -57 113 -25 c 0,210,211
 106 -20 106 -20 101 -18 c 0,212,213
 94 -13 94 -13 80 -6 c 0,214,215
 64 2 64 2 58 7 c 0,216,217
 -4 57 -4 57 -3 146 c 1,218,219
 6 320 6 320 206 566 c 0,220,221
 211 573 211 573 216 577 c 0,222,223
 276 650 276 650 337 708 c 1,224,225
 375 746 375 746 389 754 c 0,178,179
406 694 m 0,226,227
 394 690 394 690 362 656 c 0,228,229
 301 595 301 595 247 530 c 0,230,231
 216 493 216 493 189 456 c 0,232,233
 75 301 75 301 57 217 c 0,234,235
 44 154 44 154 68 105 c 0,236,237
 76 87 76 87 100 62 c 1,238,239
 125 40 125 40 162 26 c 1,240,241
 207 14 207 14 257 21 c 0,242,243
 405 41 405 41 506 156 c 0,244,245
 553 211 553 211 578 276 c 0,246,247
 595 319 595 319 597 333 c 0,248,249
 614 438 614 438 555 540 c 0,250,251
 522 596 522 596 447 663 c 0,252,253
 417 691 417 691 414 692 c 0,254,255
 409 694 409 694 406 694 c 0,226,227
322 590 m 1,256,257
 342 589 342 589 344 590 c 0,258,259
 364 589 364 589 365 590 c 0,260,261
 412 576 412 576 485 494 c 0,262,263
 531 440 531 440 551 394 c 0,264,265
 575 339 575 339 561 276 c 0,266,267
 552 240 552 240 546 233 c 0,268,269
 504 184 504 184 396 161 c 0,270,271
 361 153 361 153 314 153 c 0,272,273
 179 153 179 153 144 202 c 0,274,275
 132 221 132 221 128 244 c 0,276,277
 126 262 126 262 139 318 c 0,278,279
 151 366 151 366 182 418 c 0,280,281
 206 456 206 456 295 558 c 0,282,283
 311 576 311 576 322 590 c 1,256,257
198 249 m 1,284,285
 231 219 231 219 256 210 c 0,286,287
 328 183 328 183 430 226 c 0,288,289
 460 239 460 239 491 259 c 1,290,291
 509 272 509 272 513 279 c 1,292,293
 516 287 516 287 513 298 c 0,294,295
 509 323 509 323 498 346 c 0,296,297
 476 396 476 396 419 461 c 0,298,299
 392 494 392 494 377 502 c 1,300,301
 362 484 362 484 330 448 c 0,302,303
 285 398 285 398 264 371 c 0,304,305
 233 327 233 327 198 249 c 1,284,285
EndSplineSet
AlternateSubs2: "gsub_alternate_dfl_aalt_arab_FAR_Lookup_01_Subtable_01" uniFE94 afii57417
Substitution2: "gsub_single_rtl_fina_arab_FAR_Lookup_01_Subtable_01" uniFE94
EndChar

StartChar: uniFE94
Encoding: 65172 65172 356
Width: 836
VWidth: 1639
GlyphClass: 2
Flags: HW
AnchorPoint: "GposMark2BaseAnchorClassErabAbove_01_02" 484.5 1411 basechar 0
AnchorPoint: "GposMark2BaseAnchorClassErabBelow_01_02" 484.5 -217 basechar 0
LayerCount: 2
Fore
SplineSet
652 1261 m 1,0,-1
 660 1250 l 1,1,-1
 662 1250 l 1,2,-1
 674 1261 l 1,3,-1
 675 1261 l 1,4,-1
 682 1250 l 1,5,-1
 683 1250 l 1,6,-1
 695 1261 l 1,7,-1
 697 1261 l 1,8,-1
 791 1127 l 1,9,-1
 790 1125 l 1,10,-1
 777 1115 l 1,11,-1
 777 1114 l 1,12,-1
 785 1104 l 1,13,-1
 785 1102 l 1,14,-1
 772 1092 l 1,15,-1
 772 1091 l 1,16,-1
 780 1081 l 1,17,-1
 780 1079 l 2,18,19
 777 1070 777 1070 799 1042 c 0,20,21
 801 1039 801 1039 802 1038 c 2,22,-1
 802 1036 l 1,23,-1
 758 999 l 1,24,-1
 740 981 l 1,25,-1
 739 954 l 1,26,-1
 735 894 l 1,27,-1
 750 905 l 1,28,-1
 733 433 l 2,29,30
 733 420 733 420 731 395 c 0,31,32
 729 344 729 344 729 320 c 0,33,34
 730 261 730 261 747 238 c 1,35,36
 777 202 777 202 874 205 c 0,37,38
 904 206 904 206 914 207 c 1,39,-1
 903 161 l 1,40,41
 888 161 888 161 855 159 c 0,42,43
 741 152 741 152 704 181 c 0,44,45
 700 185 700 185 697 187 c 0,46,47
 660 224 660 224 663 334 c 0,48,49
 664 374 664 374 664 380 c 0,50,51
 665 404 665 404 678 738 c 0,52,53
 679 756 679 756 681 792 c 0,54,55
 683 829 683 829 683 846 c 0,56,57
 683 894 683 894 685 909 c 1,58,59
 682 906 682 906 635 861 c 0,60,61
 616 844 616 844 611 836 c 0,62,63
 608 831 608 831 606 788 c 0,64,65
 606 784 606 784 606 782 c 0,66,67
 604 728 604 728 592 674 c 1,68,69
 581 671 581 671 504 637 c 0,70,71
 501 636 501 636 499 635 c 0,72,73
 360 573 360 573 280 508 c 0,74,75
 226 463 226 463 206 436 c 1,76,77
 252 478 252 478 321 512 c 1,78,79
 394 550 394 550 487 585 c 0,80,81
 524 599 524 599 553 608 c 0,82,83
 572 616 572 616 577 610 c 1,84,85
 597 611 597 611 598 610 c 2,86,-1
 617 613 l 1,87,-1
 618 597 l 1,88,-1
 615 549 l 1,89,-1
 605 417 l 1,90,-1
 600 348 l 1,91,-1
 600 346 l 1,92,-1
 595 346 l 1,93,-1
 595 325 l 1,94,-1
 594 323 l 1,95,-1
 590 323 l 1,96,-1
 589 300 l 1,97,98
 395 275 395 275 263 308 c 0,99,100
 199 325 199 325 185 348 c 1,101,102
 173 374 173 374 203 431 c 0,103,104
 205 434 205 434 206 436 c 1,105,-1
 204 436 l 1,106,107
 140 342 140 342 125 307 c 0,108,109
 109 271 109 271 111 256 c 0,110,111
 114 220 114 220 167 195 c 0,112,113
 232 166 232 166 344 166 c 0,114,115
 350 166 350 166 363 165 c 0,116,117
 396 163 396 163 410 167 c 0,118,119
 422 171 422 171 448 190 c 0,120,121
 485 218 485 218 517 246 c 0,122,123
 547 271 547 271 553 274 c 1,124,-1
 552 257 l 1,125,-1
 574 274 l 1,126,-1
 573 257 l 1,127,-1
 595 274 l 1,128,129
 582 148 582 148 650 73 c 0,130,131
 679 41 679 41 719 30 c 0,132,133
 750 20 750 20 853 23 c 0,134,135
 864 23 864 23 871 23 c 1,136,-1
 850 -67 l 1,137,138
 747 -67 747 -67 713 -54 c 0,139,140
 710 -53 710 -53 709 -52 c 0,141,142
 704 -50 704 -50 666 -21 c 0,143,144
 659 -16 659 -16 654 -13 c 0,145,146
 579 26 579 26 557 95 c 0,147,148
 548 122 548 122 548 136 c 1,149,150
 537 129 537 129 516 112 c 0,151,152
 484 85 484 85 468 79 c 0,153,154
 461 77 461 77 437 77 c 2,155,-1
 376 77 l 2,156,157
 227 78 227 78 162 113 c 1,158,159
 149 122 149 122 130 141 c 0,160,161
 122 148 122 148 101 158 c 0,162,163
 62 178 62 178 57 203 c 0,164,165
 55 216 55 216 64 251 c 0,166,167
 78 311 78 311 89 339 c 0,168,169
 152 515 152 515 380 638 c 0,170,171
 397 647 397 647 413 656 c 0,172,173
 463 682 463 682 508 700 c 0,174,175
 513 702 513 702 522 706 c 0,176,177
 542 714 542 714 551 717 c 1,178,179
 556 740 556 740 557 784 c 0,180,181
 559 843 559 843 569 872 c 0,182,183
 574 884 574 884 611 915 c 0,184,185
 624 926 624 926 624 932 c 0,186,187
 623 939 623 939 612 954 c 1,188,-1
 611 954 l 1,189,190
 606 949 606 949 597 954 c 0,191,192
 594 955 594 955 592 954 c 0,193,194
 590 953 590 953 587 952 c 0,195,196
 582 950 582 950 580 950 c 0,197,198
 575 953 575 953 565 969 c 0,199,200
 562 974 562 974 554 984 c 0,201,202
 535 1009 535 1009 530 1022 c 1,203,-1
 528 1022 l 1,204,205
 512 1003 512 1003 442 946 c 0,206,207
 434 939 434 939 429 935 c 0,208,209
 427 933 427 933 422 928 c 0,210,211
 401 908 401 908 394 907 c 0,212,213
 391 907 391 907 389 908.5 c 128,-1,214
 387 910 387 910 385 914 c 2,215,-1
 383 918 l 1,216,217
 362 949 362 949 359 954 c 1,218,-1
 357 954 l 1,219,220
 349 951 349 951 341 954 c 0,221,222
 338 954 338 954 333 952 c 1,223,224
 326 951 326 951 322 954 c 0,225,226
 316 961 316 961 258 1046 c 0,227,228
 256 1049 256 1049 255 1051 c 0,229,230
 253 1053 253 1053 249 1058 c 0,231,232
 230 1080 230 1080 247 1092 c 1,233,-1
 248 1094 l 1,234,235
 238 1105 238 1105 253 1115 c 1,236,-1
 253 1117 l 1,237,238
 240 1127 240 1127 270 1150 c 0,239,240
 274 1153 274 1153 275 1155 c 2,241,-1
 357 1225 l 2,242,243
 360 1228 360 1228 368 1235 c 0,244,245
 387 1252 387 1252 395 1256 c 0,246,247
 399 1257 399 1257 406 1253 c 0,248,249
 408 1252 408 1252 414 1255 c 0,250,251
 418 1258 418 1258 420 1258 c 0,252,253
 422 1258 422 1258 425 1255 c 0,254,255
 429 1253 l 0,256,257
 431 1253 431 1253 436 1255 c 0,258,259
 441 1257 441 1257 443 1258 c 0,260,261
 449 1255 449 1255 466 1228 c 0,262,263
 472 1220 472 1220 484 1205 c 0,264,265
 512 1168 512 1168 521 1148 c 1,266,-1
 522 1148 l 1,267,268
 543 1172 543 1172 634 1245 c 0,269,270
 645 1255 645 1255 652 1261 c 1,0,-1
406 1192 m 1,271,272
 386 1179 386 1179 316 1117 c 0,273,274
 308 1110 308 1110 304 1105 c 1,275,-1
 303 1104 l 1,276,-1
 346 1043 l 2,277,278
 347 1041 347 1041 350 1036 c 0,279,280
 359 1021 359 1021 364 1018 c 1,281,282
 370 1018 370 1018 386 1033 c 2,283,-1
 445 1084 l 2,284,285
 464 1102 464 1102 465 1105 c 0,286,287
 464 1111 464 1111 449 1132 c 2,288,-1
 406 1192 l 1,271,272
659 1192 m 1,289,290
 639 1179 639 1179 570 1117 c 0,291,292
 562 1110 562 1110 557 1105 c 1,293,-1
 556 1104 l 1,294,-1
 601 1040 l 1,295,-1
 619 1018 l 1,296,-1
 647 1040 l 1,297,-1
 721 1102 l 1,298,-1
 721 1104 l 1,299,-1
 659 1192 l 1,289,290
561 503 m 1,300,301
 529 494 529 494 486 474 c 1,302,303
 409 443 409 443 352 412 c 0,304,305
 298 382 298 382 293 378 c 0,306,307
 285 371 285 371 280 364 c 1,308,309
 381 338 381 338 435 335 c 0,310,311
 466 334 466 334 549 344 c 1,312,-1
 561 503 l 1,300,301
EndSplineSet
EndChar

StartChar: afii57418
Encoding: 1578 1578 357
AltUni2: 00fe95.ffffffff.0
Width: 1642
VWidth: 1639
GlyphClass: 2
Flags: HW
AnchorPoint: "GposMark2BaseAnchorClassErabAbove_01_02" 812 1216 basechar 0
AnchorPoint: "GposMark2BaseAnchorClassErabBelow_01_02" 812 -249 basechar 0
LayerCount: 2
Fore
SplineSet
670 946 m 1,0,-1
 769 1032 l 1,1,-1
 809 1064 l 1,2,-1
 818 1059 l 1,3,-1
 832 1064 l 1,4,-1
 841 1059 l 1,5,-1
 855 1064 l 1,6,-1
 878 1033 l 1,7,-1
 934 953 l 1,8,9
 955 977 955 977 1045 1050 c 0,10,11
 1056 1059 1056 1059 1064 1066 c 1,12,-1
 1065 1066 l 1,13,-1
 1072 1055 l 1,14,-1
 1074 1055 l 1,15,-1
 1085 1066 l 1,16,-1
 1087 1066 l 1,17,-1
 1093 1055 l 1,18,-1
 1095 1055 l 1,19,-1
 1107 1066 l 1,20,-1
 1108 1066 l 1,21,-1
 1193 945 l 1,22,-1
 1193 943 l 1,23,-1
 1180 933 l 1,24,-1
 1179 932 l 1,25,-1
 1188 922 l 1,26,-1
 1187 920 l 1,27,-1
 1174 910 l 1,28,-1
 1174 909 l 1,29,-1
 1182 899 l 1,30,-1
 1182 897 l 2,31,32
 1179 888 1179 888 1202 860 c 0,33,34
 1204 858 1204 858 1205 856 c 2,35,-1
 1204 854 l 1,36,-1
 1101 766 l 2,37,38
 1099 764 1099 764 1094 759 c 0,39,40
 1071 737 1071 737 1064 736 c 0,41,42
 1061 736 1061 736 1059 738 c 128,-1,43
 1057 740 1057 740 1055 744 c 2,44,-1
 1053 748 l 1,45,46
 1032 779 1032 779 1029 784 c 1,47,-1
 1028 784 l 1,48,49
 1020 781 1020 781 1011 784 c 0,50,51
 1009 784 1009 784 1004 781 c 0,52,53
 999 779 999 779 998 779 c 0,54,55
 996 779 996 779 993.5 781.5 c 128,-1,56
 991 784 991 784 989 788 c 2,57,-1
 987 792 l 1,58,-1
 964 825 l 1,59,60
 946 847 946 847 945 848 c 0,61,62
 939 847 939 847 910 820 c 2,63,-1
 811 735 l 1,64,-1
 809 735 l 1,65,-1
 784 771 l 1,66,67
 774 781 774 781 767 777 c 1,68,-1
 765 777 l 1,69,-1
 759 789 l 1,70,-1
 757 789 l 1,71,-1
 746 777 l 1,72,-1
 744 777 l 1,73,-1
 659 899 l 1,74,-1
 660 900 l 1,75,-1
 673 910 l 1,76,-1
 673 912 l 1,77,-1
 665 922 l 1,78,-1
 665 923 l 1,79,-1
 678 933 l 1,80,-1
 678 935 l 1,81,-1
 670 945 l 1,82,-1
 670 946 l 1,0,-1
783 846 m 1,83,-1
 846 900 l 2,84,85
 866 917 866 917 866 918 c 0,86,87
 867 920 867 920 867 922 c 0,88,89
 868 928 868 928 846 956 c 2,90,-1
 826 986 l 2,91,92
 818 995 818 995 816 995 c 0,93,94
 813 995 813 995 808.5 992 c 128,-1,95
 804 989 804 989 798 983 c 2,96,-1
 792 977 l 2,97,98
 786 972 786 972 773 962 c 0,99,100
 742 937 742 937 729 922 c 1,101,-1
 781 846 l 1,102,-1
 783 846 l 1,83,-1
1071 997 m 1,103,104
 1057 987 1057 987 1007 943 c 0,105,106
 987 926 987 926 987 925 c 0,107,108
 986 923 986 923 985 922 c 0,109,110
 984 919 984 919 989 911 c 2,111,-1
 991 909 l 1,112,-1
 1012 879 l 2,113,114
 1013 877 1013 877 1016 872 c 0,115,116
 1030 849 1030 849 1036 848 c 0,117,118
 1039 848 1039 848 1044 851 c 128,-1,119
 1049 854 1049 854 1055 860 c 2,120,-1
 1060 866 l 1,121,-1
 1123 920 l 1,122,-1
 1124 922 l 1,123,-1
 1071 997 l 1,103,104
930 936 m 1,124,-1
 927 930 l 1,125,-1
 929 930 l 1,126,-1
 930 936 l 1,124,-1
925 913 m 1,127,-1
 922 907 l 1,128,-1
 924 907 l 1,129,-1
 925 913 l 1,127,-1
288 512 m 1,130,131
 323 536 323 536 326 513 c 0,132,133
 326 509 326 509 326 505 c 0,134,135
 323 488 323 488 296 448 c 1,136,137
 269 400 269 400 256 359 c 0,138,139
 246 330 246 330 247 321 c 0,140,141
 253 304 253 304 282 277 c 0,142,143
 292 269 292 269 322 251 c 1,144,145
 409 207 409 207 614 190 c 2,146,-1
 616 190 l 1,147,148
 835 175 835 175 1114 213 c 0,149,150
 1243 229 1243 229 1320 259 c 0,151,152
 1378 282 1378 282 1392 302 c 1,153,154
 1396 312 1396 312 1386 346 c 0,155,156
 1375 377 1375 377 1352 431 c 0,157,158
 1339 459 1339 459 1339 466 c 0,159,160
 1340 475 1340 475 1350 500 c 0,161,162
 1350 502 1350 502 1349 507 c 0,163,164
 1349 513 1349 513 1350 515 c 0,165,166
 1352 518 1352 518 1373 546 c 0,167,168
 1384 562 1384 562 1431 628 c 0,169,170
 1457 666 1457 666 1463 670 c 0,171,172
 1474 675 1474 675 1481 667 c 1,173,174
 1494 677 1494 677 1501 667 c 1,175,-1
 1503 667 l 1,176,177
 1519 682 1519 682 1530 650 c 0,178,179
 1531 646 1531 646 1532 645 c 0,180,181
 1553 583 1553 583 1561 518 c 0,182,183
 1576 390 l 0,184,185
 1577 373 1577 373 1576 359 c 0,186,187
 1567 205 1567 205 1473 99 c 0,188,189
 1451 75 1451 75 1427 57 c 0,190,191
 1384 27 1384 27 1304 -2 c 1,192,193
 1216 -31 1216 -31 1093 -51 c 0,194,195
 819 -99 819 -99 589 -87 c 0,196,197
 379 -77 379 -77 277 -31 c 0,198,199
 266 -26 266 -26 196 20 c 1,200,201
 95 82 95 82 73 154 c 0,202,203
 69 168 69 168 67 182 c 0,204,205
 47 319 47 319 140 477 c 0,206,207
 153 498 153 498 165 517 c 0,208,209
 213 587 213 587 241 605 c 0,210,211
 250 611 250 611 269 610 c 0,212,213
 272 610 272 610 281 611 c 0,214,215
 306 613 306 613 312 608 c 1,216,217
 318 600 318 600 309 579 c 1,218,219
 298 530 298 530 288 512 c 1,130,131
1478 602 m 1,220,221
 1467 592 1467 592 1427 531 c 0,222,223
 1423 525 1423 525 1420 522 c 0,224,225
 1401 496 1401 496 1401 490 c 0,226,227
 1402 480 1402 480 1420 443 c 1,228,229
 1452 363 1452 363 1446 319 c 0,230,231
 1445 315 1445 315 1445 312 c 0,232,233
 1435 259 1435 259 1400 236 c 0,234,235
 1397 234 1397 234 1396 233 c 0,236,237
 1358 212 1358 212 1299 197 c 0,238,239
 1234 179 1234 179 1110 162 c 0,240,241
 1105 161 1105 161 943 148 c 0,242,243
 931 147 931 147 922 146 c 0,244,245
 874 141 874 141 701 141 c 0,246,247
 467 141 467 141 353 174 c 0,248,249
 208 217 208 217 182 300 c 1,250,251
 167 367 167 367 226 507 c 1,252,-1
 224 507 l 1,253,254
 147 411 147 411 123 328 c 0,255,256
 90 205 90 205 178 114 c 0,257,258
 200 92 200 92 226 77 c 0,259,260
 336 12 336 12 535 3 c 0,261,262
 787 -8 787 -8 1090 48 c 1,263,264
 1293 83 1293 83 1386 157 c 0,265,266
 1416 182 1416 182 1438 210 c 0,267,268
 1529 331 1529 331 1506 490 c 0,269,270
 1502 513 1502 513 1490 555 c 0,271,272
 1481 587 1481 587 1478 602 c 1,220,221
288 512 m 1,273,-1
 286 510 l 1,274,-1
 288 512 l 1,273,-1
228 510 m 1,275,-1
 226 508 l 1,276,-1
 228 510 l 1,275,-1
EndSplineSet
AlternateSubs2: "gsub_alternate_dfl_aalt_arab_FAR_Lookup_01_Subtable_01" uniFE96 uniFE97 afii57418 uniFE98
Substitution2: "gsub_single_rtl_fina_arab_FAR_Lookup_01_Subtable_01" uniFE96
Substitution2: "gsub_single_rtl_init_arab_FAR_Lookup_01_Subtable_01" uniFE97
Substitution2: "gsub_single_rtl_medi_arab_FAR_Lookup_01_Subtable_01" uniFE98
EndChar

StartChar: uniFE96
Encoding: 65174 65174 358
Width: 1598
VWidth: 1639
GlyphClass: 2
Flags: HW
AnchorPoint: "GposMark2BaseAnchorClassErabAbove_01_02" 851.5 1216 basechar 0
AnchorPoint: "GposMark2BaseAnchorClassErabBelow_01_02" 851.5 -245 basechar 0
LayerCount: 2
Fore
SplineSet
670 946 m 1,0,-1
 769 1032 l 1,1,-1
 809 1064 l 1,2,-1
 819 1059 l 1,3,-1
 832 1064 l 1,4,-1
 842 1059 l 1,5,-1
 855 1064 l 1,6,-1
 878 1033 l 1,7,-1
 934 953 l 1,8,9
 955 977 955 977 1045 1050 c 0,10,11
 1056 1059 1056 1059 1064 1066 c 1,12,-1
 1066 1066 l 1,13,-1
 1072 1055 l 1,14,-1
 1074 1055 l 1,15,-1
 1086 1066 l 1,16,-1
 1087 1066 l 1,17,-1
 1094 1055 l 1,18,-1
 1095 1055 l 1,19,-1
 1107 1066 l 1,20,-1
 1108 1066 l 1,21,-1
 1193 945 l 1,22,-1
 1193 943 l 1,23,-1
 1180 933 l 1,24,-1
 1180 932 l 1,25,-1
 1188 922 l 1,26,-1
 1188 920 l 1,27,-1
 1175 910 l 1,28,-1
 1174 909 l 1,29,-1
 1183 899 l 1,30,-1
 1182 897 l 2,31,32
 1179 888 1179 888 1202 860 c 0,33,34
 1204 858 1204 858 1205 856 c 2,35,-1
 1204 854 l 1,36,-1
 1102 766 l 2,37,38
 1100 764 1100 764 1094 759 c 0,39,40
 1071 737 1071 737 1064 736 c 0,41,42
 1061 736 1061 736 1059 738 c 128,-1,43
 1057 740 1057 740 1055 744 c 2,44,-1
 1053 748 l 1,45,46
 1032 779 1032 779 1030 784 c 1,47,-1
 1028 784 l 1,48,49
 1020 781 1020 781 1011 784 c 0,50,51
 1009 784 1009 784 1005 781 c 0,52,53
 1000 779 1000 779 998 779 c 0,54,55
 996 779 996 779 993.5 781.5 c 128,-1,56
 991 784 991 784 989 788 c 2,57,-1
 987 792 l 1,58,-1
 964 825 l 1,59,60
 946 847 946 847 945 848 c 0,61,62
 939 847 939 847 910 820 c 2,63,-1
 811 735 l 1,64,-1
 809 735 l 1,65,-1
 784 771 l 1,66,67
 774 781 774 781 767 777 c 1,68,-1
 766 777 l 1,69,-1
 759 789 l 1,70,-1
 758 789 l 1,71,-1
 746 777 l 1,72,-1
 744 777 l 1,73,-1
 660 899 l 1,74,-1
 660 900 l 1,75,-1
 673 910 l 1,76,-1
 673 912 l 1,77,-1
 665 922 l 1,78,-1
 665 923 l 1,79,-1
 678 933 l 1,80,-1
 679 935 l 1,81,-1
 670 945 l 1,82,-1
 670 946 l 1,0,-1
783 846 m 1,83,-1
 846 900 l 2,84,85
 866 917 866 917 866 918 c 0,86,87
 867 920 867 920 868 922 c 0,88,89
 869 928 869 928 847 956 c 2,90,-1
 826 986 l 2,91,92
 818 995 818 995 816 995 c 0,93,94
 813 995 813 995 808.5 992 c 128,-1,95
 804 989 804 989 798 983 c 2,96,-1
 792 977 l 2,97,98
 786 972 786 972 773 962 c 0,99,100
 742 937 742 937 729 922 c 1,101,-1
 782 846 l 1,102,-1
 783 846 l 1,83,-1
1071 997 m 1,103,104
 1057 987 1057 987 1007 943 c 0,105,106
 987 926 987 926 987 925 c 0,107,108
 986 923 986 923 985 922 c 0,109,110
 984 919 984 919 990 911 c 2,111,-1
 991 909 l 1,112,-1
 1012 879 l 2,113,114
 1013 877 1013 877 1016 872 c 0,115,116
 1030 849 1030 849 1037 848 c 0,117,118
 1040 848 1040 848 1044.5 851 c 128,-1,119
 1049 854 1049 854 1055 860 c 2,120,-1
 1061 866 l 1,121,-1
 1124 920 l 1,122,-1
 1124 922 l 1,123,-1
 1071 997 l 1,103,104
931 936 m 1,124,-1
 928 930 l 1,125,-1
 929 930 l 1,126,-1
 931 936 l 1,124,-1
925 913 m 1,127,-1
 922 907 l 1,128,-1
 924 907 l 1,129,-1
 925 913 l 1,127,-1
1333 98 m 1,130,131
 1195 20 1195 20 1164 7 c 0,132,133
 1157 4 1157 4 1151 2 c 0,134,135
 911 -95 911 -95 601 -95 c 0,136,137
 393 -94 393 -94 286 -52 c 0,138,139
 263 -43 263 -43 193 2 c 0,140,141
 112 55 112 55 89 95 c 0,142,143
 84 103 84 103 81 110 c 0,144,145
 29 222 29 222 100 393 c 0,146,147
 126 455 126 455 162 507 c 0,148,149
 197 558 197 558 226 587 c 1,150,151
 247 605 247 605 287 602 c 0,152,153
 307 602 307 602 309 600 c 0,154,155
 311 597 311 597 312 595 c 0,156,157
 313 589 313 589 307 569 c 1,158,159
 299 527 299 527 284 502 c 1,160,161
 311 523 311 523 322 509 c 1,162,163
 325 501 325 501 323 490 c 0,164,165
 320 480 320 480 307 460 c 0,166,167
 299 447 299 447 296 441 c 0,168,169
 243 352 243 352 243 310 c 0,170,171
 244 282 244 282 293 249 c 1,172,173
 364 198 364 198 522 182 c 0,174,175
 630 172 630 172 789 184 c 0,176,177
 1048 202 1048 202 1237 300 c 0,178,179
 1322 345 1322 345 1387 405 c 0,180,181
 1395 412 1395 412 1412 430 c 0,182,183
 1457 477 1457 477 1480 489 c 1,184,185
 1488 491 1488 491 1521 489 c 0,186,187
 1538 488 1538 488 1539 487 c 0,188,189
 1543 479 1543 479 1539 461 c 0,190,191
 1538 455 1538 455 1535 441 c 0,192,193
 1529 407 1529 407 1522 394 c 1,194,195
 1558 409 1558 409 1550 367 c 0,196,197
 1548 358 1548 358 1517 282 c 0,198,199
 1516 279 1516 279 1515 276 c 0,200,201
 1506 250 1506 250 1510 241 c 1,202,203
 1520 230 1520 230 1533 221.5 c 128,-1,204
 1546 213 1546 213 1569 210.5 c 128,-1,205
 1592 208 1592 208 1601 206.5 c 128,-1,206
 1610 205 1610 205 1642 206 c 2,207,-1
 1674 207 l 1,208,-1
 1664 161 l 1,209,-1
 1616 161 l 2,210,211
 1502 161 1502 161 1468 185 c 1,212,213
 1439 208 1439 208 1437 248 c 0,214,215
 1436 284 1436 284 1468 376 c 0,216,217
 1478 403 1478 403 1482 420 c 1,218,219
 1469 409 1469 409 1447 385 c 0,220,221
 1427 365 1427 365 1417 356 c 0,222,223
 1363 306 1363 306 1291 266 c 0,224,225
 1158 191 1158 191 981 159 c 1,226,227
 753 116 753 116 498 134 c 0,228,229
 327 148 327 148 252 195 c 0,230,231
 183 239 183 239 175 308 c 1,232,233
 171 377 171 377 224 500 c 1,234,-1
 223 500 l 1,235,236
 214 486 214 486 195 458 c 0,237,238
 136 370 136 370 121 318 c 0,239,240
 115 297 115 297 115 251 c 0,241,242
 114 65 114 65 352 13 c 0,243,244
 379 7 379 7 407 3 c 0,245,246
 555 -17 555 -17 744 5 c 0,247,248
 952 27 952 27 1126 103 c 1,249,250
 1204 139 1204 139 1270 182 c 0,251,252
 1280 189 1280 189 1300 204 c 0,253,254
 1331 227 1331 227 1345 236 c 1,255,-1
 1343 218 l 1,256,-1
 1367 236 l 1,257,-1
 1364 218 l 1,258,-1
 1388 236 l 1,259,260
 1383 212 1383 212 1382 171 c 1,261,262
 1385 144 1385 144 1394 121 c 0,263,264
 1433 29 1433 29 1587 24 c 0,265,266
 1606 23 1606 23 1632 23 c 1,267,-1
 1611 -66 l 1,268,269
 1522 -65 1522 -65 1476 -43 c 0,270,271
 1466 -38 1466 -38 1450 -23 c 0,272,273
 1435 -11 1435 -11 1427 -7 c 0,274,275
 1339 43 1339 43 1333 98 c 1,130,131
226 502 m 1,276,-1
 225 502 l 1,277,-1
 226 502 l 1,276,-1
1484 421 m 1,278,-1
 1482 420 l 1,279,-1
 1484 421 l 1,278,-1
EndSplineSet
EndChar

StartChar: uniFE97
Encoding: 65175 65175 359
Width: 626
VWidth: 1639
GlyphClass: 2
Flags: HW
AnchorPoint: "GposMark2BaseAnchorClassErabAbove_01_02" 325.5 1303 basechar 0
AnchorPoint: "GposMark2BaseAnchorClassErabBelow_01_02" 325.5 -216 basechar 0
LayerCount: 2
Fore
SplineSet
342 1153 m 1,0,-1
 350 1141 l 1,1,-1
 351 1141 l 1,2,-1
 363 1153 l 1,3,-1
 364 1153 l 1,4,-1
 371 1141 l 1,5,-1
 372 1141 l 1,6,-1
 384 1153 l 1,7,-1
 386 1153 l 1,8,-1
 443 1071 l 2,9,10
 444 1069 444 1069 447 1064 c 0,11,12
 458 1046 458 1046 465 1045 c 1,13,14
 471 1046 471 1046 498 1071 c 2,15,-1
 561 1125 l 2,16,17
 589 1148 589 1148 591 1150 c 0,18,19
 595 1151 595 1151 602 1146 c 0,20,21
 604 1145 604 1145 610 1149 c 0,22,23
 615 1151 615 1151 616 1151 c 0,24,25
 618 1151 618 1151 621 1149 c 0,26,27
 625 1147 625 1147 625 1146 c 0,28,29
 627 1146 627 1146 631 1148 c 0,30,31
 637 1151 637 1151 640 1150 c 0,32,33
 645 1146 645 1146 662 1120 c 2,34,-1
 704 1059 l 2,35,36
 705 1057 705 1057 709 1053 c 0,37,38
 720 1039 720 1039 721 1033 c 0,39,40
 720 1031 720 1031 717 1027 c 0,41,42
 714 1022 714 1022 714 1020 c 0,43,44
 713 1018 713 1018 715 1014 c 0,45,46
 716 1010 716 1010 715 1009 c 0,47,48
 714 1007 714 1007 712 1003 c 0,49,50
 709 998 709 998 708 995 c 0,51,52
 708 981 708 981 708 982 c 2,53,-1
 708 981 l 1,54,55
 733 952 733 952 732 943 c 1,56,57
 729 937 729 937 697 910 c 2,58,-1
 595 822 l 1,59,-1
 593 822 l 1,60,-1
 568 858 l 1,61,62
 558 868 558 868 551 864 c 1,63,-1
 549 864 l 1,64,-1
 543 876 l 1,65,-1
 541 876 l 1,66,-1
 530 864 l 1,67,-1
 528 864 l 1,68,-1
 478 938 l 1,69,-1
 477 938 l 1,70,71
 461 919 461 919 390 862 c 0,72,73
 382 855 382 855 377 851 c 0,74,75
 375 849 375 849 370 844 c 0,76,77
 349 824 349 824 342 823 c 0,78,79
 339 823 339 823 337 825 c 128,-1,80
 335 827 335 827 333 831 c 2,81,-1
 331 835 l 1,82,83
 310 866 310 866 307 871 c 1,84,-1
 305 871 l 1,85,86
 297 868 297 868 289 871 c 0,87,88
 286 871 286 871 282 869 c 0,89,90
 276 867 276 867 273 868 c 0,91,92
 260 880 260 880 221 940 c 0,93,94
 216 948 216 948 213 953 c 0,95,96
 211 955 211 955 207 961 c 0,97,98
 193 976 193 976 193 984 c 0,99,100
 194 986 194 986 197 991 c 0,101,102
 200 996 200 996 200 997 c 0,103,104
 201 999 201 999 199 1003 c 0,105,106
 198 1007 198 1007 198 1009 c 0,107,108
 199 1011 199 1011 202 1015 c 0,109,110
 205 1020 205 1020 206 1022 c 0,111,112
 206 1024 206 1024 205 1027 c 0,113,114
 204 1032 204 1032 204 1033 c 0,115,116
 210 1042 210 1042 243 1068 c 1,117,-1
 342 1153 l 1,0,-1
349 1084 m 1,118,119
 335 1074 335 1074 284 1030 c 0,120,121
 264 1013 264 1013 264 1012 c 0,122,123
 263 1009 l 0,124,125
 262 1006 262 1006 267 997 c 2,126,-1
 269 995 l 1,127,-1
 289 966 l 2,128,129
 290 964 290 964 293 959 c 0,130,131
 307 936 307 936 314 935 c 0,132,133
 317 935 317 935 321.5 938 c 128,-1,134
 326 941 326 941 332 947 c 2,135,-1
 338 953 l 1,136,-1
 401 1007 l 1,137,-1
 401 1009 l 1,138,-1
 349 1084 l 1,118,119
567 933 m 1,139,-1
 630 987 l 2,140,141
 650 1004 650 1004 650 1005 c 0,142,143
 651 1008 651 1008 651 1009 c 0,144,145
 652 1015 652 1015 630 1043 c 2,146,-1
 610 1073 l 2,147,148
 602 1082 602 1082 600 1082 c 0,149,150
 597 1082 597 1082 592.5 1079 c 128,-1,151
 588 1076 588 1076 582 1070 c 2,152,-1
 576 1064 l 2,153,154
 570 1059 570 1059 557 1048 c 0,155,156
 526 1022 526 1022 513 1009 c 1,157,-1
 565 933 l 1,158,-1
 567 933 l 1,139,-1
462 1022 m 1,159,-1
 457 1018 l 1,160,-1
 462 1022 l 1,159,-1
457 999 m 1,161,-1
 452 995 l 1,162,-1
 457 999 l 1,161,-1
-19 207 m 1,163,164
 137 207 137 207 185 215 c 0,165,166
 201 218 201 218 215 221 c 0,167,168
 284 244 284 244 294 272 c 0,169,170
 296 279 296 279 296 286.5 c 128,-1,171
 296 294 296 294 292 306 c 2,172,-1
 288 318 l 1,173,174
 280 353 280 353 259 399 c 0,175,176
 242 437 242 437 241 440 c 0,177,178
 241 443 241 443 247 458 c 0,179,180
 248 463 248 463 249 473 c 0,181,182
 250 485 250 485 251 490 c 0,183,184
 253 500 253 500 279 536 c 0,185,186
 288 550 288 550 304 579 c 0,187,188
 322 608 322 608 330 622 c 0,189,190
 350 657 350 657 358 664 c 1,191,192
 366 669 366 669 376 659 c 1,193,194
 389 673 389 673 395 659 c 1,195,-1
 397 659 l 1,196,197
 410 671 410 671 419 658 c 1,198,199
 427 642 427 642 437 610 c 0,200,201
 451 566 451 566 462 474 c 1,202,203
 472 417 472 417 474 397 c 0,204,205
 482 229 482 229 402 96 c 1,206,207
 340 -3 340 -3 246 -41 c 1,208,209
 178 -66 178 -66 65 -66 c 2,210,-1
 -82 -66 l 1,211,-1
 -61 23 l 1,212,213
 81 23 81 23 111 27 c 0,214,215
 179 37 179 37 231 67 c 0,216,217
 374 150 374 150 403 337 c 0,218,219
 415 420 415 420 401 497 c 0,220,221
 388 562 388 562 372 592 c 1,222,223
 367 583 367 583 321 507 c 0,224,225
 320 505 320 505 315 499 c 0,226,227
 303 480 303 480 302 474 c 0,228,229
 301 463 301 463 321 425 c 0,230,231
 324 418 324 418 325 415 c 0,232,233
 354 341 354 341 343 279 c 0,234,235
 338 245 338 245 329 228 c 1,236,237
 305 187 305 187 230 172 c 0,238,239
 163 159 163 159 25 160 c 0,240,241
 -11 161 -11 161 -29 161 c 1,242,-1
 -19 207 l 1,163,164
EndSplineSet
EndChar

StartChar: uniFE98
Encoding: 65176 65176 360
Width: 701
VWidth: 1639
GlyphClass: 2
Flags: HW
AnchorPoint: "GposMark2BaseAnchorClassErabAbove_01_02" 347.5 1216 basechar 0
AnchorPoint: "GposMark2BaseAnchorClassErabBelow_01_02" 347.5 -220 basechar 0
LayerCount: 2
Fore
SplineSet
192 946 m 1,0,-1
 291 1032 l 2,1,2
 294 1034 294 1034 300 1041 c 0,3,4
 322 1061 322 1061 330 1064 c 0,5,6
 332 1064 332 1064 336 1062 c 0,7,8
 340 1060 340 1060 341 1059 c 0,9,10
 343 1059 343 1059 347 1062 c 0,11,12
 351 1064 351 1064 353 1064 c 0,13,14
 355 1064 355 1064 358 1062 c 0,15,16
 362 1060 362 1060 364 1059 c 0,17,18
 377 1062 377 1062 377 1063 c 1,19,20
 382 1059 382 1059 396 1038 c 2,21,-1
 434 984 l 2,22,23
 435 982 435 982 438 977 c 0,24,25
 449 959 449 959 455 958 c 1,26,27
 461 959 461 959 491 986 c 0,28,29
 500 994 500 994 519 1011 c 0,30,31
 564 1051 564 1051 585 1066 c 1,32,-1
 592 1055 l 1,33,-1
 593 1055 l 1,34,-1
 605 1066 l 1,35,-1
 607 1066 l 1,36,-1
 613 1055 l 1,37,-1
 615 1055 l 1,38,-1
 627 1066 l 1,39,-1
 628 1066 l 1,40,-1
 685 984 l 1,41,42
 710 954 710 954 712 946 c 1,43,44
 711 943 711 943 705 935 c 0,45,46
 704 932 704 932 705 928 c 0,47,48
 707 924 707 924 706 922 c 0,49,50
 705 920 705 920 702 916 c 0,51,52
 699 912 699 912 699 910 c 0,53,54
 698 906 698 906 699 902 c 0,55,56
 699 895 699 895 698 892 c 1,57,58
 727 870 727 870 723 856 c 0,59,60
 720 850 720 850 688 823 c 2,61,-1
 585 735 l 1,62,-1
 584 735 l 1,63,-1
 558 771 l 1,64,65
 548 781 548 781 542 777 c 1,66,-1
 540 777 l 1,67,-1
 534 789 l 1,68,-1
 532 789 l 1,69,-1
 520 777 l 1,70,-1
 519 777 l 1,71,-1
 469 851 l 1,72,-1
 467 851 l 1,73,74
 445 828 445 828 353 752 c 0,75,76
 341 742 341 742 332 735 c 1,77,-1
 330 735 l 1,78,-1
 305 771 l 1,79,80
 295 781 295 781 288 777 c 1,81,-1
 287 777 l 1,82,-1
 280 789 l 1,83,-1
 279 789 l 1,84,-1
 267 777 l 1,85,-1
 266 777 l 1,86,-1
 181 899 l 1,87,-1
 181 900 l 1,88,-1
 194 910 l 1,89,-1
 194 912 l 1,90,-1
 186 922 l 1,91,-1
 186 923 l 1,92,-1
 199 933 l 1,93,-1
 200 935 l 1,94,-1
 191 945 l 1,95,-1
 192 946 l 1,0,-1
304 846 m 1,96,-1
 367 900 l 2,97,98
 387 917 387 917 387 918 c 0,99,100
 388 920 388 920 389 922 c 0,101,102
 390 928 390 928 368 956 c 2,103,-1
 347 986 l 2,104,105
 339 995 339 995 337 995 c 0,106,107
 334 995 334 995 329.5 992 c 128,-1,108
 325 989 325 989 319 983 c 2,109,-1
 313 977 l 2,110,111
 307 972 307 972 294 962 c 0,112,113
 263 936 263 936 250 922 c 1,114,-1
 303 846 l 1,115,-1
 304 846 l 1,96,-1
591 997 m 1,116,-1
 504 923 l 1,117,-1
 503 922 l 1,118,-1
 556 846 l 1,119,-1
 558 846 l 1,120,-1
 620 900 l 1,121,-1
 642 922 l 1,122,-1
 629 943 l 1,123,-1
 591 997 l 1,116,-1
453 935 m 1,124,-1
 448 932 l 1,125,-1
 453 935 l 1,124,-1
448 912 m 1,126,-1
 442 909 l 1,127,-1
 448 912 l 1,126,-1
-19 207 m 1,128,129
 -4 207 -4 207 27 206 c 0,130,131
 172 202 172 202 240 234 c 0,132,133
 281 254 281 254 312 284 c 1,134,135
 347 321 347 321 376 395 c 1,136,137
 393 444 393 444 413 456 c 1,138,139
 414 459 414 459 424 458 c 2,140,-1
 434 456 l 1,141,142
 465 460 465 460 474 456 c 1,143,144
 491 443 491 443 478 369 c 1,145,146
 500 364 500 364 493 312 c 0,147,148
 491 292 491 292 491 285 c 0,149,150
 493 267 493 267 521 244 c 2,151,-1
 522 243 l 2,152,153
 572 201 572 201 712 205 c 0,154,155
 765 207 765 207 777 207 c 1,156,-1
 767 161 l 1,157,-1
 680 161 l 2,158,159
 552 161 552 161 512 174 c 0,160,161
 453 195 453 195 432 244 c 0,162,163
 422 271 422 271 428 350 c 0,164,165
 429 376 429 376 428 392 c 1,166,167
 421 383 421 383 399 326 c 0,168,169
 398 323 398 323 397 321 c 0,170,171
 378 274 378 274 350 243 c 0,172,173
 278 164 278 164 131 161 c 0,174,175
 115 161 115 161 82 161 c 0,176,177
 65 161 65 161 58 161 c 2,178,-1
 -29 161 l 1,179,-1
 -19 207 l 1,128,129
353 166 m 1,180,-1
 361 148 l 1,181,-1
 374 166 l 1,182,-1
 383 148 l 1,183,-1
 396 166 l 1,184,185
 398 162 398 162 411 131 c 1,186,187
 427 99 427 99 448 80 c 0,188,189
 511 22 511 22 664 22 c 0,190,191
 676 22 676 22 700 23 c 0,192,193
 723 23 723 23 735 23 c 1,194,-1
 715 -66 l 1,195,196
 579 -66 579 -66 526 -49 c 0,197,198
 503 -41 503 -41 451 -3 c 2,199,-1
 380 46 l 1,200,201
 348 0 348 0 260 -34 c 0,202,203
 166 -70 166 -70 -10 -67 c 0,204,205
 -63 -66 -63 -66 -82 -66 c 1,206,-1
 -61 23 l 1,207,208
 99 23 99 23 165 41 c 0,209,210
 239 62 239 62 295 107 c 0,211,212
 333 138 333 138 353 166 c 1,180,-1
EndSplineSet
EndChar

StartChar: afii57419
Encoding: 1579 1579 361
AltUni2: 00fe99.ffffffff.0
Width: 1642
VWidth: 1639
GlyphClass: 2
Flags: HW
AnchorPoint: "GposMark2BaseAnchorClassErabAbove_01_02" 812 1344 basechar 0
AnchorPoint: "GposMark2BaseAnchorClassErabBelow_01_02" 812 -249 basechar 0
LayerCount: 2
Fore
SplineSet
999 1194 m 1,0,-1
 1007 1182 l 1,1,-1
 1008 1182 l 1,2,-1
 1020 1194 l 1,3,-1
 1022 1194 l 1,4,-1
 1028 1182 l 1,5,-1
 1030 1182 l 1,6,-1
 1042 1194 l 1,7,-1
 1043 1194 l 1,8,-1
 1128 1073 l 1,9,-1
 1128 1071 l 1,10,-1
 1115 1061 l 1,11,-1
 1114 1059 l 1,12,-1
 1123 1050 l 1,13,-1
 1122 1048 l 1,14,-1
 1109 1038 l 1,15,-1
 1109 1036 l 1,16,-1
 1117 1027 l 1,17,-1
 1117 1025 l 2,18,19
 1114 1016 1114 1016 1137 988 c 0,20,21
 1139 985 1139 985 1140 984 c 2,22,-1
 1139 982 l 1,23,-1
 1096 946 l 1,24,-1
 1095 945 l 1,25,-1
 1102 935 l 1,26,-1
 1104 935 l 1,27,-1
 1116 946 l 1,28,-1
 1117 946 l 1,29,-1
 1202 825 l 1,30,-1
 1202 823 l 1,31,-1
 1189 813 l 1,32,-1
 1188 812 l 1,33,-1
 1197 802 l 1,34,-1
 1196 800 l 1,35,-1
 1183 790 l 1,36,-1
 1183 789 l 1,37,-1
 1191 779 l 1,38,-1
 1191 777 l 2,39,40
 1188 768 1188 768 1211 740 c 0,41,42
 1213 737 1213 737 1214 736 c 2,43,-1
 1213 735 l 1,44,-1
 1110 646 l 2,45,46
 1108 644 1108 644 1103 639 c 0,47,48
 1080 617 1080 617 1073 617 c 0,49,50
 1070 617 1070 617 1068 618.5 c 128,-1,51
 1066 620 1066 620 1064 624 c 2,52,-1
 1062 628 l 1,53,54
 1041 659 1041 659 1038 664 c 1,55,-1
 1037 664 l 1,56,57
 1029 661 1029 661 1020 664 c 0,58,59
 1018 664 1018 664 1014 662 c 0,60,61
 1010 660 1010 660 1008 659 c 0,62,63
 1003 659 1003 659 997 670 c 0,64,65
 995 671 995 671 995 672 c 2,66,-1
 995 674 l 1,67,68
 988 684 988 684 974 707 c 0,69,70
 943 757 943 757 923 774 c 1,71,72
 924 772 924 772 930 766 c 0,73,74
 950 743 950 743 948 735 c 0,75,76
 945 728 945 728 918 707 c 2,77,-1
 840 640 l 1,78,79
 812 618 812 618 811 617 c 0,80,81
 808 617 808 617 806 618.5 c 128,-1,82
 804 620 804 620 802 624 c 2,83,-1
 800 628 l 1,84,85
 779 659 779 659 776 664 c 1,86,-1
 774 664 l 1,87,88
 766 661 766 661 758 664 c 0,89,90
 756 664 756 664 751 662 c 0,91,92
 746 660 746 660 744 659 c 0,93,94
 739 662 739 662 729 679 c 2,95,-1
 695 728 l 1,96,-1
 671 763 l 2,97,98
 663 776 663 776 662 777 c 0,99,100
 663 780 663 780 669 789 c 0,101,102
 670 792 670 792 669 796 c 0,103,104
 667 800 667 800 667 802 c 0,105,106
 668 804 668 804 671 808 c 0,107,108
 674 812 674 812 675 813 c 0,109,110
 676 815 676 815 674 820 c 0,111,112
 673 825 673 825 673 827 c 0,113,114
 677 835 677 835 714 864 c 0,115,116
 717 867 717 867 719 868 c 2,117,-1
 782 922 l 2,118,119
 807 943 807 943 808 943 c 0,120,121
 811 942 811 942 818 938 c 0,122,123
 820 937 820 937 825 940 c 0,124,125
 829 943 829 943 831 943 c 0,126,127
 833 943 833 943 836 941 c 0,128,129
 840 939 840 939 841 938 c 0,130,131
 843 938 843 938 847 941 c 0,132,133
 852 943 852 943 854 943 c 0,134,135
 859 940 859 940 873 918 c 2,136,-1
 915 858 l 2,137,138
 916 856 916 856 919 851 c 0,139,140
 930 833 930 833 937 831 c 0,141,142
 942 831 942 831 949 838 c 128,-1,143
 956 845 956 845 967 854 c 2,144,-1
 978 864 l 2,145,146
 986 873 986 873 986 876 c 0,147,148
 986 882 986 882 969 904 c 0,149,150
 966 909 966 909 964 912 c 1,151,-1
 963 912 l 1,152,153
 955 909 955 909 946 912 c 0,154,155
 943 912 943 912 939 910 c 0,156,157
 933 907 933 907 930 909 c 0,158,159
 917 921 917 921 879 981 c 0,160,161
 874 989 874 989 870 994 c 0,162,163
 868 996 868 996 864 1002 c 0,164,165
 851 1018 851 1018 850 1025 c 0,166,167
 851 1027 851 1027 854 1032 c 0,168,169
 857 1037 857 1037 858 1038 c 0,170,171
 859 1040 859 1040 857 1044 c 0,172,173
 856 1048 856 1048 856 1050 c 0,174,175
 857 1052 857 1052 860 1056 c 0,176,177
 863 1061 863 1061 863 1063 c 0,178,179
 863 1065 863 1065 862 1068 c 0,180,181
 861 1072 861 1072 861 1074 c 0,182,183
 867 1083 867 1083 900 1109 c 1,184,-1
 999 1194 l 1,0,-1
1006 1125 m 1,185,186
 992 1115 992 1115 942 1071 c 0,187,188
 922 1054 922 1054 922 1053 c 0,189,190
 921 1051 921 1051 920 1050 c 0,191,192
 919 1047 919 1047 924 1038 c 2,193,-1
 926 1036 l 1,194,-1
 947 1007 l 2,195,196
 948 1005 948 1005 951 1000 c 0,197,198
 965 977 965 977 971 976 c 0,199,200
 974 976 974 976 979 979 c 128,-1,201
 984 982 984 982 990 988 c 2,202,-1
 995 994 l 1,203,-1
 1058 1048 l 1,204,-1
 1059 1050 l 1,205,-1
 1006 1125 l 1,185,186
1080 877 m 1,206,207
 1066 867 1066 867 1016 823 c 0,208,209
 996 806 l 0,210,211
 995 803 995 803 994 802 c 0,212,213
 993 799 993 799 998 791 c 2,214,-1
 1000 789 l 1,215,-1
 1021 759 l 2,216,217
 1022 757 1022 757 1025 752 c 0,218,219
 1039 728 1039 728 1045 728 c 0,220,221
 1048 728 1048 728 1053 731.5 c 128,-1,222
 1058 735 1058 735 1064 740 c 2,223,-1
 1069 746 l 1,224,-1
 1132 800 l 1,225,-1
 1133 802 l 1,226,-1
 1080 877 l 1,206,207
815 874 m 0,227,228
 809 873 809 873 780 846 c 0,229,230
 777 843 777 843 767 836 c 0,231,232
 738 813 738 813 732 804 c 1,233,234
 731 798 731 798 741 784 c 2,235,-1
 770 743 l 2,236,237
 781 729 781 729 783 728 c 0,238,239
 789 729 789 729 819 756 c 0,240,241
 822 759 822 759 831 766 c 0,242,243
 860 789 860 789 866 799 c 1,244,245
 867 805 867 805 857 818 c 2,246,-1
 829 859 l 2,247,248
 817 873 817 873 815 874 c 0,227,228
935 818 m 0,249,250
 929 818 929 818 928 811 c 0,251,252
 927 806 927 806 931 807 c 0,253,254
 937 807 937 807 938 814 c 0,255,256
 939 818 939 818 935 818 c 0,249,250
930 795 m 0,257,258
 924 795 924 795 923 788 c 0,259,260
 922 783 922 783 926 784 c 0,261,262
 932 784 932 784 933 791 c 0,263,264
 934 795 934 795 930 795 c 0,257,258
288 512 m 1,265,266
 323 536 323 536 326 513 c 0,267,268
 326 509 326 509 326 505 c 0,269,270
 323 488 323 488 296 448 c 1,271,272
 269 400 269 400 256 359 c 0,273,274
 246 330 246 330 247 321 c 0,275,276
 253 304 253 304 282 277 c 0,277,278
 292 269 292 269 322 251 c 1,279,280
 409 207 409 207 614 190 c 2,281,-1
 616 190 l 1,282,283
 835 175 835 175 1114 213 c 0,284,285
 1243 229 1243 229 1320 259 c 0,286,287
 1378 282 1378 282 1392 302 c 1,288,289
 1396 312 1396 312 1386 346 c 0,290,291
 1375 377 1375 377 1352 431 c 0,292,293
 1339 459 1339 459 1339 466 c 0,294,295
 1340 475 1340 475 1350 500 c 0,296,297
 1350 502 1350 502 1349 507 c 0,298,299
 1349 513 1349 513 1350 515 c 0,300,301
 1352 518 1352 518 1373 546 c 0,302,303
 1384 562 1384 562 1431 628 c 0,304,305
 1457 666 1457 666 1463 670 c 0,306,307
 1474 675 1474 675 1481 667 c 1,308,309
 1494 677 1494 677 1501 667 c 1,310,-1
 1503 667 l 1,311,312
 1519 682 1519 682 1530 650 c 0,313,314
 1531 646 1531 646 1532 645 c 0,315,316
 1553 583 1553 583 1561 518 c 0,317,318
 1576 390 l 0,319,320
 1577 373 1577 373 1576 359 c 0,321,322
 1567 205 1567 205 1473 99 c 0,323,324
 1451 75 1451 75 1427 57 c 0,325,326
 1384 27 1384 27 1304 -2 c 1,327,328
 1216 -31 1216 -31 1093 -51 c 0,329,330
 819 -99 819 -99 589 -87 c 0,331,332
 379 -77 379 -77 277 -31 c 0,333,334
 266 -26 266 -26 196 20 c 1,335,336
 95 82 95 82 73 154 c 0,337,338
 69 168 69 168 67 182 c 0,339,340
 47 319 47 319 140 477 c 0,341,342
 153 498 153 498 165 517 c 0,343,344
 213 587 213 587 241 605 c 0,345,346
 250 611 250 611 269 610 c 0,347,348
 272 610 272 610 281 611 c 0,349,350
 306 613 306 613 312 608 c 1,351,352
 318 600 318 600 309 579 c 1,353,354
 298 530 298 530 288 512 c 1,265,266
1478 602 m 1,355,356
 1467 592 1467 592 1427 531 c 0,357,358
 1423 525 1423 525 1420 522 c 0,359,360
 1401 496 1401 496 1401 490 c 0,361,362
 1402 480 1402 480 1420 443 c 1,363,364
 1452 363 1452 363 1446 319 c 0,365,366
 1445 315 1445 315 1445 312 c 0,367,368
 1435 259 1435 259 1400 236 c 0,369,370
 1397 234 1397 234 1396 233 c 0,371,372
 1358 212 1358 212 1299 197 c 0,373,374
 1234 179 1234 179 1110 162 c 0,375,376
 1105 161 1105 161 943 148 c 0,377,378
 931 147 931 147 922 146 c 0,379,380
 874 141 874 141 701 141 c 0,381,382
 467 141 467 141 353 174 c 0,383,384
 208 217 208 217 182 300 c 1,385,386
 167 367 167 367 226 507 c 1,387,-1
 224 507 l 1,388,389
 147 411 147 411 123 328 c 0,390,391
 90 205 90 205 178 114 c 0,392,393
 200 92 200 92 226 77 c 0,394,395
 336 12 336 12 535 3 c 0,396,397
 787 -8 787 -8 1090 48 c 1,398,399
 1293 83 1293 83 1386 157 c 0,400,401
 1416 182 1416 182 1438 210 c 0,402,403
 1529 331 1529 331 1506 490 c 0,404,405
 1502 513 1502 513 1490 555 c 0,406,407
 1481 587 1481 587 1478 602 c 1,355,356
288 512 m 1,408,-1
 286 510 l 1,409,-1
 288 512 l 1,408,-1
228 510 m 1,410,-1
 226 508 l 1,411,-1
 228 510 l 1,410,-1
EndSplineSet
AlternateSubs2: "gsub_alternate_dfl_aalt_arab_FAR_Lookup_01_Subtable_01" uniFE9A uniFE9B afii57419 uniFE9C
Substitution2: "gsub_single_rtl_fina_arab_FAR_Lookup_01_Subtable_01" uniFE9A
Substitution2: "gsub_single_rtl_init_arab_FAR_Lookup_01_Subtable_01" uniFE9B
Substitution2: "gsub_single_rtl_medi_arab_FAR_Lookup_01_Subtable_01" uniFE9C
EndChar

StartChar: uniFE9A
Encoding: 65178 65178 362
Width: 1598
VWidth: 1639
GlyphClass: 2
Flags: HW
AnchorPoint: "GposMark2BaseAnchorClassErabAbove_01_02" 851.5 1344 basechar 0
AnchorPoint: "GposMark2BaseAnchorClassErabBelow_01_02" 851.5 -245 basechar 0
LayerCount: 2
Fore
SplineSet
978 1194 m 1,0,-1
 986 1182 l 1,1,-1
 987 1182 l 1,2,-1
 999 1194 l 1,3,-1
 1001 1194 l 1,4,-1
 1007 1182 l 1,5,-1
 1009 1182 l 1,6,-1
 1021 1194 l 1,7,-1
 1022 1194 l 1,8,-1
 1107 1073 l 1,9,-1
 1107 1071 l 1,10,-1
 1094 1061 l 1,11,-1
 1093 1059 l 1,12,-1
 1102 1050 l 1,13,-1
 1101 1048 l 1,14,-1
 1088 1038 l 1,15,-1
 1088 1036 l 1,16,-1
 1096 1027 l 1,17,-1
 1096 1025 l 2,18,19
 1093 1016 1093 1016 1115 988 c 0,20,21
 1117 985 1117 985 1118 984 c 2,22,-1
 1118 982 l 1,23,-1
 1074 945 l 1,24,-1
 1085 938 l 2,25,26
 1088 938 1088 938 1092 940 c 0,27,28
 1098 943 1098 943 1101 941 c 0,29,30
 1113 930 1113 930 1150 872 c 0,31,32
 1154 865 1154 865 1157 861 c 0,33,34
 1159 858 1159 858 1165 852 c 0,35,36
 1178 835 1178 835 1180 827 c 1,37,38
 1179 821 1179 821 1173 812 c 0,39,40
 1172 810 1172 810 1174 806 c 0,41,42
 1175 802 1175 802 1175 800 c 0,43,44
 1174 798 1174 798 1171 794 c 0,45,46
 1168 789 1168 789 1168 787 c 0,47,48
 1168 773 1168 773 1168 774 c 2,49,-1
 1167 772 l 1,50,51
 1192 743 1192 743 1192 735 c 0,52,53
 1191 732 1191 732 1187 727.5 c 128,-1,54
 1183 723 1183 723 1177 718 c 2,55,-1
 1170 713 l 2,56,57
 1160 704 1160 704 1140 688 c 0,58,59
 1119 671 1119 671 1110 663 c 2,60,-1
 1070 628 l 2,61,62
 1056 617 1056 617 1053 617 c 0,63,64
 1050 617 1050 617 1048.5 618.5 c 128,-1,65
 1047 620 1047 620 1045 624 c 2,66,-1
 1042 628 l 1,67,68
 1021 659 1021 659 1019 664 c 1,69,-1
 1017 664 l 1,70,71
 1009 661 1009 661 1000 664 c 0,72,73
 998 664 998 664 994 662 c 0,74,75
 990 660 990 660 989 659 c 0,76,77
 984 659 984 659 978 670 c 0,78,79
 976 671 976 671 976 672 c 2,80,-1
 975 674 l 1,81,82
 968 684 968 684 954 707 c 0,83,84
 923 757 923 757 904 774 c 1,85,86
 905 772 905 772 910 766 c 0,87,88
 930 743 930 743 928 735 c 0,89,90
 925 728 925 728 899 707 c 2,91,-1
 821 640 l 1,92,93
 793 618 793 618 791 617 c 0,94,95
 788 617 788 617 786 618.5 c 128,-1,96
 784 620 784 620 782 624 c 2,97,-1
 780 628 l 1,98,99
 759 659 759 659 756 664 c 1,100,-1
 755 664 l 1,101,102
 747 661 747 661 738 664 c 0,103,104
 736 664 736 664 731 662 c 0,105,106
 726 660 726 660 725 659 c 0,107,108
 718 664 718 664 703 689 c 1,109,-1
 659 751 l 2,110,111
 658 753 658 753 654 757 c 0,112,113
 643 771 643 771 642 777 c 1,114,115
 643 780 643 780 649 789 c 0,116,117
 650 792 650 792 649 796 c 0,118,119
 647 800 647 800 648 802 c 0,120,121
 649 804 649 804 651 808 c 0,122,123
 654 812 654 812 655 813 c 0,124,125
 655 815 655 815 654 819 c 0,126,127
 654 825 654 825 655 828 c 0,128,129
 660 835 660 835 690 859 c 2,130,-1
 761 920 l 2,131,132
 787 942 787 942 789 943 c 0,133,134
 791 943 791 943 794 941 c 0,135,136
 798 939 798 939 800 938 c 0,137,138
 802 938 802 938 806 941 c 0,139,140
 810 943 810 943 812 943 c 0,141,142
 814 943 814 943 817 940 c 0,143,144
 821 938 821 938 823 938 c 2,145,-1
 837 941 l 1,146,147
 848 931 848 931 888 869 c 0,148,149
 892 863 892 863 894 859 c 0,150,151
 895 857 895 857 899 852 c 0,152,153
 911 832 911 832 917 831 c 0,154,155
 922 831 922 831 929.5 838 c 128,-1,156
 937 845 937 845 947 854 c 2,157,-1
 958 864 l 2,158,159
 966 873 966 873 967 876 c 0,160,161
 966 893 966 893 949 904 c 0,162,163
 942 909 942 909 936 905 c 1,164,-1
 934 905 l 1,165,-1
 928 917 l 1,166,-1
 926 917 l 1,167,-1
 914 905 l 1,168,-1
 913 905 l 1,169,-1
 828 1027 l 1,170,-1
 828 1028 l 1,171,-1
 841 1038 l 1,172,-1
 842 1040 l 1,173,-1
 833 1050 l 1,174,-1
 834 1051 l 1,175,-1
 846 1061 l 1,176,-1
 847 1063 l 1,177,-1
 838 1073 l 1,178,-1
 839 1074 l 1,179,-1
 978 1194 l 1,0,-1
985 1125 m 1,180,-1
 898 1051 l 1,181,-1
 897 1050 l 1,182,-1
 950 974 l 1,183,-1
 951 974 l 1,184,-1
 1037 1048 l 1,185,-1
 1038 1050 l 1,186,-1
 985 1125 l 1,180,-1
1074 945 m 1,187,-1
 1063 935 l 1,188,-1
 1074 945 l 1,187,-1
796 874 m 0,189,190
 790 873 790 873 760 846 c 0,191,192
 757 843 757 843 748 836 c 0,193,194
 719 813 719 813 712 804 c 1,195,196
 711 798 711 798 721 784 c 2,197,-1
 750 743 l 2,198,199
 761 729 761 729 764 728 c 0,200,201
 770 729 770 729 799 756 c 0,202,203
 802 759 802 759 812 766 c 0,204,205
 841 789 841 789 847 799 c 1,206,207
 848 805 848 805 838 818 c 2,208,-1
 809 859 l 2,209,210
 798 873 798 873 796 874 c 0,189,190
1060 874 m 0,211,212
 1056 873 1056 873 1040 861 c 0,213,214
 1035 857 1035 857 992 820 c 0,215,216
 974 804 974 804 974 800 c 0,217,218
 975 791 975 791 999 761 c 0,219,220
 1001 758 1001 758 1002 758 c 0,221,222
 1003 756 1003 756 1006 751 c 0,223,224
 1019 729 1019 729 1026 728 c 0,225,226
 1032 729 1032 729 1063 758 c 0,227,228
 1066 761 1066 761 1077 768 c 0,229,230
 1105 789 1105 789 1111 799 c 1,231,232
 1112 805 1112 805 1102 818 c 2,233,-1
 1073 859 l 2,234,235
 1062 873 1062 873 1060 874 c 0,211,212
916 818 m 0,236,237
 910 818 910 818 908 811 c 0,238,239
 907 806 907 806 911 807 c 0,240,241
 917 807 917 807 918 814 c 0,242,243
 920 818 920 818 916 818 c 0,236,237
910 795 m 0,244,245
 904 795 904 795 903 788 c 0,246,247
 902 783 902 783 906 784 c 0,248,249
 912 784 912 784 913 791 c 0,250,251
 914 795 914 795 910 795 c 0,244,245
1333 98 m 1,252,253
 1195 20 1195 20 1164 7 c 0,254,255
 1157 4 1157 4 1151 2 c 0,256,257
 911 -95 911 -95 601 -95 c 0,258,259
 393 -94 393 -94 286 -52 c 0,260,261
 263 -43 263 -43 193 2 c 0,262,263
 112 55 112 55 89 95 c 0,264,265
 84 103 84 103 81 110 c 0,266,267
 29 222 29 222 100 393 c 0,268,269
 126 455 126 455 162 507 c 0,270,271
 197 558 197 558 226 587 c 1,272,273
 247 605 247 605 287 602 c 0,274,275
 307 602 307 602 309 600 c 0,276,277
 311 597 311 597 312 595 c 0,278,279
 313 589 313 589 307 569 c 1,280,281
 299 527 299 527 284 502 c 1,282,283
 311 523 311 523 322 509 c 1,284,285
 325 501 325 501 323 490 c 0,286,287
 320 480 320 480 307 460 c 0,288,289
 299 447 299 447 296 441 c 0,290,291
 243 352 243 352 243 310 c 0,292,293
 244 282 244 282 293 249 c 1,294,295
 364 198 364 198 522 182 c 0,296,297
 630 172 630 172 789 184 c 0,298,299
 1048 202 1048 202 1237 300 c 0,300,301
 1322 345 1322 345 1387 405 c 0,302,303
 1395 412 1395 412 1412 430 c 0,304,305
 1457 477 1457 477 1480 489 c 1,306,307
 1488 491 1488 491 1521 489 c 0,308,309
 1538 488 1538 488 1539 487 c 0,310,311
 1543 479 1543 479 1539 461 c 0,312,313
 1538 455 1538 455 1535 441 c 0,314,315
 1529 407 1529 407 1522 394 c 1,316,317
 1558 409 1558 409 1550 367 c 0,318,319
 1548 358 1548 358 1517 282 c 0,320,321
 1516 279 1516 279 1515 276 c 0,322,323
 1506 250 1506 250 1510 241 c 1,324,325
 1520 230 1520 230 1533 221.5 c 128,-1,326
 1546 213 1546 213 1569 210.5 c 128,-1,327
 1592 208 1592 208 1601 206.5 c 128,-1,328
 1610 205 1610 205 1642 206 c 2,329,-1
 1674 207 l 1,330,-1
 1664 161 l 1,331,-1
 1616 161 l 2,332,333
 1502 161 1502 161 1468 185 c 1,334,335
 1439 208 1439 208 1437 248 c 0,336,337
 1436 284 1436 284 1468 376 c 0,338,339
 1478 403 1478 403 1482 420 c 1,340,341
 1469 409 1469 409 1447 385 c 0,342,343
 1427 365 1427 365 1417 356 c 0,344,345
 1363 306 1363 306 1291 266 c 0,346,347
 1158 191 1158 191 981 159 c 1,348,349
 753 116 753 116 498 134 c 0,350,351
 327 148 327 148 252 195 c 0,352,353
 183 239 183 239 175 308 c 1,354,355
 171 377 171 377 224 500 c 1,356,-1
 223 500 l 1,357,358
 214 486 214 486 195 458 c 0,359,360
 136 370 136 370 121 318 c 0,361,362
 115 297 115 297 115 251 c 0,363,364
 114 65 114 65 352 13 c 0,365,366
 379 7 379 7 407 3 c 0,367,368
 555 -17 555 -17 744 5 c 0,369,370
 952 27 952 27 1126 103 c 1,371,372
 1204 139 1204 139 1270 182 c 0,373,374
 1280 189 1280 189 1300 204 c 0,375,376
 1331 227 1331 227 1345 236 c 1,377,-1
 1343 218 l 1,378,-1
 1367 236 l 1,379,-1
 1364 218 l 1,380,-1
 1388 236 l 1,381,382
 1383 212 1383 212 1382 171 c 1,383,384
 1385 144 1385 144 1394 121 c 0,385,386
 1433 29 1433 29 1587 24 c 0,387,388
 1606 23 1606 23 1632 23 c 1,389,-1
 1611 -66 l 1,390,391
 1522 -65 1522 -65 1476 -43 c 0,392,393
 1466 -38 1466 -38 1450 -23 c 0,394,395
 1435 -11 1435 -11 1427 -7 c 0,396,397
 1339 43 1339 43 1333 98 c 1,252,253
226 502 m 1,398,-1
 225 502 l 1,399,-1
 226 502 l 1,398,-1
1484 421 m 1,400,-1
 1482 420 l 1,401,-1
 1484 421 l 1,400,-1
EndSplineSet
EndChar

